<?xml version="1.0" encoding="UTF-8"?>
<!DOCTYPE svg PUBLIC "-//W3C//DTD SVG 1.1//EN" "http://www.w3.org/Graphics/SVG/1.1/DTD/svg11.dtd">
<svg xmlns="http://www.w3.org/2000/svg" version="1.1" width="710px" height="351px" style="shape-rendering:geometricPrecision; text-rendering:geometricPrecision; image-rendering:optimizeQuality; fill-rule:evenodd; clip-rule:evenodd" xmlns:xlink="http://www.w3.org/1999/xlink">
<g><path style="opacity:1" fill="#f8b203" d="M 153.5,-0.5 C 159.833,-0.5 166.167,-0.5 172.5,-0.5C 176.008,0.78282 179.342,2.44949 182.5,4.5C 183.035,6.44563 184.368,7.44563 186.5,7.5C 188.833,9.16667 190.833,11.1667 192.5,13.5C 192.427,15.0269 193.094,16.0269 194.5,16.5C 194.427,18.0269 195.094,19.0269 196.5,19.5C 196.415,22.6489 197.415,25.3155 199.5,27.5C 200.451,28.9187 200.784,30.5853 200.5,32.5C 200.432,36.5704 201.432,40.237 203.5,43.5C 205.792,50.6709 207.459,58.0043 208.5,65.5C 208.47,66.4972 208.97,67.1639 210,67.5C 213.078,66.8661 215.911,65.8661 218.5,64.5C 218.833,64.5 219.167,64.5 219.5,64.5C 225.177,63.6058 230.51,61.9391 235.5,59.5C 236.167,59.5 236.833,59.5 237.5,59.5C 242.176,58.9392 246.509,57.6059 250.5,55.5C 251.167,55.5 251.833,55.5 252.5,55.5C 253.5,55.5 254.5,55.5 255.5,55.5C 255.232,57.099 255.566,58.4324 256.5,59.5C 258.831,92.1414 261.165,124.808 263.5,157.5C 263.508,162.56 263.674,167.56 264,172.5C 263.617,171.944 263.117,171.611 262.5,171.5C 261.075,170.078 260.075,168.411 259.5,166.5C 259.446,164.368 258.446,163.035 256.5,162.5C 252.126,156.419 248.793,149.752 246.5,142.5C 246.293,139.759 245.293,137.426 243.5,135.5C 242.91,134.234 242.41,132.901 242,131.5C 235.322,138.005 228.155,144.005 220.5,149.5C 219.575,148.643 218.908,147.643 218.5,146.5C 218.167,145.5 217.5,144.833 216.5,144.5C 213.705,142.249 211.372,139.582 209.5,136.5C 209.573,134.973 208.906,133.973 207.5,133.5C 206.5,133.167 205.833,132.5 205.5,131.5C 205.573,129.973 204.906,128.973 203.5,128.5C 201.833,127.5 200.5,126.167 199.5,124.5C 199.027,123.094 198.027,122.427 196.5,122.5C 196.027,121.094 195.027,120.427 193.5,120.5C 181.803,114.592 169.47,112.925 156.5,115.5C 153.509,115.166 151.176,116.166 149.5,118.5C 144.219,121.78 139.219,125.447 134.5,129.5C 133.094,129.973 132.427,130.973 132.5,132.5C 130.819,135.203 129.153,137.869 127.5,140.5C 125.926,142.102 125.259,144.102 125.5,146.5C 125.567,147.959 125.234,149.292 124.5,150.5C 121.914,156.178 121.914,161.844 124.5,167.5C 125.15,169.435 125.483,171.435 125.5,173.5C 125.12,175.698 125.787,177.365 127.5,178.5C 129.008,180.181 130.008,182.181 130.5,184.5C 130.738,186.404 131.738,187.738 133.5,188.5C 134.08,190.749 135.413,192.415 137.5,193.5C 138.08,195.749 139.413,197.415 141.5,198.5C 142.08,200.749 143.413,202.415 145.5,203.5C 146.08,205.749 147.413,207.415 149.5,208.5C 150.906,208.973 151.573,209.973 151.5,211.5C 151.5,212.833 150.833,213.5 149.5,213.5C 148.102,211.891 146.435,211.058 144.5,211C 136.242,217.38 128.076,223.88 120,230.5C 119.312,231.332 119.479,231.998 120.5,232.5C 123.897,234.526 127.23,236.526 130.5,238.5C 131.035,240.446 132.368,241.446 134.5,241.5C 138.852,243.673 142.852,246.34 146.5,249.5C 146.973,250.906 147.973,251.573 149.5,251.5C 150.5,251.833 151.167,252.5 151.5,253.5C 151.973,254.906 152.973,255.573 154.5,255.5C 156.525,257.196 158.525,258.863 160.5,260.5C 162.766,264.436 165.766,267.769 169.5,270.5C 170.5,270.833 171.167,271.5 171.5,272.5C 172.08,274.749 173.413,276.415 175.5,277.5C 176.5,277.833 177.167,278.5 177.5,279.5C 177.427,281.027 178.094,282.027 179.5,282.5C 179.427,284.027 180.094,285.027 181.5,285.5C 181.567,286.959 181.234,288.292 180.5,289.5C 160.48,306.183 140.147,322.516 119.5,338.5C 117.833,337.5 116.5,336.167 115.5,334.5C 114.107,328.962 113.44,323.295 113.5,317.5C 113.429,309.494 112.096,301.827 109.5,294.5C 108.549,293.081 108.216,291.415 108.5,289.5C 108.692,285.098 107.692,281.098 105.5,277.5C 105.662,275.473 105.495,273.473 105,271.5C 104.617,270.944 104.117,270.611 103.5,270.5C 103.5,269.833 103.5,269.167 103.5,268.5C 103.741,266.102 103.074,264.102 101.5,262.5C 101.946,259.99 101.28,257.99 99.5,256.5C 99.5,255.833 99.5,255.167 99.5,254.5C 99.0719,251.215 98.0719,248.215 96.5,245.5C 95.596,244.791 95.2627,243.791 95.5,242.5C 95.7406,240.102 95.0739,238.102 93.5,236.5C 91.9281,233.785 90.9281,230.785 90.5,227.5C 90.5979,225.447 89.9313,223.78 88.5,222.5C 86.7329,220.208 85.7329,217.542 85.5,214.5C 85.5979,212.447 84.9313,210.78 83.5,209.5C 82.0687,208.22 81.4021,206.553 81.5,204.5C 81.5979,202.447 80.9313,200.78 79.5,199.5C 78.0687,198.22 77.4021,196.553 77.5,194.5C 77.7709,192.62 77.1042,191.287 75.5,190.5C 73.9348,188.491 72.9348,186.157 72.5,183.5C 72.7709,181.62 72.1042,180.287 70.5,179.5C 67.9302,174.689 65.5968,169.689 63.5,164.5C 63.7709,162.62 63.1042,161.287 61.5,160.5C 60.1302,158.75 59.1302,156.75 58.5,154.5C 58.7709,152.62 58.1042,151.287 56.5,150.5C 56.1667,149.833 55.8333,149.167 55.5,148.5C 55.7709,146.62 55.1042,145.287 53.5,144.5C 52.3263,143.486 51.6596,142.153 51.5,140.5C 51.7148,138.821 51.0481,137.821 49.5,137.5C 49.5,137.167 49.5,136.833 49.5,136.5C 49.573,134.973 48.9063,133.973 47.5,133.5C 46.3263,132.486 45.6596,131.153 45.5,129.5C 45.573,127.973 44.9063,126.973 43.5,126.5C 42.6618,126.158 42.3284,125.492 42.5,124.5C 42.7148,122.821 42.0481,121.821 40.5,121.5C 39.6618,121.158 39.3284,120.492 39.5,119.5C 38.3697,116.803 38.3697,114.137 39.5,111.5C 41.7857,111.405 43.7857,110.738 45.5,109.5C 47.38,109.973 49.2133,109.307 51,107.5C 51.3826,108.056 51.8826,108.389 52.5,108.5C 55.1522,108.59 57.4855,107.924 59.5,106.5C 62.4282,106.435 65.0948,105.768 67.5,104.5C 70.1873,104.664 72.854,104.497 75.5,104C 76.056,103.617 76.3893,103.117 76.5,102.5C 77.5676,101.566 78.901,101.232 80.5,101.5C 83.5133,101.107 86.1799,101.774 88.5,103.5C 88.427,105.027 89.0937,106.027 90.5,106.5C 90.427,108.027 91.0937,109.027 92.5,109.5C 93.3382,109.842 93.6716,110.508 93.5,111.5C 93.427,113.027 94.0937,114.027 95.5,114.5C 95.8333,114.5 96.1667,114.5 96.5,114.5C 96.5,115.167 96.5,115.833 96.5,116.5C 96.5,117.167 96.8333,117.5 97.5,117.5C 97.8333,118.833 98.1667,118.833 98.5,117.5C 98.7373,116.209 98.404,115.209 97.5,114.5C 97.405,112.214 96.7384,110.214 95.5,108.5C 94.8505,106.565 94.5172,104.565 94.5,102.5C 94.2576,98.521 93.2576,94.8544 91.5,91.5C 91.5,91.1667 91.5,90.8333 91.5,90.5C 91.8294,87.7718 91.1628,85.4385 89.5,83.5C 87.4207,78.1225 86.0873,72.4558 85.5,66.5C 85.7062,63.5049 85.0395,60.8383 83.5,58.5C 81.7591,53.6749 81.4257,48.6749 82.5,43.5C 84.0395,41.1617 84.7062,38.4951 84.5,35.5C 84.9925,33.1815 85.9925,31.1815 87.5,29.5C 88.9063,29.0269 89.573,28.0269 89.5,26.5C 91.5869,25.4154 92.9202,23.7488 93.5,21.5C 95.7488,20.9202 97.4154,19.5869 98.5,17.5C 99.6594,15.7497 101.326,14.7497 103.5,14.5C 105.698,14.8799 107.365,14.2132 108.5,12.5C 108.833,12.5 109.167,12.5 109.5,12.5C 114.43,11.7411 119.097,10.4078 123.5,8.5C 123.833,8.5 124.167,8.5 124.5,8.5C 129.165,7.9431 133.498,6.60976 137.5,4.5C 139.415,4.78448 141.081,4.45115 142.5,3.5C 146.19,2.00249 149.857,0.669158 153.5,-0.5 Z M 175.5,26.5 C 175.216,28.4147 175.549,30.0813 176.5,31.5C 176.898,35.7607 177.898,39.7607 179.5,43.5C 179.366,45.2915 179.699,46.9582 180.5,48.5C 181.055,52.3968 182.055,56.0635 183.5,59.5C 183.394,62.0786 184.061,64.412 185.5,66.5C 184.957,66.56 184.624,66.8933 184.5,67.5C 184.994,69.0255 185.661,70.3588 186.5,71.5C 186.565,74.4282 187.232,77.0948 188.5,79.5C 188.87,83.2326 189.537,86.8993 190.5,90.5C 189.101,87.3707 187.435,84.3707 185.5,81.5C 185.573,79.9731 184.906,78.9731 183.5,78.5C 183.672,77.5084 183.338,76.8417 182.5,76.5C 182.217,75.7109 181.717,75.0442 181,74.5C 176.263,76.2585 171.763,77.5918 167.5,78.5C 163.603,79.0552 159.937,80.0552 156.5,81.5C 156.167,81.5 155.833,81.5 155.5,81.5C 152.933,81.7215 150.599,82.3882 148.5,83.5C 144.838,83.7234 141.505,84.7234 138.5,86.5C 133.523,86.5812 128.857,87.5812 124.5,89.5C 121.158,90.0898 118.158,90.7565 115.5,91.5C 115.279,88.9327 114.612,86.5994 113.5,84.5C 113.46,81.0124 112.793,77.6791 111.5,74.5C 110.767,69.5551 109.434,64.8885 107.5,60.5C 107.675,58.3792 107.341,56.3792 106.5,54.5C 106.279,51.9327 105.612,49.5994 104.5,47.5C 104.435,44.5718 103.768,41.9052 102.5,39.5C 103.448,38.0221 104.781,37.0221 106.5,36.5C 115.433,34.7686 124.1,32.4353 132.5,29.5C 135.428,29.4349 138.095,28.7682 140.5,27.5C 149.439,25.7672 158.106,23.4338 166.5,20.5C 168.861,20.3259 171.194,19.9926 173.5,19.5C 173.41,22.1522 174.076,24.4855 175.5,26.5 Z"/></g>
<g><path style="opacity:0.804" fill="#5f4617" d="M 142.5,3.5 C 141.081,4.45115 139.415,4.78448 137.5,4.5C 138.878,3.76558 140.378,3.09891 142,2.5C 142.399,2.72845 142.565,3.06178 142.5,3.5 Z"/></g>
<g><path style="opacity:0.898" fill="#725417" d="M 182.5,4.5 C 184.23,5.02561 185.564,6.02561 186.5,7.5C 184.368,7.44563 183.035,6.44563 182.5,4.5 Z"/></g>
<g><path style="opacity:0.933" fill="#8b6612" d="M 137.5,4.5 C 133.498,6.60976 129.165,7.9431 124.5,8.5C 125.008,6.76733 125.841,6.434 127,7.5C 130.293,5.79155 133.793,4.79155 137.5,4.5 Z"/></g>
<g><path style="opacity:0.914" fill="#906910" d="M 123.5,8.5 C 119.097,10.4078 114.43,11.7411 109.5,12.5C 113.656,10.6652 117.989,8.99856 122.5,7.5C 123.107,7.62358 123.44,7.95691 123.5,8.5 Z"/></g>
<g><path style="opacity:1" fill="#936a14" d="M 108.5,12.5 C 107.365,14.2132 105.698,14.8799 103.5,14.5C 104.848,13.3994 106.348,12.3994 108,11.5C 108.399,11.7284 108.565,12.0618 108.5,12.5 Z"/></g>
<g><path style="opacity:0.263" fill="#493713" d="M 192.5,13.5 C 193.906,13.9731 194.573,14.9731 194.5,16.5C 193.094,16.0269 192.427,15.0269 192.5,13.5 Z"/></g>
<g><path style="opacity:0.447" fill="#553f13" d="M 175.5,26.5 C 174.076,24.4855 173.41,22.1522 173.5,19.5C 171.194,19.9926 168.861,20.3259 166.5,20.5C 168.838,18.9605 171.505,18.2938 174.5,18.5C 175.092,21.1272 175.425,23.7938 175.5,26.5 Z"/></g>
<g><path style="opacity:0.22" fill="#473513" d="M 194.5,16.5 C 195.906,16.9731 196.573,17.9731 196.5,19.5C 195.094,19.0269 194.427,18.0269 194.5,16.5 Z"/></g>
<g><path style="opacity:0.745" fill="#775714" d="M 98.5,17.5 C 97.4154,19.5869 95.7488,20.9202 93.5,21.5C 94.5846,19.4131 96.2512,18.0798 98.5,17.5 Z"/></g>
<g><path style="opacity:0.871" fill="#6c5015" d="M 196.5,19.5 C 198.267,21.7916 199.267,24.4582 199.5,27.5C 197.415,25.3155 196.415,22.6489 196.5,19.5 Z"/></g>
<g><path style="opacity:0.522" fill="#553f15" d="M 93.5,21.5 C 92.9202,23.7488 91.5869,25.4154 89.5,26.5C 90.0798,24.2512 91.4131,22.5846 93.5,21.5 Z"/></g>
<g><path style="opacity:0.22" fill="#483613" d="M 89.5,26.5 C 89.573,28.0269 88.9063,29.0269 87.5,29.5C 87.427,27.9731 88.0937,26.9731 89.5,26.5 Z"/></g>
<g><path style="opacity:0.224" fill="#513d12" d="M 140.5,27.5 C 138.095,28.7682 135.428,29.4349 132.5,29.5C 134.838,27.9605 137.505,27.2938 140.5,27.5 Z"/></g>
<g><path style="opacity:0.596" fill="#634912" d="M 200.5,32.5 C 201.945,35.9365 202.945,39.6032 203.5,43.5C 201.432,40.237 200.432,36.5704 200.5,32.5 Z"/></g>
<g><path style="opacity:0.522" fill="#6a4e11" d="M 106.5,36.5 C 104.781,37.0221 103.448,38.0221 102.5,39.5C 101.596,38.791 101.263,37.791 101.5,36.5C 103.167,36.5 104.833,36.5 106.5,36.5 Z"/></g>
<g><path style="opacity:0.067" fill="#352913" d="M 176.5,31.5 C 178.416,35.1629 179.416,39.1629 179.5,43.5C 177.898,39.7607 176.898,35.7607 176.5,31.5 Z"/></g>
<g><path style="opacity:0.427" fill="#5e4613" d="M 84.5,35.5 C 84.7062,38.4951 84.0395,41.1617 82.5,43.5C 82.5651,40.5718 83.2318,37.9052 84.5,35.5 Z"/></g>
<g><path style="opacity:0.741" fill="#594314" d="M 104.5,47.5 C 105.612,49.5994 106.279,51.9327 106.5,54.5C 104.837,52.5615 104.171,50.2282 104.5,47.5 Z"/></g>
<g><path style="opacity:0.396" fill="#4a3813" d="M 180.5,48.5 C 182.568,51.763 183.568,55.4296 183.5,59.5C 182.055,56.0635 181.055,52.3968 180.5,48.5 Z"/></g>
<g><path style="opacity:0.231" fill="#553f0f" d="M 252.5,55.5 C 253.568,54.5655 254.901,54.2322 256.5,54.5C 256.5,56.1667 256.5,57.8333 256.5,59.5C 255.566,58.4324 255.232,57.099 255.5,55.5C 254.5,55.5 253.5,55.5 252.5,55.5 Z"/></g>
<g><path style="opacity:0.749" fill="#644a14" d="M 250.5,55.5 C 246.509,57.6059 242.176,58.9392 237.5,59.5C 241.501,57.4111 245.835,56.0777 250.5,55.5 Z"/></g>
<g><path style="opacity:0.796" fill="#725413" d="M 235.5,59.5 C 230.51,61.9391 225.177,63.6058 219.5,64.5C 224.494,62.0592 229.828,60.3926 235.5,59.5 Z"/></g>
<g><path style="opacity:0.067" fill="#352813" d="M 83.5,58.5 C 85.0395,60.8383 85.7062,63.5049 85.5,66.5C 84.2318,64.0948 83.5651,61.4282 83.5,58.5 Z"/></g>
<g><path style="opacity:0.392" fill="#4e3a13" d="M 107.5,60.5 C 109.434,64.8885 110.767,69.5551 111.5,74.5C 109.256,70.2068 107.923,65.5401 107.5,60.5 Z"/></g>
<g><path style="opacity:0.518" fill="#513d13" d="M 218.5,64.5 C 215.911,65.8661 213.078,66.8661 210,67.5C 208.97,67.1639 208.47,66.4972 208.5,65.5C 209.117,65.6107 209.617,65.944 210,66.5C 212.616,65.3468 215.282,64.3468 218,63.5C 218.399,63.7284 218.565,64.0618 218.5,64.5 Z"/></g>
<g><path style="opacity:0.216" fill="#332714" d="M 185.5,66.5 C 186.301,68.0418 186.634,69.7085 186.5,71.5C 185.661,70.3588 184.994,69.0255 184.5,67.5C 184.624,66.8933 184.957,66.56 185.5,66.5 Z"/></g>
<g><path style="opacity:0.027" fill="#413113" d="M 186.5,71.5 C 188.04,73.8383 188.706,76.5049 188.5,79.5C 187.232,77.0948 186.565,74.4282 186.5,71.5 Z"/></g>
<g><path style="opacity:1" fill="#9e7312" d="M 182.5,76.5 C 177.458,77.2917 172.458,78.2917 167.5,79.5C 167.5,79.1667 167.5,78.8333 167.5,78.5C 171.763,77.5918 176.263,76.2585 181,74.5C 181.717,75.0442 182.217,75.7109 182.5,76.5 Z"/></g>
<g><path style="opacity:0.459" fill="#543e12" d="M 167.5,78.5 C 167.5,78.8333 167.5,79.1667 167.5,79.5C 163.929,80.6422 160.262,81.3089 156.5,81.5C 159.937,80.0552 163.603,79.0552 167.5,78.5 Z"/></g>
<g><path style="opacity:0.161" fill="#372a12" d="M 183.5,78.5 C 184.906,78.9731 185.573,79.9731 185.5,81.5C 184.094,81.0269 183.427,80.0269 183.5,78.5 Z"/></g>
<g><path style="opacity:0.765" fill="#564016" d="M 155.5,81.5 C 153.562,83.1628 151.228,83.8294 148.5,83.5C 150.599,82.3882 152.933,81.7215 155.5,81.5 Z"/></g>
<g><path style="opacity:0.6" fill="#725510" d="M 148.5,83.5 C 145.495,85.2766 142.162,86.2766 138.5,86.5C 141.505,84.7234 144.838,83.7234 148.5,83.5 Z"/></g>
<g><path style="opacity:0.569" fill="#5b4414" d="M 89.5,83.5 C 91.1628,85.4385 91.8294,87.7718 91.5,90.5C 90.3882,88.4006 89.7215,86.0673 89.5,83.5 Z"/></g>
<g><path style="opacity:0.808" fill="#694d14" d="M 113.5,84.5 C 114.612,86.5994 115.279,88.9327 115.5,91.5C 113.837,89.5615 113.171,87.2282 113.5,84.5 Z"/></g>
<g><path style="opacity:0.875" fill="#8f6912" d="M 124.5,89.5 C 121.748,91.8743 118.748,92.541 115.5,91.5C 118.158,90.7565 121.158,90.0898 124.5,89.5 Z"/></g>
<g><path style="opacity:0.055" fill="#2d2313" d="M 91.5,91.5 C 93.2576,94.8544 94.2576,98.521 94.5,102.5C 92.7424,99.1456 91.7424,95.479 91.5,91.5 Z"/></g>
<g><path style="opacity:0.953" fill="#705314" d="M 88.5,103.5 C 86.1799,101.774 83.5133,101.107 80.5,101.5C 84.1793,98.2835 86.8459,98.9502 88.5,103.5 Z"/></g>
<g><path style="opacity:1" fill="#986e13" d="M 76.5,102.5 C 76.3893,103.117 76.056,103.617 75.5,104C 72.854,104.497 70.1873,104.664 67.5,104.5C 70.2727,103.343 73.2727,102.676 76.5,102.5 Z"/></g>
<g><path style="opacity:0.439" fill="#4b3911" d="M 67.5,104.5 C 65.0948,105.768 62.4282,106.435 59.5,106.5C 61.8383,104.96 64.5049,104.294 67.5,104.5 Z"/></g>
<g><path style="opacity:0.345" fill="#523c14" d="M 88.5,103.5 C 89.9063,103.973 90.573,104.973 90.5,106.5C 89.0937,106.027 88.427,105.027 88.5,103.5 Z"/></g>
<g><path style="opacity:0.804" fill="#8d670d" d="M 59.5,106.5 C 57.4855,107.924 55.1522,108.59 52.5,108.5C 54.5145,107.076 56.8478,106.41 59.5,106.5 Z"/></g>
<g><path style="opacity:0.141" fill="#3a2c12" d="M 90.5,106.5 C 91.9063,106.973 92.573,107.973 92.5,109.5C 91.0937,109.027 90.427,108.027 90.5,106.5 Z"/></g>
<g><path style="opacity:0.561" fill="#564011" d="M 45.5,109.5 C 43.7857,110.738 41.7857,111.405 39.5,111.5C 39.1667,111.5 38.8333,111.5 38.5,111.5C 40.5145,110.076 42.8478,109.41 45.5,109.5 Z"/></g>
<g><path style="opacity:0.004" fill="#171313" d="M 95.5,108.5 C 96.7384,110.214 97.405,112.214 97.5,114.5C 97.1667,114.5 96.8333,114.5 96.5,114.5C 96.6716,113.508 96.3382,112.842 95.5,112.5C 95.5,111.167 95.5,109.833 95.5,108.5 Z"/></g>
<g><path style="opacity:1" fill="#a57914" d="M 38.5,111.5 C 38.8333,111.5 39.1667,111.5 39.5,111.5C 38.3697,114.137 38.3697,116.803 39.5,119.5C 37.7324,117.492 36.0657,115.326 34.5,113C 35.5634,111.812 36.8967,111.312 38.5,111.5 Z"/></g>
<g><path style="opacity:0.294" fill="#4c3913" d="M 93.5,111.5 C 94.1667,111.833 94.8333,112.167 95.5,112.5C 95.5,113.167 95.5,113.833 95.5,114.5C 94.0937,114.027 93.427,113.027 93.5,111.5 Z"/></g>
<g><path style="opacity:0.067" fill="#46370f" d="M 97.5,114.5 C 98.404,115.209 98.7373,116.209 98.5,117.5C 98.1667,117.5 97.8333,117.5 97.5,117.5C 96.8333,117.5 96.5,117.167 96.5,116.5C 97.3382,116.158 97.6716,115.492 97.5,114.5 Z"/></g>
<g><path style="opacity:0.239" fill="#463514" d="M 156.5,115.5 C 154.351,116.736 152.018,117.736 149.5,118.5C 151.176,116.166 153.509,115.166 156.5,115.5 Z"/></g>
<g><path style="opacity:0.804" fill="#6d5016" d="M 40.5,121.5 C 42.0481,121.821 42.7148,122.821 42.5,124.5C 41.5987,123.71 40.9321,122.71 40.5,121.5 Z"/></g>
<g><path style="opacity:0.173" fill="#3a2c13" d="M 193.5,120.5 C 195.027,120.427 196.027,121.094 196.5,122.5C 194.973,122.573 193.973,121.906 193.5,120.5 Z"/></g>
<g><path style="opacity:0.671" fill="#604615" d="M 196.5,122.5 C 198.027,122.427 199.027,123.094 199.5,124.5C 197.973,124.573 196.973,123.906 196.5,122.5 Z"/></g>
<g><path style="opacity:0.725" fill="#6c5013" d="M 162.5,122.5 C 159.916,124.472 156.916,125.472 153.5,125.5C 156.145,123.69 159.145,122.69 162.5,122.5 Z"/></g>
<g><path style="opacity:1" fill="#f8b202" d="M 162.5,122.5 C 166.514,122.334 170.514,122.501 174.5,123C 178.112,124.15 181.778,124.983 185.5,125.5C 187.153,125.66 188.486,126.326 189.5,127.5C 190.539,129.531 192.205,130.864 194.5,131.5C 195.5,131.833 196.167,132.5 196.5,133.5C 197.08,135.749 198.413,137.415 200.5,138.5C 201.08,140.749 202.413,142.415 204.5,143.5C 205.5,143.833 206.167,144.5 206.5,145.5C 206.738,147.404 207.738,148.738 209.5,149.5C 210.08,151.749 211.413,153.415 213.5,154.5C 213.859,156.371 214.859,157.871 216.5,159C 215.207,159.49 213.873,159.657 212.5,159.5C 211.25,159.423 210.417,158.756 210,157.5C 198.293,167.379 186.459,177.046 174.5,186.5C 172.973,186.427 171.973,187.094 171.5,188.5C 167.087,193.21 162.087,197.21 156.5,200.5C 155.5,200.5 154.5,200.5 153.5,200.5C 152.5,199.167 151.5,197.833 150.5,196.5C 150.573,194.973 149.906,193.973 148.5,193.5C 145.705,191.249 143.372,188.582 141.5,185.5C 141.573,183.973 140.906,182.973 139.5,182.5C 139.446,180.368 138.446,179.035 136.5,178.5C 135.596,177.791 135.263,176.791 135.5,175.5C 131.938,165.625 131.605,155.625 134.5,145.5C 134.992,143.181 135.992,141.181 137.5,139.5C 139.587,138.415 140.92,136.749 141.5,134.5C 144.427,133.243 146.761,131.243 148.5,128.5C 150.027,128.573 151.027,127.906 151.5,126.5C 151.842,125.662 152.508,125.328 153.5,125.5C 156.916,125.472 159.916,124.472 162.5,122.5 Z"/></g>
<g><path style="opacity:0.447" fill="#3e2e15" d="M 162.5,122.5 C 170.486,120.706 178.153,121.706 185.5,125.5C 181.778,124.983 178.112,124.15 174.5,123C 170.514,122.501 166.514,122.334 162.5,122.5 Z"/></g>
<g><path style="opacity:0.545" fill="#543f13" d="M 151.5,126.5 C 151.027,127.906 150.027,128.573 148.5,128.5C 148.973,127.094 149.973,126.427 151.5,126.5 Z"/></g>
<g><path style="opacity:0.098" fill="#2f2513" d="M 43.5,126.5 C 44.9063,126.973 45.573,127.973 45.5,129.5C 44.0937,129.027 43.427,128.027 43.5,126.5 Z"/></g>
<g><path style="opacity:0.753" fill="#574016" d="M 189.5,127.5 C 191.754,128.124 193.421,129.457 194.5,131.5C 192.205,130.864 190.539,129.531 189.5,127.5 Z"/></g>
<g><path style="opacity:0.004" fill="#2d2214" d="M 203.5,128.5 C 204.906,128.973 205.573,129.973 205.5,131.5C 204.094,131.027 203.427,130.027 203.5,128.5 Z"/></g>
<g><path style="opacity:0.008" fill="#312515" d="M 134.5,129.5 C 134.573,131.027 133.906,132.027 132.5,132.5C 132.427,130.973 133.094,129.973 134.5,129.5 Z"/></g>
<g><path style="opacity:0.792" fill="#7b5a14" d="M 148.5,128.5 C 146.761,131.243 144.427,133.243 141.5,134.5C 143.239,131.757 145.573,129.757 148.5,128.5 Z"/></g>
<g><path style="opacity:0.733" fill="#614815" d="M 196.5,133.5 C 198.587,134.585 199.92,136.251 200.5,138.5C 198.413,137.415 197.08,135.749 196.5,133.5 Z"/></g>
<g><path style="opacity:0.004" fill="#291f14" d="M 207.5,133.5 C 208.906,133.973 209.573,134.973 209.5,136.5C 208.094,136.027 207.427,135.027 207.5,133.5 Z"/></g>
<g><path style="opacity:0.11" fill="#342813" d="M 47.5,133.5 C 48.9063,133.973 49.573,134.973 49.5,136.5C 48.0937,136.027 47.427,135.027 47.5,133.5 Z"/></g>
<g><path style="opacity:0.733" fill="#664b16" d="M 49.5,137.5 C 51.0481,137.821 51.7148,138.821 51.5,140.5C 50.5987,139.71 49.9321,138.71 49.5,137.5 Z"/></g>
<g><path style="opacity:0.122" fill="#463514" d="M 141.5,134.5 C 140.92,136.749 139.587,138.415 137.5,139.5C 138.08,137.251 139.413,135.585 141.5,134.5 Z"/></g>
<g><path style="opacity:0.231" fill="#453313" d="M 243.5,135.5 C 245.293,137.426 246.293,139.759 246.5,142.5C 244.707,140.574 243.707,138.241 243.5,135.5 Z"/></g>
<g><path style="opacity:0.812" fill="#6c5015" d="M 200.5,138.5 C 202.587,139.585 203.92,141.251 204.5,143.5C 202.413,142.415 201.08,140.749 200.5,138.5 Z"/></g>
<g><path style="opacity:0.345" fill="#493613" d="M 127.5,140.5 C 127.405,142.786 126.738,144.786 125.5,146.5C 125.259,144.102 125.926,142.102 127.5,140.5 Z"/></g>
<g><path style="opacity:0.008" fill="#3b2b15" d="M 216.5,144.5 C 217.5,144.833 218.167,145.5 218.5,146.5C 217.167,146.5 216.5,145.833 216.5,144.5 Z"/></g>
<g><path style="opacity:0.247" fill="#3e2e14" d="M 53.5,144.5 C 55.1042,145.287 55.7709,146.62 55.5,148.5C 54.3263,147.486 53.6596,146.153 53.5,144.5 Z"/></g>
<g><path style="opacity:0.647" fill="#574014" d="M 206.5,145.5 C 208.262,146.262 209.262,147.596 209.5,149.5C 207.738,148.738 206.738,147.404 206.5,145.5 Z"/></g>
<g><path style="opacity:0.098" fill="#2e2414" d="M 56.5,150.5 C 58.1042,151.287 58.7709,152.62 58.5,154.5C 57.3263,153.486 56.6596,152.153 56.5,150.5 Z"/></g>
<g><path style="opacity:0.416" fill="#563f14" d="M 209.5,149.5 C 211.587,150.585 212.92,152.251 213.5,154.5C 211.413,153.415 210.08,151.749 209.5,149.5 Z"/></g>
<g><path style="opacity:0.294" fill="#3e2f13" d="M 134.5,145.5 C 131.605,155.625 131.938,165.625 135.5,175.5C 132.313,170.755 130.98,165.421 131.5,159.5C 131.092,154.407 132.092,149.74 134.5,145.5 Z"/></g>
<g><path style="opacity:0.522" fill="#523d16" d="M 124.5,150.5 C 123.586,156.204 123.586,161.871 124.5,167.5C 121.914,161.844 121.914,156.178 124.5,150.5 Z"/></g>
<g><path style="opacity:0.984" fill="#946c14" d="M 213.5,154.5 C 217.822,158.827 221.822,163.494 225.5,168.5C 224.998,169.521 224.332,169.688 223.5,169C 219.641,165.968 215.974,162.802 212.5,159.5C 213.873,159.657 215.207,159.49 216.5,159C 214.859,157.871 213.859,156.371 213.5,154.5 Z"/></g>
<g><path style="opacity:0.133" fill="#312613" d="M 61.5,160.5 C 63.1042,161.287 63.7709,162.62 63.5,164.5C 62.3263,163.486 61.6596,162.153 61.5,160.5 Z"/></g>
<g><path style="opacity:0.969" fill="#6a4e16" d="M 256.5,162.5 C 258.446,163.035 259.446,164.368 259.5,166.5C 258.026,165.564 257.026,164.23 256.5,162.5 Z"/></g>
<g><path style="opacity:0.615" fill="#8f670e" d="M 349.5,165.5 C 357.65,164.507 365.983,164.174 374.5,164.5C 374.785,166.288 374.452,167.955 373.5,169.5C 370.579,170.407 367.579,170.74 364.5,170.5C 364.825,178.019 364.492,185.352 363.5,192.5C 363.334,184.826 363.5,177.159 364,169.5C 367.057,168.549 370.223,168.216 373.5,168.5C 373.5,167.5 373.5,166.5 373.5,165.5C 365.5,165.5 357.5,165.5 349.5,165.5 Z"/></g>
<g><path style="opacity:1" fill="#c38d11" d="M 291.5,192.5 C 287.102,192.706 282.768,192.373 278.5,191.5C 273.22,187.157 271.387,181.491 273,174.5C 273.21,172.942 273.71,171.609 274.5,170.5C 276.167,169.5 277.5,168.167 278.5,166.5C 284.215,163.911 290.049,163.911 296,166.5C 296.72,168.112 296.554,169.612 295.5,171C 292.222,171.278 289.055,170.778 286,169.5C 283.763,170.056 281.763,171.056 280,172.5C 276.925,185.93 281.758,190.264 294.5,185.5C 297.596,189.411 296.596,191.745 291.5,192.5 Z"/></g>
<g><path style="opacity:1" fill="#f0ad05" d="M 318.5,169.5 C 313.5,169.5 308.5,169.5 303.5,169.5C 303.5,171.833 303.5,174.167 303.5,176.5C 307.833,176.5 312.167,176.5 316.5,176.5C 316.5,177.833 316.5,179.167 316.5,180.5C 312.167,180.5 307.833,180.5 303.5,180.5C 303.5,183.167 303.5,185.833 303.5,188.5C 308.5,188.5 313.5,188.5 318.5,188.5C 319.434,189.568 319.768,190.901 319.5,192.5C 312.077,192.544 305.077,192.544 298.5,192.5C 298.5,183.5 298.5,174.5 298.5,165.5C 305.167,165.5 311.833,165.5 318.5,165.5C 318.5,166.833 318.5,168.167 318.5,169.5 Z"/></g>
<g><path style="opacity:1" fill="#d89c11" d="M 349.5,165.5 C 357.5,165.5 365.5,165.5 373.5,165.5C 373.5,166.5 373.5,167.5 373.5,168.5C 370.223,168.216 367.057,168.549 364,169.5C 363.5,177.159 363.334,184.826 363.5,192.5C 361.856,192.286 360.356,192.62 359,193.5C 358.5,193 358,192.5 357.5,192C 357.294,185.04 357.627,178.04 358.5,171C 355.5,170.667 352.5,170.333 349.5,170C 348.199,168.384 348.199,166.884 349.5,165.5 Z"/></g>
<g><path style="opacity:1" fill="#f4b003" d="M 396.5,169.5 C 391.5,169.5 386.5,169.5 381.5,169.5C 381.5,171.833 381.5,174.167 381.5,176.5C 385.298,177.483 389.298,177.817 393.5,177.5C 393.5,178.5 393.5,179.5 393.5,180.5C 389.5,180.5 385.5,180.5 381.5,180.5C 381.5,183.167 381.5,185.833 381.5,188.5C 386.5,188.5 391.5,188.5 396.5,188.5C 397.434,189.568 397.768,190.901 397.5,192.5C 390.561,192.568 383.561,192.568 376.5,192.5C 376.5,183.5 376.5,174.5 376.5,165.5C 383.167,165.5 389.833,165.5 396.5,165.5C 396.5,166.833 396.5,168.167 396.5,169.5 Z"/></g>
<g><path style="opacity:1" fill="#dca00a" d="M 420.5,165.5 C 420.81,167.144 421.81,168.144 423.5,168.5C 424.338,168.842 424.672,169.508 424.5,170.5C 424.492,173.545 424.159,176.545 423.5,179.5C 422.251,181.136 420.584,182.303 418.5,183C 419.756,183.417 420.423,184.25 420.5,185.5C 420.738,187.404 421.738,188.738 423.5,189.5C 423.557,190.609 423.89,191.609 424.5,192.5C 423.167,192.5 421.833,192.5 420.5,192.5C 419.833,192.167 419.167,191.833 418.5,191.5C 416.016,189.2 414.016,186.533 412.5,183.5C 410.052,182.527 407.385,182.194 404.5,182.5C 404.5,185.833 404.5,189.167 404.5,192.5C 402.768,192.544 400.935,192.544 399,192.5C 398.333,183.5 398.333,174.5 399,165.5C 406.166,164.183 413.333,164.183 420.5,165.5 Z M 417.5,170.5 C 418.765,173.003 418.432,175.337 416.5,177.5C 412.833,177.5 409.167,177.5 405.5,177.5C 405.5,174.833 405.5,172.167 405.5,169.5C 409.548,169.395 413.548,169.728 417.5,170.5 Z"/></g>
<g><path style="opacity:0.843" fill="#805d16" d="M 327.5,165.5 C 325.833,165.5 324.167,165.5 322.5,165.5C 322.5,174.5 322.5,183.5 322.5,192.5C 322.19,193.738 321.69,193.738 321,192.5C 320.333,183.5 320.333,174.5 321,165.5C 323.274,164.189 325.44,164.189 327.5,165.5 Z"/></g>
<g><path style="opacity:1" fill="#dea10e" d="M 341.5,164.5 C 343.5,164.5 345.5,164.5 347.5,164.5C 347.666,173.839 347.5,183.173 347,192.5C 344.874,192.959 342.708,192.959 340.5,192.5C 340.446,190.368 339.446,189.035 337.5,188.5C 337.446,186.368 336.446,185.035 334.5,184.5C 332.122,182.122 330.122,179.455 328.5,176.5C 328.217,175.711 327.717,175.044 327,174.5C 326.501,180.491 326.334,186.491 326.5,192.5C 325.472,192.926 324.139,192.926 322.5,192.5C 322.5,183.5 322.5,174.5 322.5,165.5C 324.167,165.5 325.833,165.5 327.5,165.5C 327.738,167.404 328.738,168.738 330.5,169.5C 330.738,171.404 331.738,172.738 333.5,173.5C 335.984,175.8 337.984,178.467 339.5,181.5C 339.783,182.289 340.283,182.956 341,183.5C 341.5,177.175 341.666,170.842 341.5,164.5 Z"/></g>
<g><path style="opacity:0.761" fill="#654914" d="M 327.5,165.5 C 329.262,166.262 330.262,167.596 330.5,169.5C 328.738,168.738 327.738,167.404 327.5,165.5 Z"/></g>
<g><path style="opacity:0.391" fill="#62490e" d="M 318.5,169.5 C 318.5,168.167 318.5,166.833 318.5,165.5C 311.833,165.5 305.167,165.5 298.5,165.5C 298.5,174.5 298.5,183.5 298.5,192.5C 297.506,183.348 297.173,174.015 297.5,164.5C 304.833,164.5 312.167,164.5 319.5,164.5C 319.784,166.415 319.451,168.081 318.5,169.5 Z"/></g>
<g><path style="opacity:0.138" fill="#372a0f" d="M 341.5,164.5 C 341.666,170.842 341.5,177.175 341,183.5C 340.283,182.956 339.783,182.289 339.5,181.5C 340.167,175.833 340.833,170.167 341.5,164.5 Z"/></g>
<g><path style="opacity:0.271" fill="#523d14" d="M 420.5,165.5 C 422.19,165.856 423.19,166.856 423.5,168.5C 421.81,168.144 420.81,167.144 420.5,165.5 Z"/></g>
<g><path style="opacity:0.455" fill="#4d3a13" d="M 278.5,166.5 C 277.5,168.167 276.167,169.5 274.5,170.5C 274.833,168.167 276.167,166.833 278.5,166.5 Z"/></g>
<g><path style="opacity:0.085" fill="#231c11" d="M 318.5,169.5 C 314.03,170.486 309.363,170.819 304.5,170.5C 304.5,172.167 304.5,173.833 304.5,175.5C 308.702,175.183 312.702,175.517 316.5,176.5C 312.167,176.5 307.833,176.5 303.5,176.5C 303.5,174.167 303.5,171.833 303.5,169.5C 308.5,169.5 313.5,169.5 318.5,169.5 Z"/></g>
<g><path style="opacity:0.094" fill="#1e1811" d="M 396.5,169.5 C 392.03,170.486 387.363,170.819 382.5,170.5C 382.5,172.167 382.5,173.833 382.5,175.5C 386.702,175.183 390.702,175.517 394.5,176.5C 390.167,176.5 385.833,176.5 381.5,176.5C 381.5,174.167 381.5,171.833 381.5,169.5C 386.5,169.5 391.5,169.5 396.5,169.5 Z"/></g>
<g><path style="opacity:0.788" fill="#6d5014" d="M 330.5,169.5 C 332.262,170.262 333.262,171.596 333.5,173.5C 331.738,172.738 330.738,171.404 330.5,169.5 Z"/></g>
<g><path style="opacity:0.18" fill="#3f2f10" d="M 436.5,172.5 C 440.634,171.515 444.968,171.182 449.5,171.5C 449.5,172.833 449.5,174.167 449.5,175.5C 449.167,175.5 448.833,175.5 448.5,175.5C 448.5,174.5 448.5,173.5 448.5,172.5C 444.5,172.5 440.5,172.5 436.5,172.5 Z"/></g>
<g><path style="opacity:0.145" fill="#362913" d="M 263.5,157.5 C 264.357,161.66 265.024,165.993 265.5,170.5C 265.024,175.044 264.024,175.377 262.5,171.5C 263.117,171.611 263.617,171.944 264,172.5C 263.674,167.56 263.508,162.56 263.5,157.5 Z"/></g>
<g><path style="opacity:0.608" fill="#684d13" d="M 417.5,170.5 C 418.88,170.962 419.547,171.962 419.5,173.5C 419.439,175.653 418.439,176.986 416.5,177.5C 418.432,175.337 418.765,173.003 417.5,170.5 Z"/></g>
<g><path style="opacity:0.137" fill="#4d3a10" d="M 417.5,170.5 C 413.548,169.728 409.548,169.395 405.5,169.5C 405.5,172.167 405.5,174.833 405.5,177.5C 409.167,177.5 412.833,177.5 416.5,177.5C 412.702,178.483 408.702,178.817 404.5,178.5C 404.5,175.167 404.5,171.833 404.5,168.5C 408.182,168.335 411.848,168.501 415.5,169C 416.416,169.278 417.082,169.778 417.5,170.5 Z"/></g>
<g><path style="opacity:0.071" fill="#211b13" d="M 424.5,170.5 C 425.152,171.449 425.486,172.615 425.5,174C 425.607,176.221 424.94,178.054 423.5,179.5C 424.159,176.545 424.492,173.545 424.5,170.5 Z"/></g>
<g><path style="opacity:0.851" fill="#846016" d="M 453.5,177.5 C 452.71,176.391 452.21,175.058 452,173.5C 451.333,178.833 451.333,184.167 452,189.5C 452.181,186.305 452.681,183.305 453.5,180.5C 454.146,183.687 454.48,186.854 454.5,190C 452.326,190.877 450.659,190.377 449.5,188.5C 450.833,188.167 450.833,187.833 449.5,187.5C 449.5,186.167 449.5,184.833 449.5,183.5C 450.833,182.833 450.833,182.167 449.5,181.5C 449.5,179.5 449.5,177.5 449.5,175.5C 450.141,173.958 451.141,172.624 452.5,171.5C 453.308,171.808 453.975,172.308 454.5,173C 453.62,174.356 453.286,175.856 453.5,177.5 Z"/></g>
<g><path style="opacity:0.134" fill="#342810" d="M 328.5,176.5 C 327.833,181.833 327.167,187.167 326.5,192.5C 326.334,186.491 326.501,180.491 327,174.5C 327.717,175.044 328.217,175.711 328.5,176.5 Z"/></g>
<g><path style="opacity:0.524" fill="#7a590d" d="M 396.5,169.5 C 396.5,168.167 396.5,166.833 396.5,165.5C 389.833,165.5 383.167,165.5 376.5,165.5C 376.5,174.5 376.5,183.5 376.5,192.5C 375.501,183.918 375.168,174.585 375.5,164.5C 382.833,164.5 390.167,164.5 397.5,164.5C 397.784,166.415 397.451,168.081 396.5,169.5 Z"/></g>
<g><path style="opacity:0.769" fill="#654a15" d="M 125.5,173.5 C 126.931,174.78 127.598,176.447 127.5,178.5C 125.787,177.365 125.12,175.698 125.5,173.5 Z"/></g>
<g><path style="opacity:0.814" fill="#b4820c" d="M 381.5,176.5 C 385.833,176.5 390.167,176.5 394.5,176.5C 394.926,177.528 394.926,178.861 394.5,180.5C 394.167,180.5 393.833,180.5 393.5,180.5C 393.5,179.5 393.5,178.5 393.5,177.5C 389.298,177.817 385.298,177.483 381.5,176.5 Z"/></g>
<g><path style="opacity:1" fill="#9c7111" d="M 434.5,173.5 C 434.065,176.838 434.732,179.838 436.5,182.5C 432.951,181.043 431.784,178.377 433,174.5C 433.383,173.944 433.883,173.611 434.5,173.5 Z"/></g>
<g><path style="opacity:0.863" fill="#624916" d="M 136.5,178.5 C 138.446,179.035 139.446,180.368 139.5,182.5C 138.026,181.564 137.026,180.23 136.5,178.5 Z"/></g>
<g><path style="opacity:0.396" fill="#4a3714" d="M 437.5,178.5 C 441.171,178.757 444.505,179.757 447.5,181.5C 443.786,181.41 440.452,180.41 437.5,178.5 Z"/></g>
<g><path style="opacity:1" fill="#d09910" d="M 436.5,172.5 C 440.5,172.5 444.5,172.5 448.5,172.5C 448.5,173.5 448.5,174.5 448.5,175.5C 445.101,176.82 441.601,176.82 438,175.5C 437.517,176.448 437.351,177.448 437.5,178.5C 440.452,180.41 443.786,181.41 447.5,181.5C 448.167,181.5 448.833,181.5 449.5,181.5C 449.5,182.167 449.5,182.833 449.5,183.5C 449.5,184.833 449.5,186.167 449.5,187.5C 449.5,187.833 449.5,188.167 449.5,188.5C 448.833,188.833 448.167,189.167 447.5,189.5C 442.381,190.103 437.715,189.436 433.5,187.5C 437.702,187.817 441.702,187.483 445.5,186.5C 446.043,186.44 446.376,186.107 446.5,185.5C 443.047,184.487 439.713,183.487 436.5,182.5C 434.732,179.838 434.065,176.838 434.5,173.5C 434.842,172.662 435.508,172.328 436.5,172.5 Z"/></g>
<g><path style="opacity:1" fill="#ebad06" d="M 466.5,180.5 C 465.803,182.071 465.47,183.571 465.5,185C 466.381,185.708 467.047,186.542 467.5,187.5C 468.263,188.268 469.263,188.768 470.5,189C 468.115,189.556 465.782,189.39 463.5,188.5C 463.5,188.167 463.5,187.833 463.5,187.5C 463.5,184.833 463.5,182.167 463.5,179.5C 466.113,178.565 468.779,178.398 471.5,179C 469.618,179.198 467.952,179.698 466.5,180.5 Z"/></g>
<g><path style="opacity:1" fill="#c79312" d="M 487.5,180.5 C 488.686,181.705 488.686,183.039 487.5,184.5C 487.167,185.833 486.833,187.167 486.5,188.5C 486.5,189.167 486.167,189.5 485.5,189.5C 483.167,189.5 480.833,189.5 478.5,189.5C 478.5,190.5 478.5,191.5 478.5,192.5C 478.5,193.167 478.5,193.833 478.5,194.5C 476.554,189.604 475.887,184.271 476.5,178.5C 480.487,178.01 484.154,178.676 487.5,180.5 Z M 479.5,180.5 C 480.833,180.5 482.167,180.5 483.5,180.5C 483.852,183.073 483.352,185.406 482,187.5C 480.992,187.018 479.825,186.852 478.5,187C 479.423,184.959 479.756,182.792 479.5,180.5 Z"/></g>
<g><path style="opacity:0.278" fill="#3f3013" d="M 70.5,179.5 C 72.1042,180.287 72.7709,181.62 72.5,183.5C 71.3263,182.486 70.6596,181.153 70.5,179.5 Z"/></g>
<g><path style="opacity:0.004" fill="#292015" d="M 139.5,182.5 C 140.906,182.973 141.573,183.973 141.5,185.5C 140.094,185.027 139.427,184.027 139.5,182.5 Z"/></g>
<g><path style="opacity:0.212" fill="#332710" d="M 412.5,183.5 C 410.167,183.5 407.833,183.5 405.5,183.5C 405.81,186.713 405.477,189.713 404.5,192.5C 404.5,189.167 404.5,185.833 404.5,182.5C 407.385,182.194 410.052,182.527 412.5,183.5 Z"/></g>
<g><path style="opacity:1" fill="#f0ae01" d="M 474.5,180.5 C 474.5,182.833 474.5,185.167 474.5,187.5C 474.5,187.833 474.5,188.167 474.5,188.5C 473.448,188.649 472.448,188.483 471.5,188C 472.282,185.26 472.782,182.426 473,179.5C 473.383,180.056 473.883,180.389 474.5,180.5 Z"/></g>
<g><path style="opacity:0.596" fill="#533d14" d="M 130.5,184.5 C 132.262,185.262 133.262,186.596 133.5,188.5C 131.738,187.738 130.738,186.404 130.5,184.5 Z"/></g>
<g><path style="opacity:1" fill="#e3a709" d="M 453.5,177.5 C 456.715,176.303 459.382,176.97 461.5,179.5C 461.82,182.898 461.487,186.232 460.5,189.5C 459.833,186.358 459.166,183.358 458.5,180.5C 456.833,180.5 455.167,180.5 453.5,180.5C 452.681,183.305 452.181,186.305 452,189.5C 451.333,184.167 451.333,178.833 452,173.5C 452.21,175.058 452.71,176.391 453.5,177.5 Z"/></g>
<g><path style="opacity:0.514" fill="#5e4516" d="M 334.5,184.5 C 336.446,185.035 337.446,186.368 337.5,188.5C 336.026,187.564 335.026,186.23 334.5,184.5 Z"/></g>
<g><path style="opacity:0.757" fill="#5f4615" d="M 420.5,185.5 C 422.262,186.262 423.262,187.596 423.5,189.5C 421.738,188.738 420.738,187.404 420.5,185.5 Z"/></g>
<g><path style="opacity:0.345" fill="#58410d" d="M 445.5,186.5 C 441.702,187.483 437.702,187.817 433.5,187.5C 433.783,186.711 434.283,186.044 435,185.5C 438.394,186.456 441.894,186.789 445.5,186.5 Z"/></g>
<g><path style="opacity:0.4" fill="#6f520c" d="M 461.5,179.5 C 462.167,179.5 462.833,179.5 463.5,179.5C 463.5,182.167 463.5,184.833 463.5,187.5C 462.596,188.209 462.263,189.209 462.5,190.5C 461.167,190.5 459.833,190.5 458.5,190.5C 458.5,187.167 458.5,183.833 458.5,180.5C 459.166,183.358 459.833,186.358 460.5,189.5C 461.487,186.232 461.82,182.898 461.5,179.5 Z"/></g>
<g><path style="opacity:0.004" fill="#221b13" d="M 174.5,186.5 C 174.027,187.906 173.027,188.573 171.5,188.5C 171.973,187.094 172.973,186.427 174.5,186.5 Z"/></g>
<g><path style="opacity:0.274" fill="#4e3a0e" d="M 316.5,180.5 C 312.702,181.483 308.702,181.817 304.5,181.5C 304.5,183.5 304.5,185.5 304.5,187.5C 309.363,187.181 314.03,187.514 318.5,188.5C 313.5,188.5 308.5,188.5 303.5,188.5C 303.5,185.833 303.5,183.167 303.5,180.5C 307.833,180.5 312.167,180.5 316.5,180.5 Z"/></g>
<g><path style="opacity:0.291" fill="#483610" d="M 393.5,180.5 C 393.833,180.5 394.167,180.5 394.5,180.5C 390.702,181.483 386.702,181.817 382.5,181.5C 382.5,183.5 382.5,185.5 382.5,187.5C 387.363,187.181 392.03,187.514 396.5,188.5C 391.5,188.5 386.5,188.5 381.5,188.5C 381.5,185.833 381.5,183.167 381.5,180.5C 385.5,180.5 389.5,180.5 393.5,180.5 Z"/></g>
<g><path style="opacity:0.488" fill="#75560e" d="M 487.5,180.5 C 484.154,178.676 480.487,178.01 476.5,178.5C 475.887,184.271 476.554,189.604 478.5,194.5C 477.791,195.404 476.791,195.737 475.5,195.5C 475.806,192.615 475.473,189.948 474.5,187.5C 474.5,185.167 474.5,182.833 474.5,180.5C 475.404,179.791 475.737,178.791 475.5,177.5C 479.182,177.335 482.848,177.501 486.5,178C 487.252,178.671 487.586,179.504 487.5,180.5 Z"/></g>
<g><path style="opacity:0.039" fill="#271f14" d="M 487.5,184.5 C 488.853,186.128 488.519,187.462 486.5,188.5C 486.833,187.167 487.167,185.833 487.5,184.5 Z"/></g>
<g><path style="opacity:1" fill="#926a11" d="M 474.5,180.5 C 473.883,180.389 473.383,180.056 473,179.5C 472.782,182.426 472.282,185.26 471.5,188C 472.448,188.483 473.448,188.649 474.5,188.5C 472.883,189.972 470.883,190.639 468.5,190.5C 467.167,190.333 465.833,190.167 464.5,190C 463.944,189.617 463.611,189.117 463.5,188.5C 465.782,189.39 468.115,189.556 470.5,189C 469.263,188.768 468.263,188.268 467.5,187.5C 471.473,186.925 472.473,184.758 470.5,181C 469.207,180.51 467.873,180.343 466.5,180.5C 467.952,179.698 469.618,179.198 471.5,179C 468.779,178.398 466.113,178.565 463.5,179.5C 463.611,178.883 463.944,178.383 464.5,178C 467.5,177.333 470.5,177.333 473.5,178C 474.252,178.671 474.586,179.504 474.5,180.5 Z"/></g>
<g><path style="opacity:0.761" fill="#5d4415" d="M 133.5,188.5 C 135.587,189.585 136.92,191.251 137.5,193.5C 135.413,192.415 134.08,190.749 133.5,188.5 Z"/></g>
<g><path style="opacity:0.576" fill="#78580e" d="M 433.5,187.5 C 437.715,189.436 442.381,190.103 447.5,189.5C 442.695,190.487 437.695,190.821 432.5,190.5C 432.263,189.209 432.596,188.209 433.5,187.5 Z"/></g>
<g><path style="opacity:0.549" fill="#5d4512" d="M 485.5,189.5 C 483.026,190.105 480.693,191.105 478.5,192.5C 478.5,191.5 478.5,190.5 478.5,189.5C 480.833,189.5 483.167,189.5 485.5,189.5 Z"/></g>
<g><path style="opacity:0.443" fill="#543e16" d="M 337.5,188.5 C 339.446,189.035 340.446,190.368 340.5,192.5C 339.026,191.564 338.026,190.23 337.5,188.5 Z"/></g>
<g><path style="opacity:0.451" fill="#523d14" d="M 423.5,189.5 C 424.117,189.611 424.617,189.944 425,190.5C 425.703,192.351 425.537,193.017 424.5,192.5C 423.89,191.609 423.557,190.609 423.5,189.5 Z"/></g>
<g><path style="opacity:0.443" fill="#584113" d="M 75.5,190.5 C 77.1042,191.287 77.7709,192.62 77.5,194.5C 76.3263,193.486 75.6596,192.153 75.5,190.5 Z"/></g>
<g><path style="opacity:0.251" fill="#302512" d="M 278.5,191.5 C 282.768,192.373 287.102,192.706 291.5,192.5C 287.689,193.645 283.689,193.812 279.5,193C 278.944,192.617 278.611,192.117 278.5,191.5 Z"/></g>
<g><path style="opacity:0.004" fill="#191414" d="M 418.5,191.5 C 419.167,191.833 419.833,192.167 420.5,192.5C 419.377,193.757 418.711,193.424 418.5,191.5 Z"/></g>
<g><path style="opacity:0.004" fill="#2f2315" d="M 148.5,193.5 C 149.906,193.973 150.573,194.973 150.5,196.5C 149.094,196.027 148.427,195.027 148.5,193.5 Z"/></g>
<g><path style="opacity:0.435" fill="#574114" d="M 137.5,193.5 C 139.587,194.585 140.92,196.251 141.5,198.5C 139.413,197.415 138.08,195.749 137.5,193.5 Z"/></g>
<g><path style="opacity:0.78" fill="#614815" d="M 141.5,198.5 C 143.587,199.585 144.92,201.251 145.5,203.5C 143.413,202.415 142.08,200.749 141.5,198.5 Z"/></g>
<g><path style="opacity:1" fill="#f6b102" d="M 264.5,237.5 C 264.833,238.833 265.167,238.833 265.5,237.5C 269.5,233.833 273.5,230.167 277.5,226.5C 283.358,226.178 289.025,226.511 294.5,227.5C 289.188,233.146 283.855,238.813 278.5,244.5C 283.855,250.187 289.188,255.854 294.5,261.5C 294.414,262.496 294.748,263.329 295.5,264C 290.177,264.499 284.844,264.666 279.5,264.5C 275.773,259.77 271.44,255.77 266.5,252.5C 266.5,251.833 266.167,251.5 265.5,251.5C 265.167,250.167 264.833,250.167 264.5,251.5C 264.5,255.833 264.5,260.167 264.5,264.5C 260.167,264.5 255.833,264.5 251.5,264.5C 251.5,243.167 251.5,221.833 251.5,200.5C 255.833,200.5 260.167,200.5 264.5,200.5C 264.5,212.833 264.5,225.167 264.5,237.5 Z"/></g>
<g><path style="opacity:0.004" fill="#231b14" d="M 153.5,200.5 C 154.5,200.5 155.5,200.5 156.5,200.5C 156.043,202.557 155.043,202.557 153.5,200.5 Z"/></g>
<g><path style="opacity:0.411" fill="#5a4310" d="M 265.5,237.5 C 265.167,237.5 264.833,237.5 264.5,237.5C 264.5,225.167 264.5,212.833 264.5,200.5C 260.167,200.5 255.833,200.5 251.5,200.5C 251.5,221.833 251.5,243.167 251.5,264.5C 255.833,264.5 260.167,264.5 264.5,264.5C 264.5,260.167 264.5,255.833 264.5,251.5C 264.833,251.5 265.167,251.5 265.5,251.5C 265.5,256.167 265.5,260.833 265.5,265.5C 260.5,265.5 255.5,265.5 250.5,265.5C 250.5,243.5 250.5,221.5 250.5,199.5C 255.5,199.5 260.5,199.5 265.5,199.5C 265.5,212.167 265.5,224.833 265.5,237.5 Z"/></g>
<g><path style="opacity:0.054" fill="#1b1712" d="M 393.5,202.5 C 385.316,202.174 377.316,202.508 369.5,203.5C 369.167,203.5 368.833,203.5 368.5,203.5C 367.262,203.19 367.262,202.69 368.5,202C 377.01,201.177 385.344,201.343 393.5,202.5 Z"/></g>
<g><path style="opacity:0.2" fill="#413112" d="M 79.5,199.5 C 80.9313,200.78 81.5979,202.447 81.5,204.5C 80.0687,203.22 79.4021,201.553 79.5,199.5 Z"/></g>
<g><path style="opacity:0.799" fill="#896414" d="M 201.5,202.5 C 201.5,202.833 201.5,203.167 201.5,203.5C 187.167,203.5 172.833,203.5 158.5,203.5C 158.5,207.167 158.5,210.833 158.5,214.5C 163.363,214.181 168.03,214.514 172.5,215.5C 167.5,215.5 162.5,215.5 157.5,215.5C 157.5,210.833 157.5,206.167 157.5,201.5C 172.343,201.171 187.01,201.504 201.5,202.5 Z"/></g>
<g><path style="opacity:0.801" fill="#aa7b0c" d="M 369.5,203.5 C 377.316,202.508 385.316,202.174 393.5,202.5C 395.898,202.259 397.898,202.926 399.5,204.5C 389.532,203.604 379.532,203.271 369.5,203.5 Z"/></g>
<g><path style="opacity:1" fill="#fbb500" d="M 201.5,203.5 C 201.5,207.167 201.5,210.833 201.5,214.5C 196.5,214.5 191.5,214.5 186.5,214.5C 186.5,231.167 186.5,247.833 186.5,264.5C 181.833,264.5 177.167,264.5 172.5,264.5C 172.419,248.055 172.419,231.722 172.5,215.5C 168.03,214.514 163.363,214.181 158.5,214.5C 158.5,210.833 158.5,207.167 158.5,203.5C 172.833,203.5 187.167,203.5 201.5,203.5 Z"/></g>
<g><path style="opacity:1" fill="#f8b302" d="M 369.5,203.5 C 379.532,203.271 389.532,203.604 399.5,204.5C 399.833,204.5 400.167,204.5 400.5,204.5C 401.785,206.452 403.451,208.118 405.5,209.5C 406.229,214.13 406.563,218.797 406.5,223.5C 405.766,224.708 405.433,226.041 405.5,227.5C 404.521,229.145 403.188,230.479 401.5,231.5C 401.624,232.107 401.957,232.44 402.5,232.5C 403.209,233.404 404.209,233.737 405.5,233.5C 407.404,233.738 408.738,234.738 409.5,236.5C 409.738,238.404 410.738,239.738 412.5,240.5C 415.955,251.247 412.622,258.914 402.5,263.5C 391.527,264.38 380.527,264.713 369.5,264.5C 369.5,244.167 369.5,223.833 369.5,203.5 Z M 387.5,214.5 C 388.708,215.234 390.041,215.567 391.5,215.5C 391.66,217.153 392.326,218.486 393.5,219.5C 393.5,219.833 393.5,220.167 393.5,220.5C 391.802,224.877 388.469,226.877 383.5,226.5C 383.5,222.5 383.5,218.5 383.5,214.5C 384.833,214.5 386.167,214.5 387.5,214.5 Z M 383.5,239.5 C 387.439,240.327 391.439,240.994 395.5,241.5C 395.66,243.153 396.326,244.486 397.5,245.5C 397.5,246.5 397.5,247.5 397.5,248.5C 396.512,249.795 395.512,251.128 394.5,252.5C 394.167,252.5 393.833,252.5 393.5,252.5C 390.167,252.833 386.833,253.167 383.5,253.5C 383.5,248.833 383.5,244.167 383.5,239.5 Z"/></g>
<g><path style="opacity:1" fill="#feb700" d="M 503.5,203.5 C 503.174,211.684 503.508,219.684 504.5,227.5C 510.623,227.397 516.956,227.397 523.5,227.5C 524.492,219.684 524.826,211.684 524.5,203.5C 528.833,203.5 533.167,203.5 537.5,203.5C 537.5,223.833 537.5,244.167 537.5,264.5C 533.167,264.5 528.833,264.5 524.5,264.5C 524.5,256.167 524.5,247.833 524.5,239.5C 517.5,239.5 510.5,239.5 503.5,239.5C 503.5,247.833 503.5,256.167 503.5,264.5C 499.167,264.5 494.833,264.5 490.5,264.5C 490.5,244.167 490.5,223.833 490.5,203.5C 494.833,203.5 499.167,203.5 503.5,203.5 Z"/></g>
<g><path style="opacity:0.788" fill="#5e4515" d="M 145.5,203.5 C 147.587,204.585 148.92,206.251 149.5,208.5C 147.413,207.415 146.08,205.749 145.5,203.5 Z"/></g>
<g><path style="opacity:0.61" fill="#694c14" d="M 368.5,203.5 C 368.833,203.5 369.167,203.5 369.5,203.5C 369.5,223.833 369.5,244.167 369.5,264.5C 380.527,264.713 391.527,264.38 402.5,263.5C 401.737,264.268 400.737,264.768 399.5,265C 388.839,265.5 378.172,265.667 367.5,265.5C 367.19,244.787 367.523,224.121 368.5,203.5 Z"/></g>
<g><path style="opacity:0.789" fill="#c18b04" d="M 489.5,202.5 C 494.363,202.181 499.03,202.514 503.5,203.5C 499.167,203.5 494.833,203.5 490.5,203.5C 490.5,223.833 490.5,244.167 490.5,264.5C 489.503,244.007 489.169,223.34 489.5,202.5 Z"/></g>
<g><path style="opacity:0.711" fill="#725416" d="M 538.5,264.5 C 538.167,264.5 537.833,264.5 537.5,264.5C 537.5,244.167 537.5,223.833 537.5,203.5C 533.167,203.5 528.833,203.5 524.5,203.5C 524.826,211.684 524.492,219.684 523.5,227.5C 523.334,219.16 523.5,210.827 524,202.5C 528.737,201.531 533.57,201.197 538.5,201.5C 539.808,222.507 539.808,243.507 538.5,264.5 Z"/></g>
<g><path style="opacity:0.392" fill="#4d3815" d="M 400.5,204.5 C 403.189,205.189 404.856,206.856 405.5,209.5C 403.451,208.118 401.785,206.452 400.5,204.5 Z"/></g>
<g><path style="opacity:0.28" fill="#453410" d="M 489.5,202.5 C 494.305,201.513 499.305,201.179 504.5,201.5C 504.5,210.167 504.5,218.833 504.5,227.5C 503.508,219.684 503.174,211.684 503.5,203.5C 499.03,202.514 494.363,202.181 489.5,202.5 Z"/></g>
<g><path style="opacity:0.184" fill="#3e2e12" d="M 83.5,209.5 C 84.9313,210.78 85.5979,212.447 85.5,214.5C 84.0687,213.22 83.4021,211.553 83.5,209.5 Z"/></g>
<g><path style="opacity:1" fill="#a87c0f" d="M 151.5,211.5 C 154.167,213.173 156.167,215.507 157.5,218.5C 157.5,219.167 157.167,219.5 156.5,219.5C 154.142,217.471 151.808,215.471 149.5,213.5C 150.833,213.5 151.5,212.833 151.5,211.5 Z"/></g>
<g><path style="opacity:0.564" fill="#835f0f" d="M 387.5,214.5 C 386.167,214.5 384.833,214.5 383.5,214.5C 383.5,218.5 383.5,222.5 383.5,226.5C 388.469,226.877 391.802,224.877 393.5,220.5C 393.822,222.722 393.155,224.556 391.5,226C 388.607,227.149 385.607,227.649 382.5,227.5C 382.5,222.833 382.5,218.167 382.5,213.5C 384.415,213.216 386.081,213.549 387.5,214.5 Z"/></g>
<g><path style="opacity:0.125" fill="#342813" d="M 391.5,215.5 C 393.104,216.287 393.771,217.62 393.5,219.5C 392.326,218.486 391.66,217.153 391.5,215.5 Z"/></g>
<g><path style="opacity:0.918" fill="#7d5b16" d="M 405.5,209.5 C 408.453,213.781 409.119,218.448 407.5,223.5C 407.167,223.5 406.833,223.5 406.5,223.5C 406.563,218.797 406.229,214.13 405.5,209.5 Z"/></g>
<g><path style="opacity:0.478" fill="#4c3a11" d="M 157.5,218.5 C 159.728,219.322 160.395,220.655 159.5,222.5C 158.145,221.812 157.145,220.812 156.5,219.5C 157.167,219.5 157.5,219.167 157.5,218.5 Z"/></g>
<g><path style="opacity:0.415" fill="#75550c" d="M 201.5,202.5 C 202.485,206.634 202.818,210.968 202.5,215.5C 197.5,215.5 192.5,215.5 187.5,215.5C 187.5,232.167 187.5,248.833 187.5,265.5C 181.732,265.834 176.732,265.5 172.5,264.5C 177.167,264.5 181.833,264.5 186.5,264.5C 186.5,247.833 186.5,231.167 186.5,214.5C 191.5,214.5 196.5,214.5 201.5,214.5C 201.5,210.833 201.5,207.167 201.5,203.5C 201.5,203.167 201.5,202.833 201.5,202.5 Z"/></g>
<g><path style="opacity:0.349" fill="#594211" d="M 559.5,225.5 C 561.304,224.838 563.304,224.505 565.5,224.5C 569.117,224.398 572.45,225.065 575.5,226.5C 570.187,225.902 564.854,225.569 559.5,225.5 Z"/></g>
<g><path style="opacity:0.349" fill="#5a4313" d="M 625.5,226.5 C 620.833,225.167 616.167,225.167 611.5,226.5C 613.462,224.983 615.795,224.316 618.5,224.5C 621.205,224.316 623.538,224.983 625.5,226.5 Z"/></g>
<g><path style="opacity:0.337" fill="#4f3b11" d="M 88.5,222.5 C 89.9313,223.78 90.5979,225.447 90.5,227.5C 89.0687,226.22 88.4021,224.553 88.5,222.5 Z"/></g>
<g><path style="opacity:1" fill="#e7a708" d="M 235.5,228.5 C 235.973,229.906 236.973,230.573 238.5,230.5C 238.738,232.404 239.738,233.738 241.5,234.5C 241.427,236.027 242.094,237.027 243.5,237.5C 247.869,251.265 243.202,260.765 229.5,266C 216.627,268.968 206.46,265.135 199,254.5C 197.383,249.824 197.217,245.157 198.5,240.5C 199.404,239.791 199.737,238.791 199.5,237.5C 199.328,236.508 199.662,235.842 200.5,235.5C 202.262,234.738 203.262,233.404 203.5,231.5C 205.404,231.262 206.738,230.262 207.5,228.5C 216.861,223.214 226.194,223.214 235.5,228.5 Z M 225.5,237.5 C 226.167,238.833 227.167,239.833 228.5,240.5C 229.299,243.43 229.632,246.43 229.5,249.5C 227.833,250.5 226.5,251.833 225.5,253.5C 222.833,253.5 220.167,253.5 217.5,253.5C 217.027,252.094 216.027,251.427 214.5,251.5C 211.475,241.528 215.142,236.861 225.5,237.5 Z"/></g>
<g><path style="opacity:0.33" fill="#5b440c" d="M 277.5,226.5 C 283.346,225.183 289.346,225.183 295.5,226.5C 295.376,227.107 295.043,227.44 294.5,227.5C 289.025,226.511 283.358,226.178 277.5,226.5 Z"/></g>
<g><path style="opacity:1" fill="#eeab07" d="M 325.5,225.5 C 329.933,226.214 333.6,228.214 336.5,231.5C 336.738,233.404 337.738,234.738 339.5,235.5C 341.085,240.678 341.752,246.012 341.5,251.5C 339.06,258.941 334.06,263.608 326.5,265.5C 321.167,265.5 315.833,265.5 310.5,265.5C 308.716,265.107 307.05,264.441 305.5,263.5C 304.738,261.738 303.404,260.738 301.5,260.5C 297.453,258.408 295.453,255.075 295.5,250.5C 295.294,245.346 295.961,240.346 297.5,235.5C 300.167,233.5 302.5,231.167 304.5,228.5C 304.842,227.662 305.508,227.328 306.5,227.5C 312.711,225.899 319.044,225.232 325.5,225.5 Z M 322.5,237.5 C 323.167,238.833 324.167,239.833 325.5,240.5C 326.403,243.391 326.736,246.391 326.5,249.5C 324.833,250.5 323.5,251.833 322.5,253.5C 319.833,253.5 317.167,253.5 314.5,253.5C 313.833,252.167 312.833,251.167 311.5,250.5C 309.031,240.969 312.698,236.636 322.5,237.5 Z"/></g>
<g><path style="opacity:0.204" fill="#392b14" d="M 406.5,223.5 C 406.833,223.5 407.167,223.5 407.5,223.5C 407.34,225.153 406.674,226.486 405.5,227.5C 405.433,226.041 405.766,224.708 406.5,223.5 Z"/></g>
<g><path style="opacity:1" fill="#ebaa07" d="M 559.5,225.5 C 564.854,225.569 570.187,225.902 575.5,226.5C 576.492,226.328 577.158,226.662 577.5,227.5C 577.973,228.906 578.973,229.573 580.5,229.5C 581.08,231.749 582.413,233.415 584.5,234.5C 584.41,237.152 585.076,239.485 586.5,241.5C 587.768,243.67 587.768,245.837 586.5,248C 577.167,248.333 567.833,248.667 558.5,249C 559.386,250.615 560.386,252.115 561.5,253.5C 562.946,254.94 564.779,255.607 567,255.5C 568.385,255.486 569.551,255.152 570.5,254.5C 572.754,253.585 574.754,252.252 576.5,250.5C 577.86,251.18 579.193,251.847 580.5,252.5C 580.821,254.048 581.821,254.715 583.5,254.5C 584.234,255.708 584.567,257.041 584.5,258.5C 582.687,261.647 580.02,263.647 576.5,264.5C 569.047,266.044 561.714,265.711 554.5,263.5C 554.027,262.094 553.027,261.427 551.5,261.5C 548.353,259.687 546.353,257.02 545.5,253.5C 545.737,252.209 545.404,251.209 544.5,250.5C 543.243,245.988 543.577,241.654 545.5,237.5C 546.906,237.027 547.573,236.027 547.5,234.5C 549.833,232.833 551.833,230.833 553.5,228.5C 555.181,226.992 557.181,225.992 559.5,225.5 Z M 568.5,234.5 C 569.29,235.401 570.29,236.068 571.5,236.5C 571.414,237.496 571.748,238.329 572.5,239C 567.98,239.814 563.646,239.647 559.5,238.5C 560.167,237.5 560.833,236.5 561.5,235.5C 563.764,234.781 566.097,234.448 568.5,234.5 Z"/></g>
<g><path style="opacity:0.344" fill="#644b0c" d="M 592.5,226.5 C 596.97,225.514 601.637,225.181 606.5,225.5C 606.216,227.415 606.549,229.081 607.5,230.5C 607.44,231.043 607.107,231.376 606.5,231.5C 605.548,229.955 605.215,228.288 605.5,226.5C 601.167,226.5 596.833,226.5 592.5,226.5 Z"/></g>
<g><path style="opacity:1" fill="#f5b102" d="M 625.5,226.5 C 625.5,227.833 625.5,229.167 625.5,230.5C 624.921,233.331 623.588,235.664 621.5,237.5C 620.167,237.5 618.833,237.5 617.5,237.5C 613.225,236.75 609.891,238.083 607.5,241.5C 606.883,241.611 606.383,241.944 606,242.5C 605.5,249.826 605.334,257.159 605.5,264.5C 601.167,264.5 596.833,264.5 592.5,264.5C 592.5,251.833 592.5,239.167 592.5,226.5C 596.833,226.5 601.167,226.5 605.5,226.5C 605.215,228.288 605.548,229.955 606.5,231.5C 607.107,231.376 607.44,231.043 607.5,230.5C 609.167,229.5 610.5,228.167 611.5,226.5C 616.167,225.167 620.833,225.167 625.5,226.5 Z"/></g>
<g><path style="opacity:0.922" fill="#765712" d="M 325.5,225.5 C 319.044,225.232 312.711,225.899 306.5,227.5C 312.609,224.492 318.942,223.826 325.5,225.5 Z"/></g>
<g><path style="opacity:1" fill="#f4af04" d="M 433.5,251.5 C 433.574,253.411 434.574,254.578 436.5,255C 438.712,255.789 440.712,255.622 442.5,254.5C 444.316,252.882 445.649,250.882 446.5,248.5C 447.492,241.352 447.825,234.019 447.5,226.5C 451.833,226.5 456.167,226.5 460.5,226.5C 461.229,234.852 461.563,243.518 461.5,252.5C 460.485,258.579 457.152,262.579 451.5,264.5C 442.719,266.075 434.052,265.742 425.5,263.5C 423.596,263.262 422.262,262.262 421.5,260.5C 421.573,258.973 420.906,257.973 419.5,257.5C 418.766,256.292 418.433,254.959 418.5,253.5C 418.5,244.5 418.5,235.5 418.5,226.5C 422.833,226.5 427.167,226.5 431.5,226.5C 431.334,234.174 431.5,241.841 432,249.5C 432.278,250.416 432.778,251.082 433.5,251.5 Z"/></g>
<g><path style="opacity:0.288" fill="#5b440c" d="M 460.5,226.5 C 456.167,226.5 451.833,226.5 447.5,226.5C 447.825,234.019 447.492,241.352 446.5,248.5C 446.5,240.833 446.5,233.167 446.5,225.5C 451.363,225.181 456.03,225.514 460.5,226.5 Z"/></g>
<g><path style="opacity:0.008" fill="#281f14" d="M 577.5,227.5 C 579.027,227.427 580.027,228.094 580.5,229.5C 578.973,229.573 577.973,228.906 577.5,227.5 Z"/></g>
<g><path style="opacity:0.573" fill="#664a15" d="M 611.5,226.5 C 610.5,228.167 609.167,229.5 607.5,230.5C 607.833,228.167 609.167,226.833 611.5,226.5 Z"/></g>
<g><path style="opacity:0.816" fill="#614716" d="M 625.5,226.5 C 626.239,226.369 626.906,226.536 627.5,227C 626.915,228.302 626.249,229.469 625.5,230.5C 625.5,229.167 625.5,227.833 625.5,226.5 Z"/></g>
<g><path style="opacity:1" fill="#f7b103" d="M 643.5,247.5 C 643.833,248.833 644.167,250.167 644.5,251.5C 644.574,253.411 645.574,254.578 647.5,255C 649.712,255.789 651.712,255.622 653.5,254.5C 654.29,253.599 655.29,252.932 656.5,252.5C 657.117,252.389 657.617,252.056 658,251.5C 658.5,243.173 658.666,234.84 658.5,226.5C 662.833,226.5 667.167,226.5 671.5,226.5C 671.638,236.854 671.305,247.188 670.5,257.5C 669.095,261.236 666.429,263.569 662.5,264.5C 653.719,266.075 645.052,265.742 636.5,263.5C 635.738,261.738 634.404,260.738 632.5,260.5C 631.662,260.158 631.328,259.492 631.5,258.5C 631.198,255.627 630.531,252.961 629.5,250.5C 628.876,242.754 628.876,235.087 629.5,227.5C 633.634,226.515 637.968,226.182 642.5,226.5C 642.175,233.687 642.509,240.687 643.5,247.5 Z"/></g>
<g><path style="opacity:0.546" fill="#76570e" d="M 643.5,247.5 C 642.509,240.687 642.175,233.687 642.5,226.5C 637.968,226.182 633.634,226.515 629.5,227.5C 628.957,227.44 628.624,227.107 628.5,226.5C 633.456,225.506 638.456,225.173 643.5,225.5C 643.561,233.141 643.561,240.475 643.5,247.5 Z"/></g>
<g><path style="opacity:0.004" fill="#281f14" d="M 235.5,228.5 C 237.027,228.427 238.027,229.094 238.5,230.5C 236.973,230.573 235.973,229.906 235.5,228.5 Z"/></g>
<g><path style="opacity:0.394" fill="#543f0f" d="M 433.5,251.5 C 432.778,251.082 432.278,250.416 432,249.5C 431.5,241.841 431.334,234.174 431.5,226.5C 427.167,226.5 422.833,226.5 418.5,226.5C 418.5,235.5 418.5,244.5 418.5,253.5C 417.506,244.348 417.173,235.015 417.5,225.5C 422.5,225.5 427.5,225.5 432.5,225.5C 432.255,234.208 432.589,242.874 433.5,251.5 Z"/></g>
<g><path style="opacity:0.245" fill="#56400f" d="M 670.5,257.5 C 671.305,247.188 671.638,236.854 671.5,226.5C 667.167,226.5 662.833,226.5 658.5,226.5C 658.666,234.84 658.5,243.173 658,251.5C 657.617,252.056 657.117,252.389 656.5,252.5C 657.415,243.54 657.748,234.54 657.5,225.5C 662.5,225.5 667.5,225.5 672.5,225.5C 672.666,234.839 672.5,244.173 672,253.5C 671.79,255.058 671.29,256.391 670.5,257.5 Z"/></g>
<g><path style="opacity:0.494" fill="#563f14" d="M 207.5,228.5 C 206.738,230.262 205.404,231.262 203.5,231.5C 204.262,229.738 205.596,228.738 207.5,228.5 Z"/></g>
<g><path style="opacity:0.698" fill="#523d16" d="M 580.5,229.5 C 582.587,230.585 583.92,232.251 584.5,234.5C 582.413,233.415 581.08,231.749 580.5,229.5 Z"/></g>
<g><path style="opacity:0.592" fill="#523c15" d="M 238.5,230.5 C 240.262,231.262 241.262,232.596 241.5,234.5C 239.738,233.738 238.738,232.404 238.5,230.5 Z"/></g>
<g><path style="opacity:0.651" fill="#614715" d="M 553.5,228.5 C 551.833,230.833 549.833,232.833 547.5,234.5C 548.5,231.5 550.5,229.5 553.5,228.5 Z"/></g>
<g><path style="opacity:0.675" fill="#574014" d="M 203.5,231.5 C 203.262,233.404 202.262,234.738 200.5,235.5C 200.738,233.596 201.738,232.262 203.5,231.5 Z"/></g>
<g><path style="opacity:0.592" fill="#503b15" d="M 304.5,228.5 C 302.5,231.167 300.167,233.5 297.5,235.5C 298.833,232.167 301.167,229.833 304.5,228.5 Z"/></g>
<g><path style="opacity:0.675" fill="#513c14" d="M 336.5,231.5 C 338.262,232.262 339.262,233.596 339.5,235.5C 337.738,234.738 336.738,233.404 336.5,231.5 Z"/></g>
<g><path style="opacity:0.71" fill="#624814" d="M 405.5,233.5 C 404.209,233.737 403.209,233.404 402.5,232.5C 402.435,232.062 402.601,231.728 403,231.5C 403.995,232.066 404.828,232.733 405.5,233.5 Z"/></g>
<g><path style="opacity:0.349" fill="#624810" d="M 568.5,234.5 C 566.097,234.448 563.764,234.781 561.5,235.5C 562.312,234.007 563.645,233.34 565.5,233.5C 566.726,233.52 567.726,233.853 568.5,234.5 Z"/></g>
<g><path style="opacity:0.192" fill="#433212" d="M 241.5,234.5 C 242.906,234.973 243.573,235.973 243.5,237.5C 242.094,237.027 241.427,236.027 241.5,234.5 Z"/></g>
<g><path style="opacity:0.165" fill="#3d2e12" d="M 547.5,234.5 C 547.573,236.027 546.906,237.027 545.5,237.5C 545.427,235.973 546.094,234.973 547.5,234.5 Z"/></g>
<g><path style="opacity:0.796" fill="#725314" d="M 225.5,237.5 C 227.5,237.5 228.5,238.5 228.5,240.5C 227.167,239.833 226.167,238.833 225.5,237.5 Z"/></g>
<g><path style="opacity:0.733" fill="#654a15" d="M 322.5,237.5 C 324.5,237.5 325.5,238.5 325.5,240.5C 324.167,239.833 323.167,238.833 322.5,237.5 Z"/></g>
<g><path style="opacity:0.878" fill="#745514" d="M 584.5,234.5 C 585.924,236.515 586.59,238.848 586.5,241.5C 585.076,239.485 584.41,237.152 584.5,234.5 Z"/></g>
<g><path style="opacity:0.91" fill="#725314" d="M 617.5,237.5 C 618.833,237.5 620.167,237.5 621.5,237.5C 621.631,238.376 621.298,239.043 620.5,239.5C 619.261,239.058 618.261,238.391 617.5,237.5 Z"/></g>
<g><path style="opacity:1" fill="#6b4f15" d="M 339.5,235.5 C 340.793,236.842 341.626,238.509 342,240.5C 342.81,244.358 342.643,248.024 341.5,251.5C 341.752,246.012 341.085,240.678 339.5,235.5 Z"/></g>
<g><path style="opacity:0.482" fill="#574114" d="M 409.5,236.5 C 411.262,237.262 412.262,238.596 412.5,240.5C 410.738,239.738 409.738,238.404 409.5,236.5 Z"/></g>
<g><path style="opacity:0.482" fill="#5a4312" d="M 93.5,236.5 C 95.0739,238.102 95.7406,240.102 95.5,242.5C 94.2616,240.786 93.595,238.786 93.5,236.5 Z"/></g>
<g><path style="opacity:0.773" fill="#5e4516" d="M 130.5,238.5 C 132.23,239.026 133.564,240.026 134.5,241.5C 132.368,241.446 131.035,240.446 130.5,238.5 Z"/></g>
<g><path style="opacity:0.557" fill="#4f3a14" d="M 199.5,237.5 C 199.737,238.791 199.404,239.791 198.5,240.5C 198.062,240.565 197.728,240.399 197.5,240C 198.066,239.005 198.733,238.172 199.5,237.5 Z"/></g>
<g><path style="opacity:0.466" fill="#73550d" d="M 571.5,236.5 C 573.104,237.287 573.771,238.62 573.5,240.5C 568.456,240.827 563.456,240.494 558.5,239.5C 558.624,238.893 558.957,238.56 559.5,238.5C 563.646,239.647 567.98,239.814 572.5,239C 571.748,238.329 571.414,237.496 571.5,236.5 Z"/></g>
<g><path style="opacity:0.558" fill="#7b5a10" d="M 383.5,239.5 C 383.5,244.167 383.5,248.833 383.5,253.5C 386.833,253.167 390.167,252.833 393.5,252.5C 390.155,254.217 386.489,254.884 382.5,254.5C 382.179,249.305 382.513,244.305 383.5,239.5 Z"/></g>
<g><path style="opacity:0.42" fill="#554011" d="M 489.5,202.5 C 489.169,223.34 489.503,244.007 490.5,264.5C 494.833,264.5 499.167,264.5 503.5,264.5C 503.5,256.167 503.5,247.833 503.5,239.5C 510.5,239.5 517.5,239.5 524.5,239.5C 524.5,247.833 524.5,256.167 524.5,264.5C 528.833,264.5 533.167,264.5 537.5,264.5C 537.833,264.5 538.167,264.5 538.5,264.5C 534.268,265.5 529.268,265.834 523.5,265.5C 523.5,257.167 523.5,248.833 523.5,240.5C 517.167,240.5 510.833,240.5 504.5,240.5C 504.5,248.833 504.5,257.167 504.5,265.5C 499.167,265.5 493.833,265.5 488.5,265.5C 488.169,244.327 488.503,223.327 489.5,202.5 Z"/></g>
<g><path style="opacity:0.102" fill="#2f2414" d="M 395.5,241.5 C 397.104,242.287 397.771,243.62 397.5,245.5C 396.326,244.486 395.66,243.153 395.5,241.5 Z"/></g>
<g><path style="opacity:0.471" fill="#473515" d="M 592.5,226.5 C 592.5,239.167 592.5,251.833 592.5,264.5C 596.833,264.5 601.167,264.5 605.5,264.5C 605.334,257.159 605.5,249.826 606,242.5C 606.383,241.944 606.883,241.611 607.5,241.5C 607.666,249.174 607.5,256.841 607,264.5C 601.928,265.471 596.762,265.805 591.5,265.5C 591.171,252.323 591.505,239.323 592.5,226.5 Z"/></g>
<g><path style="opacity:0.267" fill="#523d12" d="M 297.5,235.5 C 295.961,240.346 295.294,245.346 295.5,250.5C 294.359,247.36 294.192,244.027 295,240.5C 295.374,238.509 296.207,236.842 297.5,235.5 Z"/></g>
<g><path style="opacity:0.004" fill="#2f2414" d="M 96.5,245.5 C 98.0719,248.215 99.0719,251.215 99.5,254.5C 97.5275,251.916 96.5275,248.916 96.5,245.5 Z"/></g>
<g><path style="opacity:0.004" fill="#271e14" d="M 146.5,249.5 C 148.027,249.427 149.027,250.094 149.5,251.5C 147.973,251.573 146.973,250.906 146.5,249.5 Z"/></g>
<g><path style="opacity:0.004" fill="#2d2215" d="M 214.5,251.5 C 216.027,251.427 217.027,252.094 217.5,253.5C 215.973,253.573 214.973,252.906 214.5,251.5 Z"/></g>
<g><path style="opacity:0.471" fill="#5b4215" d="M 229.5,249.5 C 229.167,251.833 227.833,253.167 225.5,253.5C 226.5,251.833 227.833,250.5 229.5,249.5 Z"/></g>
<g><path style="opacity:0.412" fill="#3d2d14" d="M 311.5,250.5 C 312.833,251.167 313.833,252.167 314.5,253.5C 312.5,253.5 311.5,252.5 311.5,250.5 Z"/></g>
<g><path style="opacity:0.392" fill="#4d3914" d="M 326.5,249.5 C 326.167,251.833 324.833,253.167 322.5,253.5C 323.5,251.833 324.833,250.5 326.5,249.5 Z"/></g>
<g><path style="opacity:0.612" fill="#574014" d="M 397.5,248.5 C 397.912,250.973 396.912,252.306 394.5,252.5C 395.512,251.128 396.512,249.795 397.5,248.5 Z"/></g>
<g><path style="opacity:0.486" fill="#413015" d="M 266.5,252.5 C 271.44,255.77 275.773,259.77 279.5,264.5C 279.5,264.833 279.5,265.167 279.5,265.5C 274.833,261.5 270.5,257.167 266.5,252.5 Z"/></g>
<g><path style="opacity:0.012" fill="#241c14" d="M 544.5,250.5 C 545.404,251.209 545.737,252.209 545.5,253.5C 544.733,252.828 544.066,251.995 543.5,251C 543.728,250.601 544.062,250.435 544.5,250.5 Z"/></g>
<g><path style="opacity:0.008" fill="#302315" d="M 151.5,253.5 C 153.027,253.427 154.027,254.094 154.5,255.5C 152.973,255.573 151.973,254.906 151.5,253.5 Z"/></g>
<g><path style="opacity:0.894" fill="#705218" d="M 580.5,252.5 C 581.71,252.932 582.71,253.599 583.5,254.5C 581.821,254.715 580.821,254.048 580.5,252.5 Z"/></g>
<g><path style="opacity:0.227" fill="#4b3811" d="M 433.5,251.5 C 435.997,253.871 438.997,254.871 442.5,254.5C 440.712,255.622 438.712,255.789 436.5,255C 434.574,254.578 433.574,253.411 433.5,251.5 Z"/></g>
<g><path style="opacity:0.107" fill="#372a10" d="M 561.5,253.5 C 564.455,254.159 567.455,254.492 570.5,254.5C 569.551,255.152 568.385,255.486 567,255.5C 564.779,255.607 562.946,254.94 561.5,253.5 Z"/></g>
<g><path style="opacity:0.231" fill="#503c11" d="M 644.5,251.5 C 646.997,253.871 649.997,254.871 653.5,254.5C 651.712,255.622 649.712,255.789 647.5,255C 645.574,254.578 644.574,253.411 644.5,251.5 Z"/></g>
<g><path style="opacity:0.608" fill="#594116" d="M 583.5,254.5 C 586.884,255.244 587.218,256.577 584.5,258.5C 584.567,257.041 584.234,255.708 583.5,254.5 Z"/></g>
<g><path style="opacity:0.29" fill="#503b13" d="M 629.5,250.5 C 630.531,252.961 631.198,255.627 631.5,258.5C 629.546,256.021 628.88,253.354 629.5,250.5 Z"/></g>
<g><path style="opacity:0.502" fill="#4e3a16" d="M 99.5,256.5 C 101.28,257.99 101.946,259.99 101.5,262.5C 100.542,260.698 99.8751,258.698 99.5,256.5 Z"/></g>
<g><path style="opacity:0.004" fill="#211a14" d="M 419.5,257.5 C 420.906,257.973 421.573,258.973 421.5,260.5C 420.094,260.027 419.427,259.027 419.5,257.5 Z"/></g>
<g><path style="opacity:0.804" fill="#6d5013" d="M 301.5,260.5 C 303.404,260.738 304.738,261.738 305.5,263.5C 303.596,263.262 302.262,262.262 301.5,260.5 Z"/></g>
<g><path style="opacity:0.631" fill="#584114" d="M 632.5,260.5 C 634.404,260.738 635.738,261.738 636.5,263.5C 634.596,263.262 633.262,262.262 632.5,260.5 Z"/></g>
<g><path style="opacity:0.471" fill="#453316" d="M 160.5,260.5 C 164.234,263.231 167.234,266.564 169.5,270.5C 165.766,267.769 162.766,264.436 160.5,260.5 Z"/></g>
<g><path style="opacity:0.204" fill="#403013" d="M 551.5,261.5 C 553.027,261.427 554.027,262.094 554.5,263.5C 552.973,263.573 551.973,262.906 551.5,261.5 Z"/></g>
<g><path style="opacity:0.473" fill="#78590c" d="M 294.5,261.5 C 295.812,262.145 296.812,263.145 297.5,264.5C 291.537,265.496 285.537,265.829 279.5,265.5C 279.5,265.167 279.5,264.833 279.5,264.5C 284.844,264.666 290.177,264.499 295.5,264C 294.748,263.329 294.414,262.496 294.5,261.5 Z"/></g>
<g><path style="opacity:0.545" fill="#574112" d="M 310.5,265.5 C 315.833,265.5 321.167,265.5 326.5,265.5C 323.977,266.254 321.311,266.92 318.5,267.5C 315.689,266.92 313.023,266.254 310.5,265.5 Z"/></g>
<g><path style="opacity:0.525" fill="#6a4e11" d="M 425.5,263.5 C 434.052,265.742 442.719,266.075 451.5,264.5C 444.719,267.22 437.719,267.72 430.5,266C 428.509,265.626 426.842,264.793 425.5,263.5 Z"/></g>
<g><path style="opacity:0.549" fill="#614713" d="M 554.5,263.5 C 561.714,265.711 569.047,266.044 576.5,264.5C 568.956,268.781 561.623,268.447 554.5,263.5 Z"/></g>
<g><path style="opacity:0.529" fill="#5e4613" d="M 636.5,263.5 C 645.052,265.742 653.719,266.075 662.5,264.5C 658.649,266.185 654.482,267.185 650,267.5C 645.077,267.167 640.577,265.833 636.5,263.5 Z"/></g>
<g><path style="opacity:0.067" fill="#392c13" d="M 101.5,262.5 C 103.074,264.102 103.741,266.102 103.5,268.5C 101.926,266.898 101.259,264.898 101.5,262.5 Z"/></g>
<g><path style="opacity:0.667" fill="#5b4316" d="M 103.5,270.5 C 104.117,270.611 104.617,270.944 105,271.5C 105.495,273.473 105.662,275.473 105.5,277.5C 104.593,275.343 103.927,273.01 103.5,270.5 Z"/></g>
<g><path style="opacity:0.745" fill="#5b4316" d="M 171.5,272.5 C 173.587,273.585 174.92,275.251 175.5,277.5C 173.413,276.415 172.08,274.749 171.5,272.5 Z"/></g>
<g><path style="opacity:0.518" fill="#4d3815" d="M 177.5,279.5 C 178.906,279.973 179.573,280.973 179.5,282.5C 178.094,282.027 177.427,281.027 177.5,279.5 Z"/></g>
<g><path style="opacity:0.059" fill="#392b14" d="M 105.5,277.5 C 107.692,281.098 108.692,285.098 108.5,289.5C 106.898,285.761 105.898,281.761 105.5,277.5 Z"/></g>
<g><path style="opacity:0.427" fill="#654b13" d="M 179.5,282.5 C 180.906,282.973 181.573,283.973 181.5,285.5C 180.094,285.027 179.427,284.027 179.5,282.5 Z"/></g>
<g><path style="opacity:0.051" fill="#382b14" d="M 372.5,288.5 C 372.5,287.5 372.5,286.5 372.5,285.5C 370.194,285.993 367.861,286.326 365.5,286.5C 367.838,284.96 370.505,284.294 373.5,284.5C 373.768,286.099 373.434,287.432 372.5,288.5 Z"/></g>
<g><path style="opacity:0.294" fill="#382b12" d="M 541.5,285.5 C 537.766,285.323 534.099,285.656 530.5,286.5C 530.611,285.883 530.944,285.383 531.5,285C 535.027,284.192 538.36,284.359 541.5,285.5 Z"/></g>
<g><path style="opacity:0.282" fill="#3b2d12" d="M 575.5,285.5 C 577.966,284.366 580.633,284.199 583.5,285C 585.119,285.236 586.119,286.069 586.5,287.5C 583.039,285.909 579.372,285.242 575.5,285.5 Z"/></g>
<g><path style="opacity:0.035" fill="#312613" d="M 602.5,285.5 C 604.966,284.366 607.633,284.199 610.5,285C 611.056,285.383 611.389,285.883 611.5,286.5C 608.57,285.701 605.57,285.368 602.5,285.5 Z"/></g>
<g><path style="opacity:1" fill="#ca9210" d="M 223.5,285.5 C 223.833,286.5 224.5,287.167 225.5,287.5C 226.048,288.688 226.381,289.855 226.5,291C 224.358,294.91 221.025,297.076 216.5,297.5C 217.859,299.306 217.525,300.806 215.5,302C 212.961,302.796 210.628,302.629 208.5,301.5C 208.5,300.5 208.5,299.5 208.5,298.5C 210.413,294.035 211.413,289.535 211.5,285C 215.689,284.188 219.689,284.355 223.5,285.5 Z"/></g>
<g><path style="opacity:0.008" fill="#2f2414" d="M 223.5,285.5 C 224.833,285.5 225.5,286.167 225.5,287.5C 224.5,287.167 223.833,286.5 223.5,285.5 Z"/></g>
<g><path style="opacity:1" fill="#d3990f" d="M 414.5,291.5 C 413.532,293.607 413.198,295.941 413.5,298.5C 412.5,298.833 411.833,299.5 411.5,300.5C 411.082,301.222 410.416,301.722 409.5,302C 405.5,302.667 401.5,302.667 397.5,302C 396.209,300.708 396.209,299.542 397.5,298.5C 399.48,297.152 400.647,295.152 401,292.5C 401.765,290.934 401.598,289.601 400.5,288.5C 399.209,287.458 399.209,286.292 400.5,285C 404.833,284.333 409.167,284.333 413.5,285C 415.608,287.016 415.942,289.183 414.5,291.5 Z"/></g>
<g><path style="opacity:1" fill="#dc9f0b" d="M 475.5,285.5 C 475.833,285.5 476.167,285.5 476.5,285.5C 478.833,285.5 481.167,285.5 483.5,285.5C 483.5,286.5 483.5,287.5 483.5,288.5C 483.842,289.338 484.508,289.672 485.5,289.5C 486.014,288.375 486.347,287.209 486.5,286C 488.134,285.506 489.801,285.34 491.5,285.5C 492.525,285.897 492.692,286.563 492,287.5C 489.39,291.742 486.557,295.742 483.5,299.5C 482.18,300.942 480.514,301.608 478.5,301.5C 477.698,300.048 477.198,298.382 477,296.5C 475.97,298.346 474.804,300.013 473.5,301.5C 472.041,301.567 470.708,301.234 469.5,300.5C 468.196,296.64 467.529,292.64 467.5,288.5C 467.414,287.504 467.748,286.671 468.5,286C 470.81,285.503 473.143,285.337 475.5,285.5 Z"/></g>
<g><path style="opacity:1" fill="#d99d0d" d="M 514.5,285.5 C 515.341,287.379 515.675,289.379 515.5,291.5C 514.532,293.607 514.198,295.941 514.5,298.5C 512.351,301.815 509.185,303.149 505,302.5C 502.775,302.435 500.608,302.102 498.5,301.5C 497.224,300.386 497.224,299.386 498.5,298.5C 500.176,297.817 500.843,296.483 500.5,294.5C 502.461,292.68 502.794,290.68 501.5,288.5C 501.33,287.178 501.663,286.011 502.5,285C 506.689,284.188 510.689,284.355 514.5,285.5 Z"/></g>
<g><path style="opacity:0.998" fill="#e3a409" d="M 541.5,285.5 C 541.5,287.167 541.5,288.833 541.5,290.5C 540.041,290.567 538.708,290.234 537.5,289.5C 536.833,289.5 536.5,289.833 536.5,290.5C 539.009,291.682 540.343,293.682 540.5,296.5C 537.723,302.222 533.39,303.888 527.5,301.5C 526.306,299.516 526.306,297.516 527.5,295.5C 528.518,296.193 529.518,296.859 530.5,297.5C 532.224,297.539 532.557,297.206 531.5,296.5C 530.71,295.599 529.71,294.932 528.5,294.5C 527.89,293.609 527.557,292.609 527.5,291.5C 527.5,291.167 527.5,290.833 527.5,290.5C 528.488,289.205 529.488,287.872 530.5,286.5C 534.099,285.656 537.766,285.323 541.5,285.5 Z"/></g>
<g><path style="opacity:0.999" fill="#db9f0c" d="M 575.5,285.5 C 579.372,285.242 583.039,285.909 586.5,287.5C 586.784,289.415 586.451,291.081 585.5,292.5C 583.708,292.634 582.042,292.301 580.5,291.5C 580.217,290.711 579.717,290.044 579,289.5C 577.117,290.653 576.284,292.319 576.5,294.5C 576.62,295.586 577.287,296.253 578.5,296.5C 579.416,296.457 580.083,296.124 580.5,295.5C 580.833,295.5 581.167,295.5 581.5,295.5C 583.176,296.183 583.843,297.517 583.5,299.5C 580.122,302.229 576.455,302.895 572.5,301.5C 572.027,300.094 571.027,299.427 569.5,299.5C 569.5,299.167 569.5,298.833 569.5,298.5C 569.155,294.885 569.822,291.552 571.5,288.5C 572.262,286.738 573.596,285.738 575.5,285.5 Z"/></g>
<g><path style="opacity:1" fill="#e3a409" d="M 602.5,285.5 C 605.57,285.368 608.57,285.701 611.5,286.5C 612.299,289.43 612.632,292.43 612.5,295.5C 611.388,298.946 609.055,300.946 605.5,301.5C 597.844,301.833 594.844,298.167 596.5,290.5C 598.167,289.5 599.5,288.167 600.5,286.5C 600.842,285.662 601.508,285.328 602.5,285.5 Z M 603.5,290.5 C 605.976,292.121 606.142,294.121 604,296.5C 603.505,294.527 603.338,292.527 603.5,290.5 Z"/></g>
<g><path style="opacity:1" fill="#da9e0c" d="M 633.5,287.5 C 633.238,288.978 633.571,290.311 634.5,291.5C 635.107,291.376 635.44,291.043 635.5,290.5C 637.075,285.249 640.409,283.583 645.5,285.5C 646.653,286.687 646.653,287.687 645.5,288.5C 644.167,288.5 643.5,289.167 643.5,290.5C 641.783,293.845 641.116,297.511 641.5,301.5C 638.373,302.96 635.373,302.627 632.5,300.5C 630.973,300.573 629.973,299.906 629.5,298.5C 629.167,297.167 628.833,297.167 628.5,298.5C 628.443,299.609 628.11,300.609 627.5,301.5C 625.983,302.735 624.316,302.735 622.5,301.5C 621.224,300.386 621.224,299.386 622.5,298.5C 624.048,298.179 624.715,297.179 624.5,295.5C 624.5,294.833 624.5,294.167 624.5,293.5C 626.345,292.005 626.678,290.338 625.5,288.5C 624.226,287.811 624.226,286.977 625.5,286C 627.695,284.627 630.029,284.294 632.5,285C 633.252,285.671 633.586,286.504 633.5,287.5 Z"/></g>
<g><path style="opacity:0.902" fill="#604716" d="M 181.5,285.5 C 183.746,287.088 183.412,288.422 180.5,289.5C 181.234,288.292 181.567,286.959 181.5,285.5 Z"/></g>
<g><path style="opacity:1" fill="#f4b001" d="M 372.5,288.5 C 372.5,288.833 372.5,289.167 372.5,289.5C 370.918,292.876 370.251,296.542 370.5,300.5C 366.881,301.244 363.215,301.577 359.5,301.5C 357.774,299.18 357.107,296.513 357.5,293.5C 357.328,292.508 357.662,291.842 358.5,291.5C 360.027,291.573 361.027,290.906 361.5,289.5C 362.833,289.5 364.167,289.5 365.5,289.5C 365.5,288.5 365.5,287.5 365.5,286.5C 367.861,286.326 370.194,285.993 372.5,285.5C 372.5,286.5 372.5,287.5 372.5,288.5 Z"/></g>
<g><path style="opacity:0.239" fill="#3b2d12" d="M 475.5,285.5 C 473.143,285.337 470.81,285.503 468.5,286C 467.748,286.671 467.414,287.504 467.5,288.5C 466.209,287.458 466.209,286.292 467.5,285C 470.367,284.199 473.034,284.366 475.5,285.5 Z"/></g>
<g><path style="opacity:0.91" fill="#715413" d="M 476.5,285.5 C 481.647,284.786 486.647,284.786 491.5,285.5C 489.801,285.34 488.134,285.506 486.5,286C 486.347,287.209 486.014,288.375 485.5,289.5C 485.158,288.662 484.492,288.328 483.5,288.5C 483.5,287.5 483.5,286.5 483.5,285.5C 481.167,285.5 478.833,285.5 476.5,285.5 Z"/></g>
<g><path style="opacity:0.533" fill="#574013" d="M 600.5,286.5 C 599.5,288.167 598.167,289.5 596.5,290.5C 596.833,288.167 598.167,286.833 600.5,286.5 Z"/></g>
<g><path style="opacity:0.037" fill="#1a1513" d="M 259.5,289.5 C 262.061,288.233 264.728,288.233 267.5,289.5C 265.081,289.805 262.414,289.805 259.5,289.5 Z"/></g>
<g><path style="opacity:0.035" fill="#1a1512" d="M 365.5,286.5 C 365.5,287.5 365.5,288.5 365.5,289.5C 364.167,289.5 362.833,289.5 361.5,289.5C 362.926,288.659 364.26,287.659 365.5,286.5 Z"/></g>
<g><path style="opacity:0.012" fill="#1a1513" d="M 433.5,289.5 C 430.763,289.401 428.096,289.735 425.5,290.5C 426.492,288.974 427.992,288.307 430,288.5C 431.385,288.514 432.551,288.848 433.5,289.5 Z"/></g>
<g><path style="opacity:0.616" fill="#584114" d="M 514.5,285.5 C 515.693,285.97 516.36,286.97 516.5,288.5C 516.48,289.726 516.147,290.726 515.5,291.5C 515.675,289.379 515.341,287.379 514.5,285.5 Z"/></g>
<g><path style="opacity:0.137" fill="#3f2f13" d="M 530.5,286.5 C 529.488,287.872 528.488,289.205 527.5,290.5C 527.062,290.565 526.728,290.399 526.5,290C 527.103,287.929 528.436,286.762 530.5,286.5 Z"/></g>
<g><path style="opacity:1" fill="#d3990f" d="M 274.5,289.5 C 274.67,290.822 274.337,291.989 273.5,293C 275.863,293.589 276.863,295.089 276.5,297.5C 273.967,303.307 271.134,303.64 268,298.5C 266.649,300.019 265.149,301.352 263.5,302.5C 262.522,302.023 261.689,301.357 261,300.5C 260.16,297.798 259.327,295.132 258.5,292.5C 258.557,291.391 258.89,290.391 259.5,289.5C 262.414,289.805 265.081,289.805 267.5,289.5C 269.833,288.167 272.167,288.167 274.5,289.5 Z"/></g>
<g><path style="opacity:0.997" fill="#9d7316" d="M 276.5,297.5 C 276.863,295.089 275.863,293.589 273.5,293C 274.337,291.989 274.67,290.822 274.5,289.5C 275.967,289.106 277.467,288.773 279,288.5C 280.662,288.388 281.829,289.054 282.5,290.5C 280.448,292.878 278.448,295.211 276.5,297.5 Z"/></g>
<g><path style="opacity:1" fill="#d79c0e" d="M 301.5,290.5 C 301.5,292.167 301.5,293.833 301.5,295.5C 299.436,295.687 297.436,296.187 295.5,297C 296.448,297.483 297.448,297.649 298.5,297.5C 298.567,298.959 298.234,300.292 297.5,301.5C 295.097,301.552 292.764,301.219 290.5,300.5C 289.053,299.866 288.387,298.699 288.5,297C 288.613,294.601 289.613,292.768 291.5,291.5C 293.027,291.573 294.027,290.906 294.5,289.5C 297.012,288.133 299.345,288.466 301.5,290.5 Z"/></g>
<g><path style="opacity:0.714" fill="#5d4416" d="M 324.5,289.5 C 322.965,290.354 321.632,290.354 320.5,289.5C 321.961,288.314 323.295,288.314 324.5,289.5 Z"/></g>
<g><path style="opacity:1" fill="#e2a30a" d="M 346.5,290.5 C 346.5,292.167 346.5,293.833 346.5,295.5C 344.345,295.372 342.345,295.872 340.5,297C 342.91,297.057 344.244,298.224 344.5,300.5C 341.873,301.092 339.206,301.425 336.5,301.5C 335.5,301.167 334.833,300.5 334.5,299.5C 334.287,296.549 334.954,293.882 336.5,291.5C 338.027,291.573 339.027,290.906 339.5,289.5C 342.012,288.133 344.345,288.466 346.5,290.5 Z"/></g>
<g><path style="opacity:1" fill="#c89111" d="M 429.5,304.5 C 427.5,304.5 425.5,304.5 423.5,304.5C 422.167,303.167 422.167,301.833 423.5,300.5C 424.609,300.443 425.609,300.11 426.5,299.5C 427.833,299.167 427.833,298.833 426.5,298.5C 426.425,295.794 426.092,293.127 425.5,290.5C 428.096,289.735 430.763,289.401 433.5,289.5C 435.782,288.61 438.115,288.444 440.5,289C 441.022,289.561 441.355,290.228 441.5,291C 438.33,294.472 435.497,298.306 433,302.5C 432.184,303.823 431.017,304.489 429.5,304.5 Z"/></g>
<g><path style="opacity:0.004" fill="#211914" d="M 645.5,288.5 C 645.167,289.5 644.5,290.167 643.5,290.5C 643.5,289.167 644.167,288.5 645.5,288.5 Z"/></g>
<g><path style="opacity:1" fill="#d2980f" d="M 241.5,301.5 C 235.671,302 233.337,299.334 234.5,293.5C 238.305,287.893 242.805,287.227 248,291.5C 249.097,296.977 246.93,300.31 241.5,301.5 Z"/></g>
<g><path style="opacity:0.576" fill="#5a4213" d="M 294.5,289.5 C 294.027,290.906 293.027,291.573 291.5,291.5C 291.973,290.094 292.973,289.427 294.5,289.5 Z"/></g>
<g><path style="opacity:1" fill="#e2a30a" d="M 320.5,289.5 C 321.632,290.354 322.965,290.354 324.5,289.5C 324.5,291.167 324.5,292.833 324.5,294.5C 322.585,294.216 320.919,294.549 319.5,295.5C 319.5,296.5 319.5,297.5 319.5,298.5C 319.443,299.609 319.11,300.609 318.5,301.5C 316.167,302.833 313.833,302.833 311.5,301.5C 311.629,299.784 311.962,298.117 312.5,296.5C 312.557,295.391 312.89,294.391 313.5,293.5C 313.414,292.504 313.748,291.671 314.5,291C 316.436,290.187 318.436,289.687 320.5,289.5 Z"/></g>
<g><path style="opacity:0.635" fill="#634a13" d="M 339.5,289.5 C 339.027,290.906 338.027,291.573 336.5,291.5C 336.973,290.094 337.973,289.427 339.5,289.5 Z"/></g>
<g><path style="opacity:0.533" fill="#4e3a13" d="M 361.5,289.5 C 361.027,290.906 360.027,291.573 358.5,291.5C 358.973,290.094 359.973,289.427 361.5,289.5 Z"/></g>
<g><path style="opacity:0.725" fill="#705211" d="M 541.5,285.5 C 543.002,287.863 542.668,290.03 540.5,292C 541.801,293.616 541.801,295.116 540.5,296.5C 540.343,293.682 539.009,291.682 536.5,290.5C 537.167,290.5 537.5,290.167 537.5,289.5C 538.708,290.234 540.041,290.567 541.5,290.5C 541.5,288.833 541.5,287.167 541.5,285.5 Z"/></g>
<g><path style="opacity:0.737" fill="#7c5a12" d="M 611.5,286.5 C 612.117,286.611 612.617,286.944 613,287.5C 613.801,290.367 613.634,293.034 612.5,295.5C 612.632,292.43 612.299,289.43 611.5,286.5 Z"/></g>
<g><path style="opacity:0.561" fill="#6e5013" d="M 633.5,287.5 C 634.167,288.5 634.833,289.5 635.5,290.5C 635.44,291.043 635.107,291.376 634.5,291.5C 633.571,290.311 633.238,288.978 633.5,287.5 Z"/></g>
<g><path style="opacity:0.388" fill="#413012" d="M 259.5,289.5 C 258.89,290.391 258.557,291.391 258.5,292.5C 257.761,292.631 257.094,292.464 256.5,292C 257.078,290.583 258.078,289.75 259.5,289.5 Z"/></g>
<g><path style="opacity:0.631" fill="#574015" d="M 320.5,289.5 C 318.436,289.687 316.436,290.187 314.5,291C 313.748,291.671 313.414,292.504 313.5,293.5C 312.209,292.458 312.209,291.292 313.5,290C 315.895,288.402 318.228,288.236 320.5,289.5 Z"/></g>
<g><path style="opacity:0.82" fill="#755513" d="M 400.5,288.5 C 401.598,289.601 401.765,290.934 401,292.5C 400.647,295.152 399.48,297.152 397.5,298.5C 398.807,295.275 399.807,291.941 400.5,288.5 Z"/></g>
<g><path style="opacity:0.663" fill="#5c4413" d="M 501.5,288.5 C 502.794,290.68 502.461,292.68 500.5,294.5C 500.833,292.5 501.167,290.5 501.5,288.5 Z"/></g>
<g><path style="opacity:0.047" fill="#281f12" d="M 625.5,288.5 C 626.678,290.338 626.345,292.005 624.5,293.5C 624.629,291.784 624.962,290.117 625.5,288.5 Z"/></g>
<g><path style="opacity:0.62" fill="#6b4e15" d="M 324.5,289.5 C 326.922,291.048 326.922,292.714 324.5,294.5C 324.5,292.833 324.5,291.167 324.5,289.5 Z"/></g>
<g><path style="opacity:0.008" fill="#161212" d="M 527.5,291.5 C 527.557,292.609 527.89,293.609 528.5,294.5C 527.833,294.5 527.167,294.5 526.5,294.5C 526.263,293.209 526.596,292.209 527.5,291.5 Z"/></g>
<g><path style="opacity:0.878" fill="#805d13" d="M 319.5,295.5 C 320.919,294.549 322.585,294.216 324.5,294.5C 323.252,296.69 321.586,297.023 319.5,295.5 Z"/></g>
<g><path style="opacity:0.847" fill="#664b16" d="M 414.5,291.5 C 416.044,294.172 415.711,296.505 413.5,298.5C 413.198,295.941 413.532,293.607 414.5,291.5 Z"/></g>
<g><path style="opacity:1" fill="#825f14" d="M 515.5,291.5 C 517.044,294.172 516.711,296.505 514.5,298.5C 514.198,295.941 514.532,293.607 515.5,291.5 Z"/></g>
<g><path style="opacity:0.059" fill="#2e2313" d="M 580.5,291.5 C 582.042,292.301 583.708,292.634 585.5,292.5C 584.193,293.802 584.193,295.135 585.5,296.5C 585.058,297.739 584.391,298.739 583.5,299.5C 583.843,297.517 583.176,296.183 581.5,295.5C 581.918,294.778 582.584,294.278 583.5,294C 581.881,293.764 580.881,292.931 580.5,291.5 Z"/></g>
<g><path style="opacity:0.563" fill="#73540f" d="M 239.5,293.5 C 240.586,293.62 241.253,294.287 241.5,295.5C 241.167,296.167 240.833,296.833 240.5,297.5C 239.571,296.311 239.238,294.978 239.5,293.5 Z"/></g>
<g><path style="opacity:0.927" fill="#8a6414" d="M 346.5,290.5 C 347.293,293.314 347.293,295.981 346.5,298.5C 346.145,299.522 345.478,300.189 344.5,300.5C 344.244,298.224 342.91,297.057 340.5,297C 342.345,295.872 344.345,295.372 346.5,295.5C 346.5,293.833 346.5,292.167 346.5,290.5 Z"/></g>
<g><path style="opacity:0.639" fill="#634814" d="M 571.5,288.5 C 569.822,291.552 569.155,294.885 569.5,298.5C 568.12,298.038 567.453,297.038 567.5,295.5C 567.728,292.433 569.061,290.1 571.5,288.5 Z"/></g>
<g><path style="opacity:0.027" fill="#2f2512" d="M 576.5,294.5 C 577.708,295.234 579.041,295.567 580.5,295.5C 580.083,296.124 579.416,296.457 578.5,296.5C 577.287,296.253 576.62,295.586 576.5,294.5 Z"/></g>
<g><path style="opacity:0.965" fill="#614816" d="M 596.5,290.5 C 594.844,298.167 597.844,301.833 605.5,301.5C 597.966,303.477 594.466,300.477 595,292.5C 595.278,291.584 595.778,290.918 596.5,290.5 Z"/></g>
<g><path style="opacity:0.788" fill="#876214" d="M 301.5,290.5 C 302.701,293.405 302.534,296.405 301,299.5C 300.184,300.823 299.017,301.489 297.5,301.5C 298.234,300.292 298.567,298.959 298.5,297.5C 297.448,297.649 296.448,297.483 295.5,297C 297.436,296.187 299.436,295.687 301.5,295.5C 301.5,293.833 301.5,292.167 301.5,290.5 Z"/></g>
<g><path style="opacity:0.239" fill="#443313" d="M 336.5,291.5 C 334.954,293.882 334.287,296.549 334.5,299.5C 332.816,296.282 333.483,293.615 336.5,291.5 Z"/></g>
<g><path style="opacity:0.745" fill="#614715" d="M 357.5,293.5 C 357.107,296.513 357.774,299.18 359.5,301.5C 359.167,301.5 358.833,301.5 358.5,301.5C 355.206,299.044 354.873,296.377 357.5,293.5 Z"/></g>
<g><path style="opacity:1" fill="#936b0e" d="M 363.5,294.5 C 363.56,293.957 363.893,293.624 364.5,293.5C 365.429,294.689 365.762,296.022 365.5,297.5C 364.325,297.719 363.325,297.386 362.5,296.5C 362.624,295.893 362.957,295.56 363.5,295.5C 364.644,296.183 364.644,295.849 363.5,294.5 Z"/></g>
<g><path style="opacity:0.059" fill="#403012" d="M 372.5,289.5 C 372.938,289.435 373.272,289.601 373.5,290C 372.335,293.557 371.335,297.057 370.5,300.5C 370.251,296.542 370.918,292.876 372.5,289.5 Z"/></g>
<g><path style="opacity:1" fill="#a87b16" d="M 551.5,301.5 C 551.5,299.833 551.5,298.167 551.5,296.5C 552.659,294.623 554.326,294.123 556.5,295C 558.488,300.489 556.821,302.656 551.5,301.5 Z"/></g>
<g><path style="opacity:0.082" fill="#3d2e13" d="M 643.5,290.5 C 642.643,293.549 642.643,296.549 643.5,299.5C 643.145,300.522 642.478,301.189 641.5,301.5C 641.116,297.511 641.783,293.845 643.5,290.5 Z"/></g>
<g><path style="opacity:0.733" fill="#594118" d="M 500.5,294.5 C 500.843,296.483 500.176,297.817 498.5,298.5C 498.989,297.005 499.655,295.671 500.5,294.5 Z"/></g>
<g><path style="opacity:0.8" fill="#755513" d="M 526.5,294.5 C 527.167,294.5 527.833,294.5 528.5,294.5C 529.71,294.932 530.71,295.599 531.5,296.5C 530.833,296.5 530.5,296.833 530.5,297.5C 529.518,296.859 528.518,296.193 527.5,295.5C 526.306,297.516 526.306,299.516 527.5,301.5C 524.329,299.515 523.996,297.182 526.5,294.5 Z"/></g>
<g><path style="opacity:0.698" fill="#654a15" d="M 624.5,295.5 C 624.715,297.179 624.048,298.179 622.5,298.5C 622.932,297.29 623.599,296.29 624.5,295.5 Z"/></g>
<g><path style="opacity:0.561" fill="#523d14" d="M 208.5,298.5 C 208.5,299.5 208.5,300.5 208.5,301.5C 205.833,300.5 205.833,299.5 208.5,298.5 Z"/></g>
<g><path style="opacity:0.749" fill="#614716" d="M 234.5,293.5 C 233.337,299.334 235.671,302 241.5,301.5C 234.323,303.317 231.989,300.65 234.5,293.5 Z"/></g>
<g><path style="opacity:0.71" fill="#533e14" d="M 312.5,296.5 C 311.962,298.117 311.629,299.784 311.5,301.5C 310.711,301.217 310.044,300.717 309.5,300C 310.163,298.482 311.163,297.315 312.5,296.5 Z"/></g>
<g><path style="opacity:0.004" fill="#352814" d="M 413.5,298.5 C 413.5,299.833 412.833,300.5 411.5,300.5C 411.833,299.5 412.5,298.833 413.5,298.5 Z"/></g>
<g><path style="opacity:0.659" fill="#5b4314" d="M 426.5,298.5 C 426.5,298.833 426.5,299.167 426.5,299.5C 425.609,300.11 424.609,300.443 423.5,300.5C 423.973,299.094 424.973,298.427 426.5,298.5 Z"/></g>
<g><path style="opacity:0.859" fill="#775715" d="M 551.5,296.5 C 551.5,298.167 551.5,299.833 551.5,301.5C 548.833,299.833 548.833,298.167 551.5,296.5 Z"/></g>
<g><path style="opacity:0.039" fill="#3d2e13" d="M 319.5,298.5 C 320.885,299.947 320.552,300.947 318.5,301.5C 319.11,300.609 319.443,299.609 319.5,298.5 Z"/></g>
<g><path style="opacity:0.204" fill="#3d2d13" d="M 569.5,299.5 C 571.027,299.427 572.027,300.094 572.5,301.5C 570.973,301.573 569.973,300.906 569.5,299.5 Z"/></g>
<g><path style="opacity:0.024" fill="#392b12" d="M 628.5,298.5 C 628.833,298.5 629.167,298.5 629.5,298.5C 629.973,299.906 630.973,300.573 632.5,300.5C 631.081,301.451 629.415,301.784 627.5,301.5C 628.11,300.609 628.443,299.609 628.5,298.5 Z"/></g>
<g><path style="opacity:0.067" fill="#221b13" d="M 290.5,300.5 C 292.764,301.219 295.097,301.552 297.5,301.5C 296.726,302.147 295.726,302.48 294.5,302.5C 292.645,302.66 291.312,301.993 290.5,300.5 Z"/></g>
<g><path style="opacity:0.067" fill="#251d13" d="M 344.5,300.5 C 342.007,302.584 339.34,302.917 336.5,301.5C 339.206,301.425 341.873,301.092 344.5,300.5 Z"/></g>
<g><path style="opacity:0.055" fill="#281f13" d="M 370.5,300.5 C 368.538,302.017 366.205,302.684 363.5,302.5C 361.631,302.493 359.964,302.16 358.5,301.5C 358.833,301.5 359.167,301.5 359.5,301.5C 363.215,301.577 366.881,301.244 370.5,300.5 Z"/></g>
<g><path style="opacity:0.027" fill="#1f1912" d="M 469.5,300.5 C 470.708,301.234 472.041,301.567 473.5,301.5C 473.083,302.124 472.416,302.457 471.5,302.5C 470.287,302.253 469.62,301.586 469.5,300.5 Z"/></g>
<g><path style="opacity:0.031" fill="#201a13" d="M 483.5,299.5 C 483.586,300.496 483.252,301.329 482.5,302C 480.934,302.765 479.601,302.598 478.5,301.5C 480.514,301.608 482.18,300.942 483.5,299.5 Z"/></g>
<g><path style="opacity:0.553" fill="#553f13" d="M 423.5,304.5 C 425.5,304.5 427.5,304.5 429.5,304.5C 427.5,307.167 425.5,307.167 423.5,304.5 Z"/></g>
<g><path style="opacity:0.275" fill="#493614" d="M 109.5,294.5 C 112.096,301.827 113.429,309.494 113.5,317.5C 111.646,310.049 110.313,302.382 109.5,294.5 Z"/></g>
<g><path style="opacity:0.995" fill="#7a5a19" d="M 115.5,334.5 C 116.5,336.167 117.833,337.5 119.5,338.5C 118.746,340.446 117.412,341.279 115.5,341C 114.657,338.987 114.657,336.82 115.5,334.5 Z"/></g>
</svg>
