<?xml version="1.0" encoding="UTF-8"?>
<!DOCTYPE svg PUBLIC "-//W3C//DTD SVG 1.1//EN" "http://www.w3.org/Graphics/SVG/1.1/DTD/svg11.dtd">
<svg xmlns="http://www.w3.org/2000/svg" version="1.1" width="92px" height="50px" style="shape-rendering:geometricPrecision; text-rendering:geometricPrecision; image-rendering:optimizeQuality; fill-rule:evenodd; clip-rule:evenodd" xmlns:xlink="http://www.w3.org/1999/xlink">
<g><path style="opacity:1" fill="#f7b104" d="M 14.5,-0.5 C 16.5,-0.5 18.5,-0.5 20.5,-0.5C 23.0465,2.284 24.5465,5.61734 25,9.5C 27.0065,8.33129 29.1732,7.66462 31.5,7.5C 32.1484,12.8283 32.3151,18.1617 32,23.5C 31.5348,22.0692 30.7014,20.9025 29.5,20C 27.7725,20.5258 26.1059,20.3591 24.5,19.5C 24.3059,17.0882 22.9726,16.0882 20.5,16.5C 16.0656,15.5486 13.399,17.5486 12.5,22.5C 12.7189,23.938 13.2189,25.2713 14,26.5C 14.69,27.7383 15.19,27.7383 15.5,26.5C 16.3382,26.8417 16.6716,27.5084 16.5,28.5C 15.5213,30.1454 14.188,31.4787 12.5,32.5C 14.5732,34.5798 16.9066,36.2464 19.5,37.5C 20.0283,38.8474 20.195,40.1807 20,41.5C 17.146,43.5977 14.4794,45.931 12,48.5C 10.5478,36.8094 6.7145,25.976 0.5,16C 3.06269,14.9207 5.72935,14.4207 8.5,14.5C 8.14891,11.7623 7.48224,9.09564 6.5,6.5C 8.05306,2.78577 10.7197,0.452435 14.5,-0.5 Z M 17.5,2.5 C 18.4959,2.41423 19.3292,2.74756 20,3.5C 20.662,5.81268 21.162,8.14602 21.5,10.5C 18.6239,10.9272 15.7906,11.5938 13,12.5C 12.5,12.1667 12,11.8333 11.5,11.5C 10.8333,9.5 10.1667,7.5 9.5,5.5C 12.2763,4.48523 14.9429,3.48523 17.5,2.5 Z"/></g>
<g><path style="opacity:0.999" fill="#fbb400" d="M 20.5,17.5 C 22.0618,17.7329 23.3951,18.3995 24.5,19.5C 24.4142,20.4959 24.7476,21.3292 25.5,22C 22.6447,24.0308 19.978,26.1975 17.5,28.5C 17.1667,28.5 16.8333,28.5 16.5,28.5C 16.6716,27.5084 16.3382,26.8417 15.5,26.5C 12.6785,21.1479 14.3452,18.1479 20.5,17.5 Z"/></g>
<g><path style="opacity:0.024" fill="#0d0c14" d="M 20.5,17.5 C 20.5,17.1667 20.5,16.8333 20.5,16.5C 22.9726,16.0882 24.3059,17.0882 24.5,19.5C 23.3951,18.3995 22.0618,17.7329 20.5,17.5 Z"/></g>
<g><path style="opacity:0.835" fill="#87620f" d="M 33.5,22.5 C 40.6909,23.0793 48.0243,23.0793 55.5,22.5C 55.762,23.9778 55.4287,25.3112 54.5,26.5C 51.8333,26.5 49.1667,26.5 46.5,26.5C 45.7492,25.624 45.2492,24.624 45,23.5C 44.7508,24.624 44.2508,25.624 43.5,26.5C 40.348,26.2879 37.0147,26.2879 33.5,26.5C 33.5,25.1667 33.5,23.8333 33.5,22.5 Z M 34.5,23.5 C 35.675,23.281 36.675,23.6143 37.5,24.5C 35.9483,25.7979 34.9483,25.4646 34.5,23.5 Z"/></g>
<g><path style="opacity:0.467" fill="#684c0c" d="M 56.5,23.5 C 59.2538,23.7845 61.9205,24.4512 64.5,25.5C 64.1924,26.3081 63.6924,26.9747 63,27.5C 60.9592,26.5769 58.7925,26.2436 56.5,26.5C 56.5,25.5 56.5,24.5 56.5,23.5 Z"/></g>
<g><path style="opacity:1" fill="#cd9306" d="M 17.5,28.5 C 19.924,28.1924 22.2573,28.5258 24.5,29.5C 22.777,31.8676 22.1103,34.5342 22.5,37.5C 21.5,37.5 20.5,37.5 19.5,37.5C 19.7105,34.248 19.0438,31.248 17.5,28.5 Z"/></g>
<g><path style="opacity:1" fill="#b6840d" d="M 47.5,28.5 C 51.8306,27.4511 53.9973,29.1178 54,33.5C 56.2597,31.0028 57.593,31.6695 58,35.5C 58.49,34.2068 58.6567,32.8734 58.5,31.5C 59.5,31.5 60.5,31.5 61.5,31.5C 61.8564,37.4698 59.523,39.1364 54.5,36.5C 52.2534,37.3742 49.9201,37.7076 47.5,37.5C 47.5,34.5 47.5,31.5 47.5,28.5 Z"/></g>
<g><path style="opacity:0.659" fill="#77570e" d="M 79.5,32.5 C 81.9479,31.5269 84.6146,31.1936 87.5,31.5C 87.5,32.8333 87.5,34.1667 87.5,35.5C 86.7321,34.7375 86.2321,33.7375 86,32.5C 85.51,33.7932 85.3433,35.1266 85.5,36.5C 84.8333,35.5 84.1667,34.5 83.5,33.5C 82.4324,32.5655 81.099,32.2322 79.5,32.5 Z"/></g>
<g><path style="opacity:1" fill="#c08a0c" d="M 33.5,32.5 C 34.9613,31.3143 36.2946,31.3143 37.5,32.5C 42.1283,30.4935 44.1283,31.8268 43.5,36.5C 39.5546,37.4909 35.5546,37.8242 31.5,37.5C 31.3354,34.4816 31.502,31.4816 32,28.5C 32.079,30.7364 32.579,32.0697 33.5,32.5 Z M 37.5,32.5 C 37.6567,33.8734 37.49,35.2068 37,36.5C 34.9815,34.8759 35.1481,33.5426 37.5,32.5 Z"/></g>
<g><path style="opacity:1" fill="#c78f0a" d="M 29.5,33.5 C 29.5,34.5 29.5,35.5 29.5,36.5C 25.1693,38.6005 23.3359,37.2672 24,32.5C 26.2345,31.0198 28.0679,31.3531 29.5,33.5 Z"/></g>
<g><path style="opacity:0.654" fill="#ae7e0a" d="M 79.5,32.5 C 81.099,32.2322 82.4324,32.5655 83.5,33.5C 82.1497,34.4831 81.1497,35.8164 80.5,37.5C 79.2624,33.6893 78.5958,33.6893 78.5,37.5C 75.3463,36.9054 72.3463,36.9054 69.5,37.5C 68.8333,33.5 68.1667,33.5 67.5,37.5C 66.5,37.5 65.5,37.5 64.5,37.5C 64.5,34.5 64.5,31.5 64.5,28.5C 65.5,28.5 66.5,28.5 67.5,28.5C 68.1667,32.5 68.8333,32.5 69.5,28.5C 70.5,28.5 71.5,28.5 72.5,28.5C 72.3398,30.1992 72.5065,31.8659 73,33.5C 74.916,30.967 76.916,30.967 79,33.5C 79.3988,33.2716 79.5654,32.9382 79.5,32.5 Z"/></g>
<g><path style="opacity:0.757" fill="#7c5b0c" d="M 33.5,32.5 C 32.579,32.0697 32.079,30.7364 32,28.5C 31.502,31.4816 31.3354,34.4816 31.5,37.5C 30.8333,37.1667 30.1667,36.8333 29.5,36.5C 29.5,35.5 29.5,34.5 29.5,33.5C 30.4614,31.7354 30.7947,29.7354 30.5,27.5C 31.5,27.5 32.5,27.5 33.5,27.5C 33.5,29.1667 33.5,30.8333 33.5,32.5 Z"/></g>
<g><path style="opacity:1" fill="#c08b0a" d="M 91.5,31.5 C 91.5,32.8333 91.5,34.1667 91.5,35.5C 89.6834,37.51 87.6834,37.8434 85.5,36.5C 85.3433,35.1266 85.51,33.7932 86,32.5C 86.2321,33.7375 86.7321,34.7375 87.5,35.5C 88.4345,34.4324 88.7678,33.099 88.5,31.5C 89.5,31.5 90.5,31.5 91.5,31.5 Z"/></g>
<g><path style="opacity:0.475" fill="#76560f" d="M 39.5,40.5 C 41.337,40.6395 41.6704,41.3061 40.5,42.5C 39.7025,42.0431 39.3691,41.3764 39.5,40.5 Z"/></g>
<g><path style="opacity:0.841" fill="#7c5b0e" d="M 76.5,39.5 C 78.0481,39.8212 78.7148,40.8212 78.5,42.5C 75.7524,42.5983 75.0857,41.5983 76.5,39.5 Z"/></g>
<g><path style="opacity:0.988" fill="#976e0a" d="M 80.5,39.5 C 82.6246,40.3676 82.7913,41.3676 81,42.5C 79.3167,41.8235 79.1501,40.8235 80.5,39.5 Z"/></g>
<g><path style="opacity:0.784" fill="#88630c" d="M 24.5,39.5 C 27.6741,39.9522 28.0075,40.9522 25.5,42.5C 24.6143,41.675 24.281,40.675 24.5,39.5 Z"/></g>
<g><path style="opacity:0.843" fill="#9f7309" d="M 28.5,40.5 C 30.337,40.6395 30.6704,41.3061 29.5,42.5C 28.7025,42.0431 28.3691,41.3764 28.5,40.5 Z"/></g>
<g><path style="opacity:0.478" fill="#7a590b" d="M 35.5,41.5 C 34.1417,42.6256 32.8084,42.6256 31.5,41.5C 32.9584,40.218 34.2918,40.218 35.5,41.5 Z"/></g>
<g><path style="opacity:0.945" fill="#836010" d="M 35.5,41.5 C 36.5754,40.4376 37.5754,40.4376 38.5,41.5C 37.3864,42.7759 36.3864,42.7759 35.5,41.5 Z"/></g>
<g><path style="opacity:0.894" fill="#9c7209" d="M 42.5,40.5 C 44.337,40.6395 44.6704,41.3061 43.5,42.5C 42.7025,42.0431 42.3691,41.3764 42.5,40.5 Z"/></g>
<g><path style="opacity:0.941" fill="#936a0b" d="M 47.5,39.5 C 48.404,40.209 48.7373,41.209 48.5,42.5C 44.9952,42.3059 44.6618,41.3059 47.5,39.5 Z"/></g>
<g><path style="opacity:0.859" fill="#92690d" d="M 51.5,39.5 C 55.31,40.7542 55.31,41.7542 51.5,42.5C 51.5,41.5 51.5,40.5 51.5,39.5 Z"/></g>
<g><path style="opacity:0.753" fill="#8f680d" d="M 61.5,39.5 C 62.8734,39.3433 64.2068,39.51 65.5,40C 64.6921,41.7058 63.3588,42.5391 61.5,42.5C 61.5,41.5 61.5,40.5 61.5,39.5 Z"/></g>
<g><path style="opacity:1" fill="#a3760c" d="M 66.5,39.5 C 68.0481,39.8212 68.7148,40.8212 68.5,42.5C 67.448,42.6495 66.448,42.4828 65.5,42C 66.2524,41.3292 66.5858,40.4959 66.5,39.5 Z"/></g>
<g><path style="opacity:1" fill="#89640f" d="M 70.5,39.5 C 72.0481,39.8212 72.7148,40.8212 72.5,42.5C 69.7524,42.5983 69.0857,41.5983 70.5,39.5 Z"/></g>
<g><path style="opacity:0.51" fill="#8f6807" d="M 73.5,41.5 C 74.8333,42.1667 74.8333,42.1667 73.5,41.5 Z"/></g>
<g><path style="opacity:1" fill="#ab7c0c" d="M 83.5,39.5 C 84.5,39.5 85.5,39.5 86.5,39.5C 86.5,40.5 86.5,41.5 86.5,42.5C 85.5,42.5 84.5,42.5 83.5,42.5C 83.5,41.5 83.5,40.5 83.5,39.5 Z"/></g>
<g><path style="opacity:0.612" fill="#8a6509" d="M 55.5,40.5 C 57.9732,40.9473 58.1399,41.9473 56,43.5C 55.5172,42.552 55.3505,41.552 55.5,40.5 Z"/></g>
</svg>
