<?xml version="1.0" encoding="UTF-8"?>
<!DOCTYPE svg PUBLIC "-//W3C//DTD SVG 1.1//EN" "http://www.w3.org/Graphics/SVG/1.1/DTD/svg11.dtd">
<svg xmlns="http://www.w3.org/2000/svg" version="1.1" width="512px" height="512px" style="shape-rendering:geometricPrecision; text-rendering:geometricPrecision; image-rendering:optimizeQuality; fill-rule:evenodd; clip-rule:evenodd" xmlns:xlink="http://www.w3.org/1999/xlink">
<g><path style="opacity:0.953" fill="#020000" d="M 94.5,17.5 C 130.584,15.294 158.751,28.9607 179,58.5C 194.308,86.8971 194.308,115.23 179,143.5C 171.427,155.205 161.594,164.539 149.5,171.5C 148.668,180.816 148.168,190.149 148,199.5C 145.567,205.448 141.4,206.948 135.5,204C 126.678,197.089 117.678,190.423 108.5,184C 70.6202,184.062 42.7869,167.562 25,134.5C 9.07798,89.9323 20.9113,54.7656 60.5,29C 71.3092,23.2308 82.6425,19.3974 94.5,17.5 Z"/></g>
<g><path style="opacity:0.971" fill="#020101" d="M 448.5,491.5 C 441.515,492.089 434.515,492.422 427.5,492.5C 424.063,491.055 420.397,490.055 416.5,489.5C 398.803,482.48 388.47,469.48 385.5,450.5C 335.167,450.5 284.833,450.5 234.5,450.5C 230.8,472.532 218.133,486.199 196.5,491.5C 190.19,492.19 183.857,492.524 177.5,492.5C 150.83,487.658 135.997,471.658 133,444.5C 121.173,435.571 115.34,423.571 115.5,408.5C 99.7586,399.765 96.2586,387.432 105,371.5C 112.326,362.744 121.493,360.078 132.5,363.5C 136.442,353.947 140.109,344.28 143.5,334.5C 140.683,329.537 137.85,324.537 135,319.5C 133.452,315.322 133.285,311.156 134.5,307C 113.103,306.967 91.7695,306.3 70.5,305C 67.5442,300.335 67.8775,296.002 71.5,292C 77.4067,290.639 83.4067,290.139 89.5,290.5C 89.0188,265.077 89.5188,239.744 91,214.5C 92.1711,213.107 93.6711,212.273 95.5,212C 125.5,211.333 155.5,211.333 185.5,212C 188.333,212.833 190.167,214.667 191,217.5C 191.5,241.831 191.667,266.164 191.5,290.5C 200.506,290.666 209.506,290.5 218.5,290C 210.65,282.132 206.15,272.632 205,261.5C 201.746,234.433 207.412,209.433 222,186.5C 237.564,163.768 256.397,144.101 278.5,127.5C 261.215,102.153 261.382,76.8196 279,51.5C 302.093,26.6166 328.926,21.7833 359.5,37C 374.942,46.7199 384.276,60.5532 387.5,78.5C 397.049,77.2131 400.882,81.2131 399,90.5C 397.442,92.7676 395.276,93.9343 392.5,94C 387.511,94.4993 382.511,94.6659 377.5,94.5C 375.686,121.488 361.686,138.155 335.5,144.5C 334.688,148.98 332.021,151.313 327.5,151.5C 330.02,162.183 329.353,172.683 325.5,183C 347.5,183.333 369.5,183.667 391.5,184C 395.194,185.198 398.528,187.032 401.5,189.5C 410.414,184.353 420.081,182.019 430.5,182.5C 437.169,182.975 443.835,183.475 450.5,184C 466.634,189.743 473.467,201.243 471,218.5C 468.748,229.082 462.581,236.249 452.5,240C 444.905,241.356 437.238,241.856 429.5,241.5C 433.61,289.206 438.11,336.872 443,384.5C 473.378,390.906 490.211,409.573 493.5,440.5C 494.111,445.957 491.777,449.291 486.5,450.5C 482.042,471.952 469.376,485.619 448.5,491.5 Z M 307.5,227.5 C 328.167,227.5 348.833,227.5 369.5,227.5C 373.163,264.467 376.497,301.467 379.5,338.5C 380.027,352.425 375.194,364.092 365,373.5C 357.736,369.973 353.07,364.306 351,356.5C 351.897,331.313 353.397,306.146 355.5,281C 353.804,260.898 343.137,248.898 323.5,245C 315.462,244.263 307.462,243.263 299.5,242C 303.079,237.675 305.746,232.842 307.5,227.5 Z M 298.5,329.5 C 301.829,342.15 305.163,354.817 308.5,367.5C 309.167,370.167 309.833,372.833 310.5,375.5C 297.177,366.858 290.677,354.525 291,338.5C 293.364,335.31 295.864,332.31 298.5,329.5 Z"/></g>
<g><path style="opacity:1" fill="#ed5e67" d="M 132.5,182.5 C 132.666,177.821 132.499,173.155 132,168.5C 129.167,166.333 126.333,164.167 123.5,162C 103.796,162.909 85.7963,157.909 69.5,147C 65.9528,144.616 62.9528,141.783 60.5,138.5C 61.9217,138.709 63.255,139.209 64.5,140C 90.8333,140.667 117.167,140.667 143.5,140C 149,138.5 152.5,135 154,129.5C 154.499,125.848 154.665,122.182 154.5,118.5C 161.385,117.031 163.219,113.031 160,106.5C 158.416,105.139 156.582,104.472 154.5,104.5C 152.611,71.9466 135.278,55.28 102.5,54.5C 86.9384,54.6978 74.1051,60.6978 64,72.5C 56.8855,82.0088 53.7188,92.6755 54.5,104.5C 47.8906,105.258 45.7239,108.925 48,115.5C 49.5088,117.919 51.6755,118.919 54.5,118.5C 54.2834,123.23 54.6167,127.897 55.5,132.5C 46.9421,124.065 41.4421,113.731 39,101.5C 38.0678,93.6955 37.2345,86.0289 36.5,78.5C 47.193,53.6376 65.8597,38.4709 92.5,33C 128.569,29.2789 154.736,43.4455 171,75.5C 181.356,105.412 174.856,130.912 151.5,152C 145.833,155.833 140.167,159.667 134.5,163.5C 133.903,170.537 133.236,176.871 132.5,182.5 Z"/></g>
<g><path style="opacity:1" fill="#ee5f68" d="M 320.5,85.5 C 319.505,98.3226 319.171,111.323 319.5,124.5C 294.811,111.456 284.811,91.1223 289.5,63.5C 300.845,47.1755 316.511,40.6755 336.5,44C 355.662,48.6625 367.662,60.4959 372.5,79.5C 356.497,79.3334 340.497,79.5001 324.5,80C 322.072,81.0183 320.738,82.8517 320.5,85.5 Z"/></g>
<g><path style="opacity:1" fill="#060302" d="M 60.5,138.5 C 58.8036,136.475 57.137,134.475 55.5,132.5C 54.6167,127.897 54.2834,123.23 54.5,118.5C 51.6755,118.919 49.5088,117.919 48,115.5C 45.7239,108.925 47.8906,105.258 54.5,104.5C 53.7188,92.6755 56.8855,82.0088 64,72.5C 74.1051,60.6978 86.9384,54.6978 102.5,54.5C 135.278,55.28 152.611,71.9466 154.5,104.5C 156.582,104.472 158.416,105.139 160,106.5C 163.219,113.031 161.385,117.031 154.5,118.5C 154.665,122.182 154.499,125.848 154,129.5C 152.5,135 149,138.5 143.5,140C 117.167,140.667 90.8333,140.667 64.5,140C 63.255,139.209 61.9217,138.709 60.5,138.5 Z"/></g>
<g><path style="opacity:1" fill="#eb434d" d="M 289.5,63.5 C 284.811,91.1223 294.811,111.456 319.5,124.5C 319.815,128.371 319.482,132.038 318.5,135.5C 290.181,127.633 278.015,108.967 282,79.5C 283.194,73.4512 285.694,68.1179 289.5,63.5 Z"/></g>
<g><path style="opacity:1" fill="#e2986a" d="M 95.5,68.5 C 115.214,65.5455 129.38,72.8788 138,90.5C 139.079,93.0627 139.579,95.7294 139.5,98.5C 133.537,97.4696 127.537,97.3029 121.5,98C 115.785,101.027 109.785,103.194 103.5,104.5C 97.6182,102.147 91.6182,99.9803 85.5,98C 80.2487,97.1963 75.082,97.363 70,98.5C 70.6691,87.3383 75.8358,78.8383 85.5,73C 88.8932,71.38 92.2265,69.88 95.5,68.5 Z"/></g>
<g><path style="opacity:1" fill="#e9343e" d="M 36.5,78.5 C 37.2345,86.0289 38.0678,93.6955 39,101.5C 41.4421,113.731 46.9421,124.065 55.5,132.5C 57.137,134.475 58.8036,136.475 60.5,138.5C 62.9528,141.783 65.9528,144.616 69.5,147C 85.7963,157.909 103.796,162.909 123.5,162C 126.333,164.167 129.167,166.333 132,168.5C 132.499,173.155 132.666,177.821 132.5,182.5C 126.711,178.551 121.044,174.384 115.5,170C 84.1087,171.885 59.6087,160.051 42,134.5C 31.7302,116.606 29.8969,97.9396 36.5,78.5 Z"/></g>
<g><path style="opacity:1" fill="#b3444a" d="M 320.5,85.5 C 320.833,102.513 320.499,119.513 319.5,136.5C 318.893,136.376 318.56,136.043 318.5,135.5C 319.482,132.038 319.815,128.371 319.5,124.5C 319.171,111.323 319.505,98.3226 320.5,85.5 Z"/></g>
<g><path style="opacity:1" fill="#f6beaa" d="M 360.5,103.5 C 351.948,105.191 346.114,110.524 343,119.5C 342.56,121.866 342.06,124.199 341.5,126.5C 339.562,128.163 337.228,128.829 334.5,128.5C 334.5,116.833 334.5,105.167 334.5,93.5C 343.833,93.5 353.167,93.5 362.5,93.5C 362.678,97.1224 362.011,100.456 360.5,103.5 Z"/></g>
<g><path style="opacity:1" fill="#f6d1c4" d="M 360.5,103.5 C 358.617,114.976 352.284,122.643 341.5,126.5C 342.06,124.199 342.56,121.866 343,119.5C 346.114,110.524 351.948,105.191 360.5,103.5 Z"/></g>
<g><path style="opacity:1" fill="#e2986a" d="M 86.5,125.5 C 80.3191,122.987 75.3191,118.987 71.5,113.5C 74.5943,111.653 77.9277,111.153 81.5,112C 86.6027,113.717 91.6027,115.717 96.5,118C 102.569,118.804 108.569,118.471 114.5,117C 122.398,110.969 130.732,110.136 139.5,114.5C 140.489,118.107 140.823,121.774 140.5,125.5C 122.5,125.5 104.5,125.5 86.5,125.5 Z"/></g>
<g><path style="opacity:1" fill="#e07f44" d="M 71.5,113.5 C 75.3191,118.987 80.3191,122.987 86.5,125.5C 80.5,125.5 74.5,125.5 68.5,125.5C 68.1774,121.774 68.5108,118.107 69.5,114.5C 70.1835,114.137 70.8501,113.804 71.5,113.5 Z"/></g>
<g><path style="opacity:1" fill="#f7c753" d="M 312.5,156.5 C 301.753,154.46 292.42,149.793 284.5,142.5C 286.317,140.158 288.65,138.991 291.5,139C 296.51,142.507 301.843,145.507 307.5,148C 309.82,150.478 311.486,153.311 312.5,156.5 Z"/></g>
<g><path style="opacity:1" fill="#fad271" d="M 284.5,142.5 C 292.42,149.793 301.753,154.46 312.5,156.5C 314.398,165.369 313.398,174.036 309.5,182.5C 302.524,183.331 295.524,183.831 288.5,184C 283.564,187.958 283.231,192.291 287.5,197C 320.5,197.333 353.5,197.667 386.5,198C 391.143,200.072 392.643,203.572 391,208.5C 389.786,210.049 388.286,211.215 386.5,212C 348.833,212.333 311.167,212.667 273.5,213C 269.5,217.333 269.5,221.667 273.5,226C 279.5,226.333 285.5,226.667 291.5,227C 290.182,229.824 288.515,232.324 286.5,234.5C 264.869,231.892 243.203,229.558 221.5,227.5C 221.737,228.791 221.404,229.791 220.5,230.5C 224.08,214.007 230.914,199.007 241,185.5C 253.374,168.959 267.874,154.626 284.5,142.5 Z"/></g>
<g><path style="opacity:1" fill="#2dd4e2" d="M 417.5,197.5 C 426.839,197.334 436.173,197.5 445.5,198C 456.803,202.572 459.636,210.405 454,221.5C 452.048,223.894 449.548,225.394 446.5,226C 435.402,226.954 424.402,226.62 413.5,225C 405.811,218.507 404.644,211.007 410,202.5C 412.426,200.548 414.926,198.881 417.5,197.5 Z"/></g>
<g><path style="opacity:0.999" fill="#150f0a" d="M 23.5,211.5 C 39.1702,211.333 54.8369,211.5 70.5,212C 75.226,214.388 76.726,218.222 75,223.5C 73.992,225.259 72.492,226.426 70.5,227C 54.5,227.667 38.5,227.667 22.5,227C 17.4648,223.987 16.2981,219.82 19,214.5C 20.4087,213.219 21.9087,212.219 23.5,211.5 Z"/></g>
<g><path style="opacity:1" fill="#e9434c" d="M 414.5,243.5 C 414.5,244.833 414.5,246.167 414.5,247.5C 405.439,245.803 398.106,241.303 392.5,234C 390.19,233.503 387.857,233.337 385.5,233.5C 384.532,231.393 384.198,229.059 384.5,226.5C 387.865,226.745 391.032,226.078 394,224.5C 398.726,231.891 405.226,237.058 413.5,240C 414.337,241.011 414.67,242.178 414.5,243.5 Z"/></g>
<g><path style="opacity:1" fill="#c5845c" d="M 112.5,227.5 C 112.5,227.167 112.5,226.833 112.5,226.5C 133.833,226.5 155.167,226.5 176.5,226.5C 176.5,243.5 176.5,260.5 176.5,277.5C 176.167,277.5 175.833,277.5 175.5,277.5C 175.5,260.833 175.5,244.167 175.5,227.5C 154.5,227.5 133.5,227.5 112.5,227.5 Z"/></g>
<g><path style="opacity:1" fill="#e17f43" d="M 112.5,226.5 C 112.5,226.833 112.5,227.167 112.5,227.5C 117.166,252.669 131.832,268.835 156.5,276C 162.778,277.188 169.112,277.688 175.5,277.5C 175.833,277.5 176.167,277.5 176.5,277.5C 176.5,282.167 176.5,286.833 176.5,291.5C 152.5,291.5 128.5,291.5 104.5,291.5C 104.5,269.833 104.5,248.167 104.5,226.5C 107.167,226.5 109.833,226.5 112.5,226.5 Z"/></g>
<g><path style="opacity:1" fill="#e59a6b" d="M 112.5,227.5 C 133.5,227.5 154.5,227.5 175.5,227.5C 175.5,244.167 175.5,260.833 175.5,277.5C 169.112,277.688 162.778,277.188 156.5,276C 131.832,268.835 117.166,252.669 112.5,227.5 Z"/></g>
<g><path style="opacity:1" fill="#f5c143" d="M 286.5,234.5 C 284.569,239.896 280.736,241.896 275,240.5C 256.838,238.723 238.671,237.056 220.5,235.5C 220.5,233.833 220.5,232.167 220.5,230.5C 221.404,229.791 221.737,228.791 221.5,227.5C 243.203,229.558 264.869,231.892 286.5,234.5 Z"/></g>
<g><path style="opacity:1" fill="#ee5f68" d="M 385.5,233.5 C 387.857,233.337 390.19,233.503 392.5,234C 398.106,241.303 405.439,245.803 414.5,247.5C 414.5,246.167 414.5,244.833 414.5,243.5C 419.738,293.285 424.238,343.285 428,393.5C 429.122,395.624 430.622,397.457 432.5,399C 456.988,399.669 471.988,411.835 477.5,435.5C 367.499,435.667 257.499,435.5 147.5,435C 132.95,428.395 128.45,417.562 134,402.5C 140.763,384.695 147.597,367.028 154.5,349.5C 160.547,352.431 166.881,354.597 173.5,356C 203.833,356.667 234.167,356.667 264.5,356C 268.583,355.47 272.583,354.637 276.5,353.5C 276.5,352.167 276.5,350.833 276.5,349.5C 281.424,373.602 295.757,389.435 319.5,397C 351.577,403.71 375.077,392.544 390,363.5C 393.01,355.441 394.51,347.107 394.5,338.5C 391.754,303.47 388.754,268.47 385.5,233.5 Z"/></g>
<g><path style="opacity:1" fill="#140e0a" d="M 34.5,240.5 C 46.8378,240.333 59.1712,240.5 71.5,241C 73.3333,241.5 74.5,242.667 75,244.5C 77.2427,250.992 75.0761,254.825 68.5,256C 56.7751,256.912 45.1085,256.579 33.5,255C 30.6061,252.091 29.7728,248.591 31,244.5C 31.6897,242.65 32.8564,241.316 34.5,240.5 Z"/></g>
<g><path style="opacity:0.998" fill="#dd905a" d="M 344.5,377.5 C 338.491,377.666 332.491,377.499 326.5,377C 320.035,374.602 314.035,371.435 308.5,367.5C 305.163,354.817 301.829,342.15 298.5,329.5C 301.99,323.863 303.99,317.696 304.5,311C 303.808,301.288 298.808,294.955 289.5,292C 275.833,291.667 262.167,291.333 248.5,291C 227.854,284.883 218.187,271.049 219.5,249.5C 254.208,252.505 288.875,256.005 323.5,260C 334.558,263.72 340.225,271.387 340.5,283C 339.082,305.355 337.415,327.689 335.5,350C 335.505,360.2 338.505,369.367 344.5,377.5 Z"/></g>
<g><path style="opacity:1" fill="#0d0805" d="M 44.5,282.5 C 43.701,279.57 43.3677,276.57 43.5,273.5C 43.5743,271.589 44.5743,270.422 46.5,270C 54.8333,269.333 63.1667,269.333 71.5,270C 72.9308,270.465 74.0975,271.299 75,272.5C 76.2618,276.909 75.4285,280.743 72.5,284C 63.8333,284.667 55.1667,284.667 46.5,284C 45.5842,283.722 44.9175,283.222 44.5,282.5 Z"/></g>
<g><path style="opacity:0.176" fill="#9f6d44" d="M 43.5,273.5 C 43.3677,276.57 43.701,279.57 44.5,282.5C 42.9892,281.042 41.9892,279.209 41.5,277C 42.0848,275.698 42.7515,274.531 43.5,273.5 Z"/></g>
<g><path style="opacity:1" fill="#7a717b" d="M 152.5,305.5 C 197.168,305.333 241.835,305.5 286.5,306C 290.713,308.684 291.546,312.184 289,316.5C 283.197,326.16 274.697,331.993 263.5,334C 233.5,334.667 203.5,334.667 173.5,334C 161.701,330.53 153.367,323.197 148.5,312C 149.205,309.458 150.539,307.292 152.5,305.5 Z"/></g>
<g><path style="opacity:1" fill="#e4414b" d="M 276.5,349.5 C 276.5,350.833 276.5,352.167 276.5,353.5C 272.583,354.637 268.583,355.47 264.5,356C 234.167,356.667 203.833,356.667 173.5,356C 166.881,354.597 160.547,352.431 154.5,349.5C 154.673,346.821 155.673,344.487 157.5,342.5C 161.572,344.867 165.905,346.7 170.5,348C 202.167,348.667 233.833,348.667 265.5,348C 269.207,347.263 272.873,346.429 276.5,345.5C 276.5,346.833 276.5,348.167 276.5,349.5 Z"/></g>
<g><path style="opacity:1" fill="#010000" d="M 199.5,363.5 C 212.837,363.333 226.171,363.5 239.5,364C 247.333,366.5 252.5,371.667 255,379.5C 255.95,389.933 255.617,400.266 254,410.5C 253.167,411.333 252.333,412.167 251.5,413C 230.167,413.667 208.833,413.667 187.5,413C 185.951,411.786 184.785,410.286 184,408.5C 183.333,398.833 183.333,389.167 184,379.5C 186.685,371.65 191.852,366.316 199.5,363.5 Z"/></g>
<g><path style="opacity:1" fill="#d37634" d="M 308.5,367.5 C 314.035,371.435 320.035,374.602 326.5,377C 332.491,377.499 338.491,377.666 344.5,377.5C 346.34,379.168 348.34,380.668 350.5,382C 337.297,387.344 324.63,386.177 312.5,378.5C 311.575,377.643 310.908,376.643 310.5,375.5C 309.833,372.833 309.167,370.167 308.5,367.5 Z"/></g>
<g><path style="opacity:1" fill="#f4ce6e" d="M 119.5,377.5 C 122.167,377.5 124.833,377.5 127.5,377.5C 126.032,383.237 124.365,388.903 122.5,394.5C 116.474,392.792 114.307,388.792 116,382.5C 116.997,380.677 118.164,379.01 119.5,377.5 Z"/></g>
<g><path style="opacity:1" fill="#2cd5e3" d="M 240.5,382.5 C 240.5,387.833 240.5,393.167 240.5,398.5C 226.5,398.5 212.5,398.5 198.5,398.5C 198.5,393.167 198.5,387.833 198.5,382.5C 199.282,380.549 200.616,379.049 202.5,378C 213.833,377.333 225.167,377.333 236.5,378C 238.384,379.049 239.718,380.549 240.5,382.5 Z"/></g>
<g><path style="opacity:1" fill="#1da5b0" d="M 198.5,382.5 C 198.5,387.833 198.5,393.167 198.5,398.5C 212.5,398.5 226.5,398.5 240.5,398.5C 240.5,393.167 240.5,387.833 240.5,382.5C 241.489,387.975 241.822,393.642 241.5,399.5C 226.833,399.5 212.167,399.5 197.5,399.5C 197.178,393.642 197.511,387.975 198.5,382.5 Z"/></g>
<g><path style="opacity:1" fill="#ca9f37" d="M 400.5,450.5 C 423.67,449.171 447.003,449.171 470.5,450.5C 470.376,451.107 470.043,451.44 469.5,451.5C 446.673,450.502 423.673,450.169 400.5,450.5 Z"/></g>
<g><path style="opacity:1" fill="#f7c345" d="M 216.5,457.5 C 195.167,457.5 173.833,457.5 152.5,457.5C 151.058,455.46 150.058,453.127 149.5,450.5C 172.833,449.167 196.167,449.167 219.5,450.5C 218.942,453.127 217.942,455.46 216.5,457.5 Z"/></g>
<g><path style="opacity:1" fill="#fdc847" d="M 400.5,450.5 C 423.673,450.169 446.673,450.502 469.5,451.5C 469.405,453.786 468.738,455.786 467.5,457.5C 446.167,457.5 424.833,457.5 403.5,457.5C 401.935,455.491 400.935,453.157 400.5,450.5 Z"/></g>
<g><path style="opacity:1" fill="#fbd472" d="M 152.5,457.5 C 173.833,457.5 195.167,457.5 216.5,457.5C 209.851,471.422 198.684,478.422 183,478.5C 168.827,477.137 158.66,470.137 152.5,457.5 Z"/></g>
<g><path style="opacity:1" fill="#fbd472" d="M 403.5,457.5 C 424.833,457.5 446.167,457.5 467.5,457.5C 459.375,473.232 446.375,480.066 428.5,478C 416.653,475.309 408.32,468.475 403.5,457.5 Z"/></g>
<g><path style="opacity:0.012" fill="#5e595f" d="M 416.5,489.5 C 420.397,490.055 424.063,491.055 427.5,492.5C 423.43,492.568 419.763,491.568 416.5,489.5 Z"/></g>
<g><path style="opacity:0.674" fill="#746c74" d="M 196.5,491.5 C 192.761,492.922 188.761,493.589 184.5,493.5C 181.975,493.497 179.641,493.163 177.5,492.5C 183.857,492.524 190.19,492.19 196.5,491.5 Z"/></g>
<g><path style="opacity:0.826" fill="#766d77" d="M 448.5,491.5 C 444.426,492.954 440.093,493.621 435.5,493.5C 432.645,493.497 429.978,493.164 427.5,492.5C 434.515,492.422 441.515,492.089 448.5,491.5 Z"/></g>
</svg>
