<?xml version="1.0" encoding="UTF-8"?>
<!DOCTYPE svg PUBLIC "-//W3C//DTD SVG 1.1//EN" "http://www.w3.org/Graphics/SVG/1.1/DTD/svg11.dtd">
<svg xmlns="http://www.w3.org/2000/svg" version="1.1" width="512px" height="512px" style="shape-rendering:geometricPrecision; text-rendering:geometricPrecision; image-rendering:optimizeQuality; fill-rule:evenodd; clip-rule:evenodd" xmlns:xlink="http://www.w3.org/1999/xlink">
<g><path style="opacity:0.973" fill="#030202" d="M 391.5,-0.5 C 401.167,-0.5 410.833,-0.5 420.5,-0.5C 436.748,1.86372 451.581,7.86372 465,17.5C 466.719,20.4543 466.885,23.4543 465.5,26.5C 462.66,29.1428 459.327,29.9761 455.5,29C 443.503,21.612 430.503,17.112 416.5,15.5C 372.392,12.3002 340.892,30.6335 322,70.5C 315.94,85.6308 313.94,101.297 316,117.5C 318.666,129.165 322.333,140.498 327,151.5C 329.548,164.931 327.382,177.597 320.5,189.5C 320.833,189.833 321.167,190.167 321.5,190.5C 333.314,183.253 345.981,181.087 359.5,184C 373.652,191.121 388.652,194.955 404.5,195.5C 408.525,195.332 412.525,194.999 416.5,194.5C 460.623,186.545 487.123,160.545 496,116.5C 498.197,99.8219 495.863,83.8219 489,68.5C 485.239,61.3051 481.239,54.3051 477,47.5C 476.333,45.8333 476.333,44.1667 477,42.5C 478.481,41.5291 479.315,40.1958 479.5,38.5C 481.06,38.4809 482.56,38.1476 484,37.5C 489.566,39.3974 493.566,43.064 496,48.5C 503.867,61.61 509.033,75.61 511.5,90.5C 511.5,100.167 511.5,109.833 511.5,119.5C 502.507,165.332 475.507,194.832 430.5,208C 416.243,210.651 401.909,211.151 387.5,209.5C 387.167,261.504 387.5,313.504 388.5,365.5C 403.867,367.701 412.201,376.534 413.5,392C 412.446,404.478 406.113,412.811 394.5,417C 360.833,417.333 327.167,417.667 293.5,418C 275.432,418.214 258.099,421.88 241.5,429C 227.323,436.589 212.99,443.922 198.5,451C 194.59,452.041 191.59,450.875 189.5,447.5C 187.941,444.13 188.274,440.964 190.5,438C 207.801,428.851 225.134,420.017 242.5,411.5C 255.512,407.275 268.845,404.441 282.5,403C 312.498,402.5 342.498,402.333 372.5,402.5C 378.509,402.666 384.509,402.499 390.5,402C 397.85,397.752 399.35,391.919 395,384.5C 393.581,383.54 392.081,382.707 390.5,382C 384.509,381.501 378.509,381.334 372.5,381.5C 315.166,381.667 257.832,381.5 200.5,381C 196.721,379.623 194.054,377.123 192.5,373.5C 191.063,368.797 191.229,364.13 193,359.5C 204.388,344.445 215.388,329.112 226,313.5C 227.298,302.128 222.464,297.961 211.5,301C 208.629,303.703 205.962,306.536 203.5,309.5C 185.165,328.337 167.331,347.67 150,367.5C 143.745,373.759 136.912,379.259 129.5,384C 111.383,394.058 92.7165,403.058 73.5,411C 53.9614,414.734 34.2947,417.567 14.5,419.5C 14.1669,444.842 14.5002,470.175 15.5,495.5C 40.175,491.594 64.8417,487.594 89.5,483.5C 98.1111,482.43 106.444,480.264 114.5,477C 130.01,468.745 145.677,460.745 161.5,453C 166.128,451.663 169.795,452.83 172.5,456.5C 173.382,460.909 172.048,464.409 168.5,467C 152.011,475.078 135.677,483.411 119.5,492C 111.085,495.27 102.419,497.604 93.5,499C 67.6267,502.765 41.96,506.932 16.5,511.5C 12.5,511.5 8.5,511.5 4.5,511.5C 2.5,510.167 0.833333,508.5 -0.5,506.5C -0.5,474.5 -0.5,442.5 -0.5,410.5C 1.47037,407.173 4.47037,405.339 8.5,405C 24.5006,403 40.5006,401 56.5,399C 61.4666,398.383 66.2999,397.217 71,395.5C 88.6643,387.751 105.831,379.085 122.5,369.5C 123.333,330.838 123.833,292.171 124,253.5C 124.863,249.482 127.363,247.482 131.5,247.5C 135.024,248.018 137.357,250.018 138.5,253.5C 138.167,287.84 138.5,322.173 139.5,356.5C 140.107,356.376 140.44,356.043 140.5,355.5C 160.329,334.17 179.996,312.67 199.5,291C 212.94,281.525 225.44,282.692 237,294.5C 242.202,303.126 242.869,312.126 239,321.5C 228.614,335.713 218.447,350.046 208.5,364.5C 207.957,364.56 207.624,364.893 207.5,365.5C 262.332,366.831 316.998,366.831 371.5,365.5C 371.833,311.829 371.5,258.163 370.5,204.5C 364.817,201.494 358.817,199.494 352.5,198.5C 349.024,197.357 345.358,197.19 341.5,198C 331.752,201.805 322.086,205.805 312.5,210C 303.578,210.707 299.745,206.54 301,197.5C 306.748,186.517 310.915,175.017 313.5,163C 313.418,159.765 312.918,156.598 312,153.5C 306.317,141.434 302.817,128.767 301.5,115.5C 251.166,115.333 200.832,115.5 150.5,116C 146.494,135.366 142.994,154.866 140,174.5C 139.667,190.167 139.333,205.833 139,221.5C 137.692,225.062 135.192,227.062 131.5,227.5C 127.91,227.456 125.41,225.789 124,222.5C 123.179,205.142 123.513,187.808 125,170.5C 127.782,152.926 130.948,135.426 134.5,118C 131.747,115.938 128.914,113.771 126,111.5C 124.561,109.725 123.561,107.725 123,105.5C 122.333,90.8333 122.333,76.1667 123,61.5C 124.5,56 128,52.5 133.5,51C 194.169,50.8333 254.836,50.3333 315.5,49.5C 333.207,21.3086 358.541,4.64194 391.5,-0.5 Z"/></g>
<g><path style="opacity:1" fill="#7dd9af" d="M 416.5,15.5 C 460.393,38.6157 478.893,74.9491 472,124.5C 464.365,156.616 445.865,179.95 416.5,194.5C 412.525,194.999 408.525,195.332 404.5,195.5C 388.652,194.955 373.652,191.121 359.5,184C 345.981,181.087 333.314,183.253 321.5,190.5C 321.167,190.167 320.833,189.833 320.5,189.5C 327.382,177.597 329.548,164.931 327,151.5C 322.333,140.498 318.666,129.165 316,117.5C 313.94,101.297 315.94,85.6308 322,70.5C 340.892,30.6335 372.392,12.3002 416.5,15.5 Z"/></g>
<g><path style="opacity:1" fill="#50d19c" d="M 416.5,15.5 C 430.503,17.112 443.503,21.612 455.5,29C 459.327,29.9761 462.66,29.1428 465.5,26.5C 470.461,30.1256 475.128,34.1256 479.5,38.5C 479.315,40.1958 478.481,41.5291 477,42.5C 476.333,44.1667 476.333,45.8333 477,47.5C 481.239,54.3051 485.239,61.3051 489,68.5C 495.863,83.8219 498.197,99.8219 496,116.5C 487.123,160.545 460.623,186.545 416.5,194.5C 445.865,179.95 464.365,156.616 472,124.5C 478.893,74.9491 460.393,38.6157 416.5,15.5 Z"/></g>
<g><path style="opacity:1" fill="#df915a" d="M 138.5,66.5 C 194.837,66.1667 251.171,66.5 307.5,67.5C 303.11,78.0609 300.777,89.0609 300.5,100.5C 246.5,100.5 192.5,100.5 138.5,100.5C 138.5,89.1667 138.5,77.8333 138.5,66.5 Z"/></g>
<g><path style="opacity:1" fill="#030504" d="M 451.5,70.5 C 461.148,69.4803 464.315,73.4803 461,82.5C 438.406,102.549 415.906,122.716 393.5,143C 390.366,143.79 387.366,143.457 384.5,142C 372.946,130.446 361.446,118.946 350,107.5C 348.471,100.369 351.304,96.8689 358.5,97C 369.102,105.6 379.102,114.933 388.5,125C 389.5,125.667 390.5,125.667 391.5,125C 411.695,106.968 431.695,88.8009 451.5,70.5 Z"/></g>
<g><path style="opacity:1" fill="#e3996a" d="M 352.5,198.5 C 351.5,198.5 350.5,198.5 349.5,198.5C 349.5,254.167 349.5,309.833 349.5,365.5C 302.33,365.832 255.33,365.499 208.5,364.5C 218.447,350.046 228.614,335.713 239,321.5C 242.869,312.126 242.202,303.126 237,294.5C 225.44,282.692 212.94,281.525 199.5,291C 179.996,312.67 160.329,334.17 140.5,355.5C 139.833,321.5 139.167,287.5 138.5,253.5C 137.357,250.018 135.024,248.018 131.5,247.5C 131.5,240.833 131.5,234.167 131.5,227.5C 135.192,227.062 137.692,225.062 139,221.5C 139.333,205.833 139.667,190.167 140,174.5C 142.994,154.866 146.494,135.366 150.5,116C 200.832,115.5 251.166,115.333 301.5,115.5C 302.817,128.767 306.317,141.434 312,153.5C 312.918,156.598 313.418,159.765 313.5,163C 310.915,175.017 306.748,186.517 301,197.5C 299.745,206.54 303.578,210.707 312.5,210C 322.086,205.805 331.752,201.805 341.5,198C 345.358,197.19 349.024,197.357 352.5,198.5 Z"/></g>
<g><path style="opacity:1" fill="#df915a" d="M 352.5,198.5 C 358.817,199.494 364.817,201.494 370.5,204.5C 371.5,258.163 371.833,311.829 371.5,365.5C 364.167,365.5 356.833,365.5 349.5,365.5C 349.5,309.833 349.5,254.167 349.5,198.5C 350.5,198.5 351.5,198.5 352.5,198.5 Z"/></g>
<g><path style="opacity:1" fill="#3a271b" d="M 138.5,253.5 C 139.167,287.5 139.833,321.5 140.5,355.5C 140.44,356.043 140.107,356.376 139.5,356.5C 138.5,322.173 138.167,287.84 138.5,253.5 Z"/></g>
<g><path style="opacity:1" fill="#fcbcab" d="M 192.5,373.5 C 185.492,373.666 178.492,373.5 171.5,373C 168.277,369.888 167.777,366.388 170,362.5C 180.333,348.5 190.667,334.5 201,320.5C 203.484,316.957 204.317,313.29 203.5,309.5C 205.962,306.536 208.629,303.703 211.5,301C 222.464,297.961 227.298,302.128 226,313.5C 215.388,329.112 204.388,344.445 193,359.5C 191.229,364.13 191.063,368.797 192.5,373.5 Z"/></g>
<g><path style="opacity:1" fill="#fed7c9" d="M 203.5,309.5 C 204.317,313.29 203.484,316.957 201,320.5C 190.667,334.5 180.333,348.5 170,362.5C 167.777,366.388 168.277,369.888 171.5,373C 178.492,373.5 185.492,373.666 192.5,373.5C 194.054,377.123 196.721,379.623 200.5,381C 257.832,381.5 315.166,381.667 372.5,381.5C 376.492,388.463 376.492,395.463 372.5,402.5C 342.498,402.333 312.498,402.5 282.5,403C 268.845,404.441 255.512,407.275 242.5,411.5C 230.388,413.482 218.721,416.982 207.5,422C 167.948,442.274 128.615,462.774 89.5,483.5C 64.8417,487.594 40.175,491.594 15.5,495.5C 14.5002,470.175 14.1669,444.842 14.5,419.5C 34.2947,417.567 53.9614,414.734 73.5,411C 92.7165,403.058 111.383,394.058 129.5,384C 136.912,379.259 143.745,373.759 150,367.5C 167.331,347.67 185.165,328.337 203.5,309.5 Z"/></g>
<g><path style="opacity:1" fill="#b57a54" d="M 208.5,364.5 C 255.33,365.499 302.33,365.832 349.5,365.5C 356.833,365.5 364.167,365.5 371.5,365.5C 316.998,366.831 262.332,366.831 207.5,365.5C 207.624,364.893 207.957,364.56 208.5,364.5 Z"/></g>
<g><path style="opacity:1" fill="#fcbcab" d="M 372.5,381.5 C 378.509,381.334 384.509,381.501 390.5,382C 392.081,382.707 393.581,383.54 395,384.5C 399.35,391.919 397.85,397.752 390.5,402C 384.509,402.499 378.509,402.666 372.5,402.5C 376.492,395.463 376.492,388.463 372.5,381.5 Z"/></g>
<g><path style="opacity:1" fill="#fabbaa" d="M 242.5,411.5 C 225.134,420.017 207.801,428.851 190.5,438C 188.274,440.964 187.941,444.13 189.5,447.5C 183.64,450.262 177.974,453.262 172.5,456.5C 169.795,452.83 166.128,451.663 161.5,453C 145.677,460.745 130.01,468.745 114.5,477C 106.444,480.264 98.1111,482.43 89.5,483.5C 128.615,462.774 167.948,442.274 207.5,422C 218.721,416.982 230.388,413.482 242.5,411.5 Z"/></g>
</svg>
