<?xml version="1.0" encoding="UTF-8"?>
<!DOCTYPE svg PUBLIC "-//W3C//DTD SVG 1.1//EN" "http://www.w3.org/Graphics/SVG/1.1/DTD/svg11.dtd">
<svg xmlns="http://www.w3.org/2000/svg" version="1.1" width="710px" height="351px" style="shape-rendering:geometricPrecision; text-rendering:geometricPrecision; image-rendering:optimizeQuality; fill-rule:evenodd; clip-rule:evenodd" xmlns:xlink="http://www.w3.org/1999/xlink">
<g><path style="opacity:1" fill="#29a9df" d="M 6.5,128.5 C 5.72062,125.455 4.38729,122.789 2.5,120.5C 2.33338,100.831 2.50005,81.1638 3,61.5C 4.08359,60.3349 4.91692,59.0016 5.5,57.5C 20.4852,56.5007 35.4852,56.1673 50.5,56.5C 50.6666,77.5026 50.5,98.5026 50,119.5C 48.8372,121.285 48.1705,123.285 48,125.5C 47.6667,125.167 47.3333,124.833 47,124.5C 45.5334,127.941 43.7,131.107 41.5,134C 37.1304,134.561 32.6304,135.394 28,136.5C 22.7121,136.918 18.0454,135.585 14,132.5C 13.228,132.645 12.5613,132.978 12,133.5C 10.2962,131.627 8.46283,129.96 6.5,128.5 Z"/></g>
<g><path style="opacity:1" fill="#27a9df" d="M 247.5,120.5 C 247.5,121.5 247.5,122.5 247.5,123.5C 243.833,129.167 239.167,133.833 233.5,137.5C 225.288,137.926 217.288,136.926 209.5,134.5C 207.833,132.167 205.833,130.167 203.5,128.5C 202.736,125.982 201.736,123.649 200.5,121.5C 200.5,99.8333 200.5,78.1667 200.5,56.5C 216.167,56.5 231.833,56.5 247.5,56.5C 247.5,77.8333 247.5,99.1667 247.5,120.5 Z"/></g>
<g><path style="opacity:1" fill="#b5674f" d="M 99.5,55.5 C 100.488,76.7579 100.822,98.0912 100.5,119.5C 99.5655,120.568 99.2322,121.901 99.5,123.5C 99.1667,123.5 98.8333,123.5 98.5,123.5C 98.5,101.167 98.5,78.8333 98.5,56.5C 83.5,56.5 68.5,56.5 53.5,56.5C 53.5,78.1667 53.5,99.8333 53.5,121.5C 52.6618,121.158 52.3284,120.492 52.5,119.5C 52.5,98.1667 52.5,76.8333 52.5,55.5C 68.1667,55.5 83.8333,55.5 99.5,55.5 Z"/></g>
<g><path style="opacity:1" fill="#3c7c9f" d="M 3.5,55.5 C 19.5,55.5 35.5,55.5 51.5,55.5C 51.5,76.8333 51.5,98.1667 51.5,119.5C 51.3713,121.216 51.038,122.883 50.5,124.5C 47.368,131.629 42.0346,136.296 34.5,138.5C 28.0133,138.848 21.6799,138.182 15.5,136.5C 11.2329,135.232 8.23292,132.565 6.5,128.5C 8.46283,129.96 10.2962,131.627 12,133.5C 12.5613,132.978 13.228,132.645 14,132.5C 18.0454,135.585 22.7121,136.918 28,136.5C 32.6304,135.394 37.1304,134.561 41.5,134C 43.7,131.107 45.5334,127.941 47,124.5C 47.3333,124.833 47.6667,125.167 48,125.5C 48.1705,123.285 48.8372,121.285 50,119.5C 50.5,98.5026 50.6666,77.5026 50.5,56.5C 35.4852,56.1673 20.4852,56.5007 5.5,57.5C 4.91692,59.0016 4.08359,60.3349 3,61.5C 2.50005,81.1638 2.33338,100.831 2.5,120.5C 1.33726,99.3373 1.17059,78.004 2,56.5C 2.38258,55.944 2.88258,55.6107 3.5,55.5 Z"/></g>
<g><path style="opacity:0.445" fill="#1c384f" d="M 248.5,55.5 C 249.29,56.6085 249.79,57.9419 250,59.5C 250.667,78.5 250.667,97.5 250,116.5C 249.844,119.191 249.011,121.524 247.5,123.5C 247.5,122.5 247.5,121.5 247.5,120.5C 248.497,99.0064 248.831,77.3398 248.5,55.5 Z"/></g>
<g><path style="opacity:1" fill="#cc6a47" d="M 196.5,56.5 C 196.833,56.5 197.167,56.5 197.5,56.5C 198.497,76.9933 198.831,97.6599 198.5,118.5C 198.167,120.5 197.833,122.5 197.5,124.5C 197.167,124.5 196.833,124.5 196.5,124.5C 196.5,101.833 196.5,79.1667 196.5,56.5 Z"/></g>
<g><path style="opacity:1" fill="#668da9" d="M 99.5,55.5 C 116.167,55.5 132.833,55.5 149.5,55.5C 149.5,76.5 149.5,97.5 149.5,118.5C 149.672,119.492 149.338,120.158 148.5,120.5C 148.5,99.1667 148.5,77.8333 148.5,56.5C 133.152,56.1673 117.819,56.5006 102.5,57.5C 101.512,78.1207 101.178,98.7874 101.5,119.5C 101.167,119.5 100.833,119.5 100.5,119.5C 100.822,98.0912 100.488,76.7579 99.5,55.5 Z"/></g>
<g><path style="opacity:1" fill="#c05b41" d="M 197.5,56.5 C 197.167,56.5 196.833,56.5 196.5,56.5C 181.818,56.1674 167.152,56.5007 152.5,57.5C 151.173,78.6275 151.173,99.6275 152.5,120.5C 152.5,121.5 152.5,122.5 152.5,123.5C 151.069,122.22 150.402,120.553 150.5,118.5C 150.5,97.5 150.5,76.5 150.5,55.5C 166.342,55.1704 182.009,55.5037 197.5,56.5 Z"/></g>
<g><path style="opacity:0.888" fill="#3c93bc" d="M 248.5,55.5 C 248.831,77.3398 248.497,99.0064 247.5,120.5C 247.5,99.1667 247.5,77.8333 247.5,56.5C 231.833,56.5 216.167,56.5 200.5,56.5C 200.5,78.1667 200.5,99.8333 200.5,121.5C 199.596,120.791 199.263,119.791 199.5,118.5C 199.5,97.5 199.5,76.5 199.5,55.5C 215.833,55.5 232.167,55.5 248.5,55.5 Z"/></g>
<g><path style="opacity:1" fill="#5e5c67" d="M 3.5,55.5 C 85.1667,54.1667 166.833,54.1667 248.5,55.5C 232.167,55.5 215.833,55.5 199.5,55.5C 199.5,76.5 199.5,97.5 199.5,118.5C 199.167,118.5 198.833,118.5 198.5,118.5C 198.831,97.6599 198.497,76.9933 197.5,56.5C 182.009,55.5037 166.342,55.1704 150.5,55.5C 150.5,76.5 150.5,97.5 150.5,118.5C 150.167,118.5 149.833,118.5 149.5,118.5C 149.5,97.5 149.5,76.5 149.5,55.5C 132.833,55.5 116.167,55.5 99.5,55.5C 83.8333,55.5 68.1667,55.5 52.5,55.5C 52.5,76.8333 52.5,98.1667 52.5,119.5C 52.1667,119.5 51.8333,119.5 51.5,119.5C 51.5,98.1667 51.5,76.8333 51.5,55.5C 35.5,55.5 19.5,55.5 3.5,55.5 Z"/></g>
<g><path style="opacity:1" fill="#ee5a25" d="M 196.5,56.5 C 196.5,79.1667 196.5,101.833 196.5,124.5C 195.89,125.391 195.557,126.391 195.5,127.5C 191.533,131.817 186.866,135.15 181.5,137.5C 174.681,137.871 168.014,137.205 161.5,135.5C 157.731,132.066 154.731,128.066 152.5,123.5C 152.5,122.5 152.5,121.5 152.5,120.5C 151.173,99.6275 151.173,78.6275 152.5,57.5C 167.152,56.5007 181.818,56.1674 196.5,56.5 Z"/></g>
<g><path style="opacity:1" fill="#f9561b" d="M 152.5,120.5 C 152.333,100.164 152.5,79.8306 153,59.5C 154.849,58.4392 156.849,57.7725 159,57.5C 171.1,59.3626 183.267,59.6959 195.5,58.5C 195.667,77.5029 195.5,96.5029 195,115.5C 194.333,114.833 193.667,114.167 193,113.5C 189.333,114.833 185.667,114.833 182,113.5C 180.933,114.191 179.766,114.691 178.5,115C 179.604,116.131 179.271,116.965 177.5,117.5C 170.41,114.325 163.077,113.825 155.5,116C 157.36,119.946 156.36,121.446 152.5,120.5 Z"/></g>
<g><path style="opacity:1" fill="#2aa7de" d="M 148.5,120.5 C 148.6,123.108 147.933,125.442 146.5,127.5C 144.811,128.931 142.811,129.764 140.5,130C 141.487,132.552 140.487,134.052 137.5,134.5C 133.724,136.003 129.057,136.669 123.5,136.5C 120.5,136.167 117.5,135.833 114.5,135.5C 113.05,134.15 112.383,132.484 112.5,130.5C 109.549,130.713 106.882,130.046 104.5,128.5C 104.5,128.167 104.5,127.833 104.5,127.5C 103.448,124.807 102.448,122.14 101.5,119.5C 101.178,98.7874 101.512,78.1207 102.5,57.5C 117.819,56.5006 133.152,56.1673 148.5,56.5C 148.5,77.8333 148.5,99.1667 148.5,120.5 Z"/></g>
<g><path style="opacity:1" fill="#18a6e9" d="M 102.5,59.5 C 117.037,59.4416 131.537,59.775 146,60.5C 147.518,78.8068 147.851,97.1401 147,115.5C 146,112.5 145,109.5 144,106.5C 142.883,107.949 142.216,109.616 142,111.5C 141.395,109.519 140.395,109.185 139,110.5C 136.962,108.928 134.629,107.928 132,107.5C 130,113.451 126.834,114.451 122.5,110.5C 117.523,111.683 112.357,111.35 107,109.5C 105.577,111.345 104.41,113.345 103.5,115.5C 102.5,96.8452 102.167,78.1786 102.5,59.5 Z"/></g>
<g><path style="opacity:1" fill="#ed5b25" d="M 98.5,123.5 C 96.2134,128.108 93.2134,132.108 89.5,135.5C 86.5,136.167 83.5,136.833 80.5,137.5C 74.3781,136.938 68.3781,135.938 62.5,134.5C 58.7356,130.618 55.7356,126.285 53.5,121.5C 53.5,99.8333 53.5,78.1667 53.5,56.5C 68.5,56.5 83.5,56.5 98.5,56.5C 98.5,78.8333 98.5,101.167 98.5,123.5 Z"/></g>
<g><path style="opacity:1" fill="#fb551c" d="M 96.5,59.5 C 97.6618,76.6618 97.8285,93.9951 97,111.5C 95.883,112.949 95.2163,114.616 95,116.5C 91.8835,117.963 88.7168,118.296 85.5,117.5C 78.6331,119.989 71.7997,119.989 65,117.5C 62.7194,118.776 60.7194,120.443 59,122.5C 56.8899,119.508 55.5566,116.175 55,112.5C 54.5001,96.1701 54.3334,79.8367 54.5,63.5C 68.7064,62.8033 82.7064,61.4699 96.5,59.5 Z"/></g>
<g><path style="opacity:0.639" fill="#3f2221" d="M 51.5,119.5 C 51.8333,119.5 52.1667,119.5 52.5,119.5C 52.3284,120.492 52.6618,121.158 53.5,121.5C 55.7356,126.285 58.7356,130.618 62.5,134.5C 60.2843,133.797 58.451,132.464 57,130.5C 55.5787,127.991 53.9121,125.657 52,123.5C 51.6174,124.056 51.1174,124.389 50.5,124.5C 51.038,122.883 51.3713,121.216 51.5,119.5 Z"/></g>
<g><path style="opacity:0.063" fill="#201e28" d="M 100.5,119.5 C 100.833,119.5 101.167,119.5 101.5,119.5C 102.448,122.14 103.448,124.807 104.5,127.5C 102.821,126.084 101.154,124.75 99.5,123.5C 99.2322,121.901 99.5655,120.568 100.5,119.5 Z"/></g>
<g><path style="opacity:0.749" fill="#1e3649" d="M 198.5,118.5 C 198.833,118.5 199.167,118.5 199.5,118.5C 199.263,119.791 199.596,120.791 200.5,121.5C 201.736,123.649 202.736,125.982 203.5,128.5C 201.777,126.747 200.277,124.747 199,122.5C 198.722,123.416 198.222,124.082 197.5,124.5C 197.833,122.5 198.167,120.5 198.5,118.5 Z"/></g>
<g><path style="opacity:0.251" fill="#1b3a51" d="M 2.5,120.5 C 4.38729,122.789 5.72062,125.455 6.5,128.5C 4.12695,126.421 2.79362,123.754 2.5,120.5 Z"/></g>
<g><path style="opacity:0.114" fill="#26161c" d="M 196.5,124.5 C 196.833,124.5 197.167,124.5 197.5,124.5C 197.573,126.027 196.906,127.027 195.5,127.5C 195.557,126.391 195.89,125.391 196.5,124.5 Z"/></g>
<g><path style="opacity:0.345" fill="#372021" d="M 149.5,118.5 C 149.833,118.5 150.167,118.5 150.5,118.5C 150.402,120.553 151.069,122.22 152.5,123.5C 154.731,128.066 157.731,132.066 161.5,135.5C 156.876,132.876 153.209,129.209 150.5,124.5C 149.148,125.524 147.815,126.524 146.5,127.5C 147.933,125.442 148.6,123.108 148.5,120.5C 149.338,120.158 149.672,119.492 149.5,118.5 Z"/></g>
<g><path style="opacity:0.071" fill="#132c40" d="M 203.5,128.5 C 205.833,130.167 207.833,132.167 209.5,134.5C 206.5,133.5 204.5,131.5 203.5,128.5 Z"/></g>
<g><path style="opacity:0.014" fill="#101d2c" d="M 247.5,123.5 C 246.545,125.746 245.878,128.079 245.5,130.5C 247.099,130.232 248.432,130.566 249.5,131.5C 246.941,131.198 244.607,131.532 242.5,132.5C 242.5,134.167 242.5,135.833 242.5,137.5C 241.685,136.571 240.852,135.571 240,134.5C 238.007,135.914 235.84,136.914 233.5,137.5C 239.167,133.833 243.833,129.167 247.5,123.5 Z"/></g>
<g><path style="opacity:0.355" fill="#56410c" d="M 242.5,132.5 C 244.607,131.532 246.941,131.198 249.5,131.5C 260.5,131.5 271.5,131.5 282.5,131.5C 282.817,135.702 282.483,139.702 281.5,143.5C 281.5,139.833 281.5,136.167 281.5,132.5C 268.5,132.5 255.5,132.5 242.5,132.5 Z"/></g>
<g><path style="opacity:0.861" fill="#886216" d="M 340.5,161.5 C 340.306,163.912 338.973,164.912 336.5,164.5C 336.5,153.167 336.5,141.833 336.5,130.5C 333.167,130.5 329.833,130.5 326.5,130.5C 326.5,149.5 326.5,168.5 326.5,187.5C 330.167,187.5 333.833,187.5 337.5,187.5C 333.434,188.822 329.267,188.822 325,187.5C 324.5,168.17 324.333,148.836 324.5,129.5C 329.179,129.334 333.845,129.501 338.5,130C 338.765,140.759 338.432,151.593 337.5,162.5C 337.667,162.833 337.833,163.167 338,163.5C 338.708,162.619 339.542,161.953 340.5,161.5 Z"/></g>
<g><path style="opacity:1" fill="#efac07" d="M 340.5,161.5 C 342.833,158.5 345.5,155.833 348.5,153.5C 353.695,153.179 358.695,153.513 363.5,154.5C 359.41,160.095 354.744,165.261 349.5,170C 349.728,170.399 350.062,170.565 350.5,170.5C 354.439,176.108 359.106,181.108 364.5,185.5C 366.332,186.14 366.665,187.14 365.5,188.5C 360.612,188.477 355.612,188.31 350.5,188C 346.333,183.833 342.167,179.667 338,175.5C 338.756,179.511 338.59,183.511 337.5,187.5C 333.833,187.5 330.167,187.5 326.5,187.5C 326.5,168.5 326.5,149.5 326.5,130.5C 329.833,130.5 333.167,130.5 336.5,130.5C 336.5,141.833 336.5,153.167 336.5,164.5C 338.973,164.912 340.306,163.912 340.5,161.5 Z"/></g>
<g><path style="opacity:0.327" fill="#342812" d="M 550.5,132.5 C 546.167,132.5 541.833,132.5 537.5,132.5C 537.5,150.833 537.5,169.167 537.5,187.5C 536.172,168.996 536.172,150.329 537.5,131.5C 538.293,131.069 539.127,130.735 540,130.5C 544.238,131.009 547.738,131.676 550.5,132.5 Z"/></g>
<g><path style="opacity:0.071" fill="#381f1e" d="M 98.5,123.5 C 98.8333,123.5 99.1667,123.5 99.5,123.5C 97.9601,129.036 94.6268,133.036 89.5,135.5C 93.2134,132.108 96.2134,128.108 98.5,123.5 Z"/></g>
<g><path style="opacity:0.094" fill="#3a2020" d="M 195.5,127.5 C 192.599,133.4 187.932,137.067 181.5,138.5C 181.5,138.167 181.5,137.833 181.5,137.5C 186.866,135.15 191.533,131.817 195.5,127.5 Z"/></g>
<g><path style="opacity:0.036" fill="#2d2411" d="M 454.5,132.5 C 446.5,132.5 438.5,132.5 430.5,132.5C 430.5,150.833 430.5,169.167 430.5,187.5C 429.338,169.005 429.171,150.338 430,131.5C 430.414,131.043 430.914,130.709 431.5,130.5C 439.296,131.137 446.963,131.804 454.5,132.5 Z"/></g>
<g><path style="opacity:1" fill="#f0ad07" d="M 454.5,132.5 C 456.553,132.402 458.22,133.069 459.5,134.5C 459.81,136.144 460.81,137.144 462.5,137.5C 462.427,139.027 463.094,140.027 464.5,140.5C 467.015,147.553 465.348,153.386 459.5,158C 461.058,158.21 462.391,158.71 463.5,159.5C 464.326,161.264 465.659,162.598 467.5,163.5C 467.427,165.027 468.094,166.027 469.5,166.5C 470.854,170.842 470.688,175.176 469,179.5C 467.594,182.409 465.428,184.409 462.5,185.5C 460.447,185.402 458.78,186.069 457.5,187.5C 448.402,188.815 439.402,188.815 430.5,187.5C 430.5,169.167 430.5,150.833 430.5,132.5C 438.5,132.5 446.5,132.5 454.5,132.5 Z M 449.5,143.5 C 453.153,149.89 451.153,153.224 443.5,153.5C 443.5,149.833 443.5,146.167 443.5,142.5C 445.565,142.517 447.565,142.85 449.5,143.5 Z M 453.5,166.5 C 453.833,167.5 454.5,168.167 455.5,168.5C 455.756,170.792 455.423,172.959 454.5,175C 451.013,176.622 447.346,177.455 443.5,177.5C 443.5,173.5 443.5,169.5 443.5,165.5C 446.86,165.616 450.193,165.949 453.5,166.5 Z"/></g>
<g><path style="opacity:1" fill="#e5a60a" d="M 242.5,132.5 C 255.5,132.5 268.5,132.5 281.5,132.5C 281.5,136.167 281.5,139.833 281.5,143.5C 277.767,144.821 273.934,144.821 270,143.5C 269.667,158.167 269.333,172.833 269,187.5C 264.599,188.467 260.099,188.8 255.5,188.5C 255.833,173.485 255.499,158.485 254.5,143.5C 250.558,144.6 246.558,144.767 242.5,144C 242.216,142.044 242.216,139.877 242.5,137.5C 242.5,135.833 242.5,134.167 242.5,132.5 Z"/></g>
<g><path style="opacity:1" fill="#f3af04" d="M 550.5,132.5 C 550.5,139.5 550.5,146.5 550.5,153.5C 556.31,154.49 562.31,154.823 568.5,154.5C 568.5,147.167 568.5,139.833 568.5,132.5C 572.5,132.5 576.5,132.5 580.5,132.5C 580.5,150.833 580.5,169.167 580.5,187.5C 576.5,187.5 572.5,187.5 568.5,187.5C 567.671,180.345 567.171,173.011 567,165.5C 561.667,166.833 556.333,166.833 551,165.5C 550.5,173.159 550.334,180.826 550.5,188.5C 545.968,188.818 541.634,188.485 537.5,187.5C 537.5,169.167 537.5,150.833 537.5,132.5C 541.833,132.5 546.167,132.5 550.5,132.5 Z"/></g>
<g><path style="opacity:0.437" fill="#674b0f" d="M 568.5,187.5 C 572.5,187.5 576.5,187.5 580.5,187.5C 580.5,169.167 580.5,150.833 580.5,132.5C 576.5,132.5 572.5,132.5 568.5,132.5C 568.5,132.167 568.5,131.833 568.5,131.5C 572.622,131.34 576.956,131.34 581.5,131.5C 581.5,150.5 581.5,169.5 581.5,188.5C 576.968,188.818 572.634,188.485 568.5,187.5 Z"/></g>
<g><path style="opacity:0.655" fill="#5b312c" d="M 57.5,139.5 C 56.5041,139.586 55.6708,139.252 55,138.5C 54.5272,136.221 53.5272,134.221 52,132.5C 50.9331,134.692 49.4331,136.358 47.5,137.5C 48.8235,134.183 50.1568,130.85 51.5,127.5C 53.6827,131.363 55.6827,135.363 57.5,139.5 Z"/></g>
<g><path style="opacity:0.753" fill="#552f2a" d="M 203.5,137.5 C 201.567,136.358 200.067,134.692 199,132.5C 197.951,134.618 196.451,136.284 194.5,137.5C 195.823,134.183 197.157,130.85 198.5,127.5C 200.672,130.511 202.339,133.844 203.5,137.5 Z"/></g>
<g><path style="opacity:0.722" fill="#562c26" d="M 105.5,138.5 C 103.612,137.06 101.945,135.394 100.5,133.5C 97.9061,138.286 94.2394,141.953 89.5,144.5C 91.4611,142.037 93.6278,139.703 96,137.5C 97.2467,134.671 98.7467,132.005 100.5,129.5C 102.727,132.175 104.394,135.175 105.5,138.5 Z"/></g>
<g><path style="opacity:0.051" fill="#19374b" d="M 146.5,127.5 C 144.438,131.895 141.104,134.895 136.5,136.5C 136.833,135.833 137.167,135.167 137.5,134.5C 140.487,134.052 141.487,132.552 140.5,130C 142.811,129.764 144.811,128.931 146.5,127.5 Z"/></g>
<g><path style="opacity:1" fill="#3188ae" d="M 104.5,128.5 C 106.882,130.046 109.549,130.713 112.5,130.5C 112.383,132.484 113.05,134.15 114.5,135.5C 117.5,135.833 120.5,136.167 123.5,136.5C 129.057,136.669 133.724,136.003 137.5,134.5C 137.167,135.167 136.833,135.833 136.5,136.5C 136.158,137.338 135.492,137.672 134.5,137.5C 128.167,138.833 121.833,138.833 115.5,137.5C 110.957,135.628 107.29,132.628 104.5,128.5 Z"/></g>
<g><path style="opacity:0.231" fill="#523c14" d="M 459.5,134.5 C 461.19,134.856 462.19,135.856 462.5,137.5C 460.81,137.144 459.81,136.144 459.5,134.5 Z"/></g>
<g><path style="opacity:0.698" fill="#6b362a" d="M 161.5,135.5 C 168.014,137.205 174.681,137.871 181.5,137.5C 181.5,137.833 181.5,138.167 181.5,138.5C 177.354,139.647 173.02,139.814 168.5,139C 165.826,138.33 163.493,137.163 161.5,135.5 Z"/></g>
<g><path style="opacity:0.455" fill="#224e67" d="M 209.5,134.5 C 217.288,136.926 225.288,137.926 233.5,137.5C 228.439,139.423 223.105,139.923 217.5,139C 214.316,138.246 211.649,136.746 209.5,134.5 Z"/></g>
<g><path style="opacity:0.305" fill="#182f42" d="M 15.5,136.5 C 21.6799,138.182 28.0133,138.848 34.5,138.5C 30.0189,139.648 25.3522,139.815 20.5,139C 18.5087,138.626 16.842,137.793 15.5,136.5 Z"/></g>
<g><path style="opacity:0.282" fill="#183346" d="M 115.5,137.5 C 121.833,138.833 128.167,138.833 134.5,137.5C 131.644,139.006 128.477,139.672 125,139.5C 121.523,139.672 118.356,139.006 115.5,137.5 Z"/></g>
<g><path style="opacity:0.62" fill="#4a2924" d="M 105.5,138.5 C 107.5,139.833 109.167,141.5 110.5,143.5C 107.833,142.833 106.167,141.167 105.5,138.5 Z"/></g>
<g><path style="opacity:0.129" fill="#3a2c13" d="M 462.5,137.5 C 463.906,137.973 464.573,138.973 464.5,140.5C 463.094,140.027 462.427,139.027 462.5,137.5 Z"/></g>
<g><path style="opacity:0.282" fill="#311c1f" d="M 47.5,137.5 C 45.7671,141.565 42.7671,144.232 38.5,145.5C 41.4744,142.862 44.4744,140.195 47.5,137.5 Z"/></g>
<g><path style="opacity:0.557" fill="#502a24" d="M 155.5,139.5 C 157.54,141.177 159.54,142.844 161.5,144.5C 160.391,144.443 159.391,144.11 158.5,143.5C 156.738,142.738 155.738,141.404 155.5,139.5 Z"/></g>
<g><path style="opacity:0.192" fill="#2c1a1d" d="M 194.5,137.5 C 193.167,140.833 190.833,143.167 187.5,144.5C 189.5,141.833 191.833,139.5 194.5,137.5 Z"/></g>
<g><path style="opacity:1" fill="#f05a25" d="M 155.5,139.5 C 155.738,141.404 156.738,142.738 158.5,143.5C 158.5,144.167 158.5,144.833 158.5,145.5C 158.542,147.849 157.375,149.182 155,149.5C 154.055,149.095 153.388,148.428 153,147.5C 150.411,149.688 148.578,152.354 147.5,155.5C 146.448,155.351 145.448,155.517 144.5,156C 144.87,157.61 144.203,159.11 142.5,160.5C 129.006,161.167 115.673,161.833 102.5,162.5C 100.058,162.119 99.3915,162.786 100.5,164.5C 99.0523,166.956 98.3856,169.622 98.5,172.5C 99.8333,180.167 99.8333,187.833 98.5,195.5C 100.213,199.602 100.88,204.602 100.5,210.5C 99.5058,220.653 99.1724,230.986 99.5,241.5C 77.5516,243.486 55.5516,243.986 33.5,243C 32.1279,242.598 30.7946,242.098 29.5,241.5C 28.5002,211.174 28.1668,180.841 28.5,150.5C 31.5184,150.335 34.5184,150.502 37.5,151C 37.9662,152.299 37.9662,153.799 37.5,155.5C 39.6133,156.256 41.6133,156.423 43.5,156C 44.1905,157.067 44.6905,158.234 45,159.5C 47.8086,157.292 50.9753,155.959 54.5,155.5C 56.8909,147.515 58.8909,147.682 60.5,156C 65.0356,157.95 68.2022,156.45 70,151.5C 71.5848,152.376 72.5848,153.709 73,155.5C 73.3333,155.167 73.6667,154.833 74,154.5C 74.3333,155.833 74.6667,157.167 75,158.5C 74.9266,153.896 76.9266,152.562 81,154.5C 82.8685,153.631 83.3685,152.465 82.5,151C 84.5,150.667 86.5,150.333 88.5,150C 89.6853,148.647 91.0186,147.48 92.5,146.5C 93.2432,147.908 94.0766,149.241 95,150.5C 95.6667,149.167 96.3333,147.833 97,146.5C 97.3333,147.5 97.6667,148.5 98,149.5C 98.1922,147.423 98.6922,145.423 99.5,143.5C 100.167,144.5 100.833,145.5 101.5,146.5C 102.833,145.5 104.167,144.5 105.5,143.5C 106.386,144.325 106.719,145.325 106.5,146.5C 112.235,148.358 118.068,149.692 124,150.5C 127.477,150.672 130.644,150.006 133.5,148.5C 140.098,144.904 145.431,139.904 149.5,133.5C 151.059,135.964 153.059,137.964 155.5,139.5 Z M 43.5,176.5 C 57.5,176.5 71.5,176.5 85.5,176.5C 85.5,181.833 85.5,187.167 85.5,192.5C 71.5,192.5 57.5,192.5 43.5,192.5C 43.5,187.167 43.5,181.833 43.5,176.5 Z"/></g>
<g><path style="opacity:1" fill="#ea5c28" d="M 57.5,139.5 C 58.2678,142.562 60.2678,144.228 63.5,144.5C 65.5792,146.873 68.2459,148.206 71.5,148.5C 77.27,150.021 82.9366,149.354 88.5,146.5C 89.2975,146.043 89.6309,145.376 89.5,144.5C 94.2394,141.953 97.9061,138.286 100.5,133.5C 101.945,135.394 103.612,137.06 105.5,138.5C 106.167,141.167 107.833,142.833 110.5,143.5C 112.12,145.984 114.453,147.484 117.5,148C 122.823,148.499 128.156,148.666 133.5,148.5C 130.644,150.006 127.477,150.672 124,150.5C 118.068,149.692 112.235,148.358 106.5,146.5C 106.719,145.325 106.386,144.325 105.5,143.5C 104.167,144.5 102.833,145.5 101.5,146.5C 100.833,145.5 100.167,144.5 99.5,143.5C 98.6922,145.423 98.1922,147.423 98,149.5C 97.6667,148.5 97.3333,147.5 97,146.5C 96.3333,147.833 95.6667,149.167 95,150.5C 94.0766,149.241 93.2432,147.908 92.5,146.5C 91.0186,147.48 89.6853,148.647 88.5,150C 86.5,150.333 84.5,150.667 82.5,151C 83.3685,152.465 82.8685,153.631 81,154.5C 76.9266,152.562 74.9266,153.896 75,158.5C 74.6667,157.167 74.3333,155.833 74,154.5C 73.6667,154.833 73.3333,155.167 73,155.5C 72.5848,153.709 71.5848,152.376 70,151.5C 68.2022,156.45 65.0356,157.95 60.5,156C 58.8909,147.682 56.8909,147.515 54.5,155.5C 50.9753,155.959 47.8086,157.292 45,159.5C 44.6905,158.234 44.1905,157.067 43.5,156C 41.6133,156.423 39.6133,156.256 37.5,155.5C 37.9662,153.799 37.9662,152.299 37.5,151C 34.5184,150.502 31.5184,150.335 28.5,150.5C 28.1668,180.841 28.5002,211.174 29.5,241.5C 30.7946,242.098 32.1279,242.598 33.5,243C 55.5516,243.986 77.5516,243.486 99.5,241.5C 99.1724,230.986 99.5058,220.653 100.5,210.5C 100.5,221.833 100.5,233.167 100.5,244.5C 76.1667,244.5 51.8333,244.5 27.5,244.5C 26.5018,213.004 26.1685,181.338 26.5,149.5C 29.2165,149.322 31.8832,148.822 34.5,148C 36.3197,147.8 37.653,146.966 38.5,145.5C 42.7671,144.232 45.7671,141.565 47.5,137.5C 49.4331,136.358 50.9331,134.692 52,132.5C 53.5272,134.221 54.5272,136.221 55,138.5C 55.6708,139.252 56.5041,139.586 57.5,139.5 Z"/></g>
<g><path style="opacity:0.671" fill="#5e2f27" d="M 57.5,139.5 C 59.5398,141.177 61.5398,142.844 63.5,144.5C 60.2678,144.228 58.2678,142.562 57.5,139.5 Z"/></g>
<g><path style="opacity:0.22" fill="#371f20" d="M 89.5,135.5 C 87.8791,137.117 85.8791,138.284 83.5,139C 79.1667,139.667 74.8333,139.667 70.5,139C 69.2625,138.768 68.2625,138.268 67.5,137.5C 71.9891,138.571 76.3224,138.571 80.5,137.5C 83.5,136.833 86.5,136.167 89.5,135.5 Z"/></g>
<g><path style="opacity:1" fill="#b2512e" d="M 62.5,134.5 C 68.3781,135.938 74.3781,136.938 80.5,137.5C 76.3224,138.571 71.9891,138.571 67.5,137.5C 65.326,137.25 63.6594,136.25 62.5,134.5 Z"/></g>
<g><path style="opacity:0.508" fill="#82600b" d="M 449.5,143.5 C 447.565,142.85 445.565,142.517 443.5,142.5C 443.5,146.167 443.5,149.833 443.5,153.5C 442.517,149.702 442.183,145.702 442.5,141.5C 444.527,141.338 446.527,141.505 448.5,142C 449.056,142.383 449.389,142.883 449.5,143.5 Z"/></g>
<g><path style="opacity:0.169" fill="#362020" d="M 161.5,144.5 C 170.167,148.5 178.833,148.5 187.5,144.5C 187.5,145.167 187.5,145.833 187.5,146.5C 180.96,148.372 174.294,148.872 167.5,148C 164.975,147.576 162.975,146.41 161.5,144.5 Z"/></g>
<g><path style="opacity:0.333" fill="#502923" d="M 203.5,137.5 C 207.377,142.059 212.044,145.393 217.5,147.5C 210.885,146.981 206.218,143.647 203.5,137.5 Z"/></g>
<g><path style="opacity:0.02" fill="#1d1217" d="M 63.5,144.5 C 68.8647,147.006 74.5314,148.006 80.5,147.5C 77.7131,148.477 74.7131,148.81 71.5,148.5C 68.2459,148.206 65.5792,146.873 63.5,144.5 Z"/></g>
<g><path style="opacity:0.588" fill="#4c2a24" d="M 155.5,139.5 C 153.059,137.964 151.059,135.964 149.5,133.5C 145.431,139.904 140.098,144.904 133.5,148.5C 128.156,148.666 122.823,148.499 117.5,148C 114.453,147.484 112.12,145.984 110.5,143.5C 128.718,152.078 141.551,147.078 149,128.5C 151.675,131.847 153.842,135.514 155.5,139.5 Z"/></g>
<g><path style="opacity:1" fill="#ef5a26" d="M 203.5,137.5 C 206.218,143.647 210.885,146.981 217.5,147.5C 218.167,148.167 218.833,148.833 219.5,149.5C 220.568,150.434 221.901,150.768 223.5,150.5C 223.5,181.833 223.5,213.167 223.5,244.5C 198.5,244.5 173.5,244.5 148.5,244.5C 148.5,217.5 148.5,190.5 148.5,163.5C 147.5,163.5 146.5,163.5 145.5,163.5C 131.343,162.504 117.01,162.171 102.5,162.5C 115.673,161.833 129.006,161.167 142.5,160.5C 144.203,159.11 144.87,157.61 144.5,156C 145.448,155.517 146.448,155.351 147.5,155.5C 148.578,152.354 150.411,149.688 153,147.5C 153.388,148.428 154.055,149.095 155,149.5C 157.375,149.182 158.542,147.849 158.5,145.5C 161.017,147.735 164.017,149.235 167.5,150C 173.569,150.804 179.569,150.471 185.5,149C 186.756,148.583 187.423,147.75 187.5,146.5C 187.5,145.833 187.5,145.167 187.5,144.5C 190.833,143.167 193.167,140.833 194.5,137.5C 196.451,136.284 197.951,134.618 199,132.5C 200.067,134.692 201.567,136.358 203.5,137.5 Z M 165.5,176.5 C 179.5,176.5 193.5,176.5 207.5,176.5C 207.5,181.833 207.5,187.167 207.5,192.5C 193.5,192.5 179.5,192.5 165.5,192.5C 165.5,187.167 165.5,181.833 165.5,176.5 Z"/></g>
<g><path style="opacity:0.586" fill="#7a3f2c" d="M 89.5,144.5 C 89.6309,145.376 89.2975,146.043 88.5,146.5C 82.9366,149.354 77.27,150.021 71.5,148.5C 74.7131,148.81 77.7131,148.477 80.5,147.5C 83.5738,146.698 86.5738,145.698 89.5,144.5 Z"/></g>
<g><path style="opacity:1" fill="#d15831" d="M 158.5,143.5 C 159.391,144.11 160.391,144.443 161.5,144.5C 162.975,146.41 164.975,147.576 167.5,148C 174.294,148.872 180.96,148.372 187.5,146.5C 187.423,147.75 186.756,148.583 185.5,149C 179.569,150.471 173.569,150.804 167.5,150C 164.017,149.235 161.017,147.735 158.5,145.5C 158.5,144.833 158.5,144.167 158.5,143.5 Z"/></g>
<g><path style="opacity:0.382" fill="#463511" d="M 601.5,152.5 C 603.134,151.839 604.967,151.506 607,151.5C 609.866,151.3 612.366,151.967 614.5,153.5C 610.215,152.705 605.881,152.372 601.5,152.5 Z"/></g>
<g><path style="opacity:0.031" fill="#3c2d16" d="M 308.5,153.5 C 306.901,153.768 305.568,153.434 304.5,152.5C 304.435,152.062 304.601,151.728 305,151.5C 306.302,152.085 307.469,152.751 308.5,153.5 Z"/></g>
<g><path style="opacity:0.381" fill="#5d460f" d="M 348.5,153.5 C 354.013,152.184 359.68,152.184 365.5,153.5C 365.043,154.298 364.376,154.631 363.5,154.5C 358.695,153.513 353.695,153.179 348.5,153.5 Z"/></g>
<g><path style="opacity:0.451" fill="#372915" d="M 379.5,152.5 C 378.432,153.434 377.099,153.768 375.5,153.5C 376.531,152.751 377.698,152.085 379,151.5C 379.399,151.728 379.565,152.062 379.5,152.5 Z"/></g>
<g><path style="opacity:0.537" fill="#4d3915" d="M 600.5,152.5 C 599.791,153.404 598.791,153.737 597.5,153.5C 598.172,152.733 599.005,152.066 600,151.5C 600.399,151.728 600.565,152.062 600.5,152.5 Z"/></g>
<g><path style="opacity:0.387" fill="#483613" d="M 641.5,153.5 C 637.298,153.183 633.298,153.517 629.5,154.5C 628.354,152.441 629.187,151.441 632,151.5C 635.35,151.946 638.517,152.612 641.5,153.5 Z"/></g>
<g><path style="opacity:0.478" fill="#4e3a13" d="M 290.5,153.5 C 289.486,154.674 288.153,155.34 286.5,155.5C 287.315,154.163 288.482,153.163 290,152.5C 290.399,152.728 290.565,153.062 290.5,153.5 Z"/></g>
<g><path style="opacity:1" fill="#ecaa07" d="M 304.5,152.5 C 305.568,153.434 306.901,153.768 308.5,153.5C 310.153,153.66 311.486,154.326 312.5,155.5C 313.326,157.264 314.659,158.598 316.5,159.5C 316.427,161.027 317.094,162.027 318.5,162.5C 319.162,166.466 319.495,170.466 319.5,174.5C 316.95,184.69 310.284,189.69 299.5,189.5C 297.793,189.272 296.126,188.938 294.5,188.5C 293.432,187.566 292.099,187.232 290.5,187.5C 290.167,187.5 289.833,187.5 289.5,187.5C 289.027,186.094 288.027,185.427 286.5,185.5C 286.027,184.094 285.027,183.427 283.5,183.5C 281.178,182.198 279.845,180.198 279.5,177.5C 279.392,172.13 279.725,166.797 280.5,161.5C 282.833,159.833 284.833,157.833 286.5,155.5C 288.153,155.34 289.486,154.674 290.5,153.5C 291.458,153.047 292.292,152.381 293,151.5C 296.781,151.318 300.614,151.652 304.5,152.5 Z M 305.5,166.5 C 307.153,170.868 306.153,174.535 302.5,177.5C 294.171,178.336 291.005,174.67 293,166.5C 297.447,161.715 301.614,161.715 305.5,166.5 Z"/></g>
<g><path style="opacity:1" fill="#eeab06" d="M 391.5,152.5 C 393.649,153.736 395.982,154.736 398.5,155.5C 399.492,155.328 400.158,155.662 400.5,156.5C 400.738,158.404 401.738,159.738 403.5,160.5C 403.427,162.027 404.094,163.027 405.5,163.5C 408.413,169.668 407.747,175.335 403.5,180.5C 402.094,180.973 401.427,181.973 401.5,183.5C 399.664,185.588 397.331,186.921 394.5,187.5C 392.901,187.232 391.568,187.566 390.5,188.5C 387.465,189.734 384.465,189.734 381.5,188.5C 379.958,187.699 378.292,187.366 376.5,187.5C 375.508,187.672 374.842,187.338 374.5,186.5C 374.027,185.094 373.027,184.427 371.5,184.5C 370.118,182.451 368.452,180.785 366.5,179.5C 365.746,174.537 365.413,169.537 365.5,164.5C 365.66,162.847 366.326,161.514 367.5,160.5C 369.167,159.5 370.5,158.167 371.5,156.5C 371.5,155.833 371.833,155.5 372.5,155.5C 374.027,155.573 375.027,154.906 375.5,153.5C 377.099,153.768 378.432,153.434 379.5,152.5C 383.532,151.234 387.532,151.234 391.5,152.5 Z M 392.5,167.5 C 392.793,170.754 392.126,173.754 390.5,176.5C 387.904,177.265 385.237,177.599 382.5,177.5C 381.71,176.599 380.71,175.932 379.5,175.5C 379.443,174.391 379.11,173.391 378.5,172.5C 378.448,170.097 378.781,167.764 379.5,165.5C 384.51,162.333 388.843,162.999 392.5,167.5 Z"/></g>
<g><path style="opacity:0.11" fill="#382a14" d="M 398.5,155.5 C 395.982,154.736 393.649,153.736 391.5,152.5C 391.435,152.062 391.601,151.728 392,151.5C 394.617,152.219 396.784,153.553 398.5,155.5 Z"/></g>
<g><path style="opacity:1" fill="#f5b004" d="M 487.5,174.5 C 487.5,174.833 487.5,175.167 487.5,175.5C 487.5,176.833 488.167,177.5 489.5,177.5C 492.167,178.833 494.833,178.833 497.5,177.5C 498.79,176.942 499.623,175.942 500,174.5C 500.5,167.508 500.666,160.508 500.5,153.5C 504.167,153.5 507.833,153.5 511.5,153.5C 511.5,161.833 511.5,170.167 511.5,178.5C 510.953,183.381 508.286,186.381 503.5,187.5C 501.585,187.216 499.919,187.549 498.5,188.5C 494.833,189.833 491.167,189.833 487.5,188.5C 486.081,187.549 484.415,187.216 482.5,187.5C 482.027,186.094 481.027,185.427 479.5,185.5C 477.5,185.5 476.5,184.5 476.5,182.5C 476.34,180.847 475.674,179.514 474.5,178.5C 474.5,170.167 474.5,161.833 474.5,153.5C 478.167,153.5 481.833,153.5 485.5,153.5C 485.334,159.842 485.5,166.175 486,172.5C 486.278,173.416 486.778,174.082 487.5,174.5 Z"/></g>
<g><path style="opacity:0.354" fill="#6a4e0f" d="M 511.5,178.5 C 511.5,170.167 511.5,161.833 511.5,153.5C 507.833,153.5 504.167,153.5 500.5,153.5C 500.666,160.508 500.5,167.508 500,174.5C 499.623,175.942 498.79,176.942 497.5,177.5C 499.162,169.3 499.996,160.966 500,152.5C 504.015,152.303 508.182,152.303 512.5,152.5C 512.826,161.349 512.493,170.016 511.5,178.5 Z"/></g>
<g><path style="opacity:0.164" fill="#392c0f" d="M 568.5,131.5 C 568.5,131.833 568.5,132.167 568.5,132.5C 568.5,139.833 568.5,147.167 568.5,154.5C 562.31,154.823 556.31,154.49 550.5,153.5C 556.167,153.5 561.833,153.5 567.5,153.5C 567.175,145.981 567.508,138.648 568.5,131.5 Z"/></g>
<g><path style="opacity:1" fill="#f3b003" d="M 600.5,152.5 C 600.833,152.5 601.167,152.5 601.5,152.5C 605.881,152.372 610.215,152.705 614.5,153.5C 615.492,153.328 616.158,153.662 616.5,154.5C 616.973,155.906 617.973,156.573 619.5,156.5C 619.427,158.027 620.094,159.027 621.5,159.5C 622.674,160.514 623.34,161.847 623.5,163.5C 623.5,166.167 623.5,168.833 623.5,171.5C 615.316,171.174 607.316,171.508 599.5,172.5C 599.5,173.167 599.5,173.833 599.5,174.5C 599.5,176.5 600.5,177.5 602.5,177.5C 604.655,179.534 606.988,179.867 609.5,178.5C 611.71,177.649 613.71,176.316 615.5,174.5C 617.85,175.861 620.184,177.194 622.5,178.5C 622.5,179.5 622.5,180.5 622.5,181.5C 621.167,182.167 620.167,183.167 619.5,184.5C 618.341,186.25 616.674,187.25 614.5,187.5C 612.901,187.232 611.568,187.566 610.5,188.5C 607.796,189.714 605.129,189.714 602.5,188.5C 600.958,187.699 599.292,187.366 597.5,187.5C 597.027,186.094 596.027,185.427 594.5,185.5C 592.785,183.118 590.785,181.118 588.5,179.5C 587.662,179.158 587.328,178.492 587.5,177.5C 587.392,172.13 587.725,166.797 588.5,161.5C 591.167,159.5 593.5,157.167 595.5,154.5C 595.842,153.662 596.508,153.328 597.5,153.5C 598.791,153.737 599.791,153.404 600.5,152.5 Z M 608.5,160.5 C 609.167,161.833 610.167,162.833 611.5,163.5C 609.866,164.161 608.033,164.494 606,164.5C 603.705,164.453 601.871,163.787 600.5,162.5C 601.167,162.5 601.5,162.167 601.5,161.5C 603.764,160.781 606.097,160.448 608.5,160.5 Z"/></g>
<g><path style="opacity:1" fill="#da9d0f" d="M 656.5,152.5 C 657.968,153.779 658.635,155.446 658.5,157.5C 657.987,163.861 654.82,165.861 649,163.5C 646.855,163.396 645.021,164.063 643.5,165.5C 642.7,172.784 642.2,180.117 642,187.5C 637.921,188.629 633.755,188.796 629.5,188C 629.445,176.836 629.445,165.669 629.5,154.5C 633.298,153.517 637.298,153.183 641.5,153.5C 642.167,154.167 642.833,154.833 643.5,155.5C 645.404,155.262 646.738,154.262 647.5,152.5C 650.396,151.225 653.396,151.225 656.5,152.5 Z"/></g>
<g><path style="opacity:0.541" fill="#614814" d="M 647.5,152.5 C 646.738,154.262 645.404,155.262 643.5,155.5C 644.262,153.738 645.596,152.738 647.5,152.5 Z"/></g>
<g><path style="opacity:0.129" fill="#312612" d="M 674.5,153.5 C 670.5,153.5 666.5,153.5 662.5,153.5C 662.5,161.5 662.5,169.5 662.5,177.5C 661.179,169.324 661.179,160.991 662.5,152.5C 664.106,151.923 665.772,151.59 667.5,151.5C 670.729,151.519 673.063,152.186 674.5,153.5 Z"/></g>
<g><path style="opacity:1" fill="#f3af03" d="M 674.5,153.5 C 674.152,160.906 674.652,168.239 676,175.5C 679.542,179.42 683.042,179.42 686.5,175.5C 687.268,174.737 687.768,173.737 688,172.5C 688.5,166.175 688.666,159.842 688.5,153.5C 692.167,153.5 695.833,153.5 699.5,153.5C 699.721,162.866 699.387,172.199 698.5,181.5C 697.422,184.908 695.089,186.908 691.5,187.5C 689.585,187.216 687.919,187.549 686.5,188.5C 683.133,189.747 679.799,189.747 676.5,188.5C 674.621,187.659 672.621,187.325 670.5,187.5C 670.027,186.094 669.027,185.427 667.5,185.5C 664.346,183.876 662.679,181.209 662.5,177.5C 662.5,169.5 662.5,161.5 662.5,153.5C 666.5,153.5 670.5,153.5 674.5,153.5 Z"/></g>
<g><path style="opacity:0.409" fill="#564011" d="M 698.5,181.5 C 699.387,172.199 699.721,162.866 699.5,153.5C 695.833,153.5 692.167,153.5 688.5,153.5C 688.666,159.842 688.5,166.175 688,172.5C 687.768,173.737 687.268,174.737 686.5,175.5C 687.613,168.166 687.78,160.833 687,153.5C 687.739,152.426 688.739,151.759 690,151.5C 693.461,152.218 696.961,152.718 700.5,153C 701.059,153.725 701.392,154.558 701.5,155.5C 700.728,163.472 700.228,171.472 700,179.5C 699.722,180.416 699.222,181.082 698.5,181.5 Z"/></g>
<g><path style="opacity:0.408" fill="#3d2e13" d="M 375.5,153.5 C 375.027,154.906 374.027,155.573 372.5,155.5C 372.973,154.094 373.973,153.427 375.5,153.5 Z"/></g>
<g><path style="opacity:0.722" fill="#594216" d="M 487.5,174.5 C 486.778,174.082 486.278,173.416 486,172.5C 485.5,166.175 485.334,159.842 485.5,153.5C 481.833,153.5 478.167,153.5 474.5,153.5C 474.5,161.833 474.5,170.167 474.5,178.5C 473.172,169.765 473.172,160.932 474.5,152C 479.03,151.647 483.364,152.313 487.5,154C 487.391,160.682 487.391,167.516 487.5,174.5 Z"/></g>
<g><path style="opacity:0.008" fill="#2b2114" d="M 616.5,154.5 C 618.027,154.427 619.027,155.094 619.5,156.5C 617.973,156.573 616.973,155.906 616.5,154.5 Z"/></g>
<g><path style="opacity:0.761" fill="#564015" d="M 658.5,157.5 C 658.635,155.446 657.968,153.779 656.5,152.5C 656.435,152.062 656.601,151.728 657,151.5C 660.875,152.87 661.375,154.87 658.5,157.5 Z"/></g>
<g><path style="opacity:0.185" fill="#3e2220" d="M 217.5,147.5 C 220.545,147.508 223.545,147.841 226.5,148.5C 226.5,181.167 226.5,213.833 226.5,246.5C 200.139,247.787 173.806,247.787 147.5,246.5C 147.5,246.167 147.5,245.833 147.5,245.5C 173.5,245.5 199.5,245.5 225.5,245.5C 225.5,213.5 225.5,181.5 225.5,149.5C 223.5,149.5 221.5,149.5 219.5,149.5C 218.833,148.833 218.167,148.167 217.5,147.5 Z"/></g>
<g><path style="opacity:0.263" fill="#4c3814" d="M 312.5,155.5 C 314.773,155.957 316.106,157.29 316.5,159.5C 314.659,158.598 313.326,157.264 312.5,155.5 Z"/></g>
<g><path style="opacity:0.541" fill="#4a3715" d="M 400.5,156.5 C 402.262,157.262 403.262,158.596 403.5,160.5C 401.738,159.738 400.738,158.404 400.5,156.5 Z"/></g>
<g><path style="opacity:0.518" fill="#4a3714" d="M 619.5,156.5 C 620.906,156.973 621.573,157.973 621.5,159.5C 620.094,159.027 619.427,158.027 619.5,156.5 Z"/></g>
<g><path style="opacity:0.639" fill="#5e4614" d="M 286.5,155.5 C 284.833,157.833 282.833,159.833 280.5,161.5C 281.5,158.5 283.5,156.5 286.5,155.5 Z"/></g>
<g><path style="opacity:0.396" fill="#4b3712" d="M 371.5,156.5 C 370.5,158.167 369.167,159.5 367.5,160.5C 367.833,158.167 369.167,156.833 371.5,156.5 Z"/></g>
<g><path style="opacity:0.639" fill="#5c4414" d="M 595.5,154.5 C 593.5,157.167 591.167,159.5 588.5,161.5C 589.833,158.167 592.167,155.833 595.5,154.5 Z"/></g>
<g><path style="opacity:0.345" fill="#674c0f" d="M 608.5,160.5 C 606.097,160.448 603.764,160.781 601.5,161.5C 602.312,160.007 603.645,159.34 605.5,159.5C 606.726,159.52 607.726,159.853 608.5,160.5 Z"/></g>
<g><path style="opacity:0.537" fill="#493615" d="M 608.5,160.5 C 610.5,160.5 611.5,161.5 611.5,163.5C 610.167,162.833 609.167,161.833 608.5,160.5 Z"/></g>
<g><path style="opacity:0.278" fill="#4f3b12" d="M 316.5,159.5 C 317.906,159.973 318.573,160.973 318.5,162.5C 317.094,162.027 316.427,161.027 316.5,159.5 Z"/></g>
<g><path style="opacity:0.443" fill="#5d4315" d="M 463.5,159.5 C 465.773,159.957 467.106,161.29 467.5,163.5C 465.659,162.598 464.326,161.264 463.5,159.5 Z"/></g>
<g><path style="opacity:0.2" fill="#423214" d="M 403.5,160.5 C 404.906,160.973 405.573,161.973 405.5,163.5C 404.094,163.027 403.427,162.027 403.5,160.5 Z"/></g>
<g><path style="opacity:0.536" fill="#423434" d="M 102.5,164.5 C 117.167,164.5 131.833,164.5 146.5,164.5C 146.5,165.833 146.5,167.167 146.5,168.5C 146.167,168.5 145.833,168.5 145.5,168.5C 145.5,167.5 145.5,166.5 145.5,165.5C 132.163,165.333 118.829,165.5 105.5,166C 104.944,166.383 104.611,166.883 104.5,167.5C 103.502,192.995 103.169,218.661 103.5,244.5C 103.167,244.5 102.833,244.5 102.5,244.5C 102.5,217.833 102.5,191.167 102.5,164.5 Z"/></g>
<g><path style="opacity:0.088" fill="#332810" d="M 600.5,162.5 C 601.871,163.787 603.705,164.453 606,164.5C 608.033,164.494 609.866,164.161 611.5,163.5C 612.043,163.56 612.376,163.893 612.5,164.5C 608.217,165.492 603.884,165.826 599.5,165.5C 599.263,164.209 599.596,163.209 600.5,162.5 Z"/></g>
<g><path style="opacity:0.11" fill="#3d2e13" d="M 467.5,163.5 C 468.906,163.973 469.573,164.973 469.5,166.5C 468.094,166.027 467.427,165.027 467.5,163.5 Z"/></g>
<g><path style="opacity:0.506" fill="#72540e" d="M 453.5,166.5 C 450.193,165.949 446.86,165.616 443.5,165.5C 443.5,169.5 443.5,173.5 443.5,177.5C 442.515,173.366 442.182,169.032 442.5,164.5C 445.518,164.335 448.518,164.502 451.5,165C 452.416,165.278 453.082,165.778 453.5,166.5 Z"/></g>
<g><path style="opacity:0.723" fill="#723b2b" d="M 38.5,145.5 C 37.653,146.966 36.3197,147.8 34.5,148C 31.8832,148.822 29.2165,149.322 26.5,149.5C 26.1685,181.338 26.5018,213.004 27.5,244.5C 51.9944,245.498 76.661,245.831 101.5,245.5C 101.5,245.833 101.5,246.167 101.5,246.5C 76.5,247.833 51.5,247.833 26.5,246.5C 25.5076,213.907 25.1743,181.24 25.5,148.5C 29.8339,147.61 34.1672,146.61 38.5,145.5 Z"/></g>
<g><path style="opacity:1" fill="#28a9df" d="M 140.5,206.5 C 140.821,208.048 141.821,208.715 143.5,208.5C 143.5,220.167 143.5,231.833 143.5,243.5C 130.833,243.5 118.167,243.5 105.5,243.5C 105.5,218.167 105.5,192.833 105.5,167.5C 118.167,167.5 130.833,167.5 143.5,167.5C 143.5,179.167 143.5,190.833 143.5,202.5C 138.764,202.009 137.764,203.343 140.5,206.5 Z"/></g>
<g><path style="opacity:0.42" fill="#674c10" d="M 318.5,162.5 C 319.926,164.679 320.592,167.179 320.5,170C 320.492,171.707 320.158,173.207 319.5,174.5C 319.495,170.466 319.162,166.466 318.5,162.5 Z"/></g>
<g><path style="opacity:0.998" fill="#7b5918" d="M 280.5,161.5 C 279.725,166.797 279.392,172.13 279.5,177.5C 276.686,171.997 277.02,166.664 280.5,161.5 Z"/></g>
<g><path style="opacity:0.622" fill="#543e14" d="M 365.5,164.5 C 365.413,169.537 365.746,174.537 366.5,179.5C 363.183,174.634 362.85,169.634 365.5,164.5 Z"/></g>
<g><path style="opacity:0.078" fill="#3a2c12" d="M 379.5,165.5 C 378.781,167.764 378.448,170.097 378.5,172.5C 377.853,171.726 377.52,170.726 377.5,169.5C 377.34,167.645 378.007,166.312 379.5,165.5 Z"/></g>
<g><path style="opacity:0.841" fill="#664b16" d="M 588.5,161.5 C 587.725,166.797 587.392,172.13 587.5,177.5C 584.686,171.997 585.02,166.664 588.5,161.5 Z"/></g>
<g><path style="opacity:0.404" fill="#402f15" d="M 350.5,170.5 C 355.894,174.892 360.561,179.892 364.5,185.5C 359.106,181.108 354.439,176.108 350.5,170.5 Z"/></g>
<g><path style="opacity:0.564" fill="#84600c" d="M 623.5,163.5 C 624.205,166.228 624.872,169.061 625.5,172C 616.84,172.5 608.173,172.666 599.5,172.5C 607.316,171.508 615.316,171.174 623.5,171.5C 623.5,168.833 623.5,166.167 623.5,163.5 Z"/></g>
<g><path style="opacity:0.271" fill="#4b3814" d="M 392.5,167.5 C 393.629,169.628 393.796,171.961 393,174.5C 392.583,175.756 391.75,176.423 390.5,176.5C 392.126,173.754 392.793,170.754 392.5,167.5 Z"/></g>
<g><path style="opacity:0.957" fill="#876310" d="M 455.5,168.5 C 456.814,170.895 456.814,173.395 455.5,176C 451.556,178.353 447.556,178.853 443.5,177.5C 447.346,177.455 451.013,176.622 454.5,175C 455.423,172.959 455.756,170.792 455.5,168.5 Z"/></g>
<g><path style="opacity:0.087" fill="#2e1d22" d="M 86.5,175.5 C 86.5,181.5 86.5,187.5 86.5,193.5C 72.3234,193.171 58.3234,193.504 44.5,194.5C 43.8333,194.5 43.1667,194.5 42.5,194.5C 42.5,188.167 42.5,181.833 42.5,175.5C 57.1667,174.167 71.8333,174.167 86.5,175.5 Z M 43.5,176.5 C 43.5,181.833 43.5,187.167 43.5,192.5C 57.5,192.5 71.5,192.5 85.5,192.5C 85.5,187.167 85.5,181.833 85.5,176.5C 71.5,176.5 57.5,176.5 43.5,176.5 Z"/></g>
<g><path style="opacity:0.31" fill="#413113" d="M 305.5,166.5 C 306.117,166.611 306.617,166.944 307,167.5C 308.426,172.308 306.926,175.641 302.5,177.5C 306.153,174.535 307.153,170.868 305.5,166.5 Z"/></g>
<g><path style="opacity:0.62" fill="#523c15" d="M 599.5,174.5 C 600.833,175.167 601.833,176.167 602.5,177.5C 600.5,177.5 599.5,176.5 599.5,174.5 Z"/></g>
<g><path style="opacity:0.859" fill="#735515" d="M 379.5,175.5 C 380.71,175.932 381.71,176.599 382.5,177.5C 380.821,177.715 379.821,177.048 379.5,175.5 Z"/></g>
<g><path style="opacity:0.525" fill="#4a3615" d="M 487.5,175.5 C 488.5,175.833 489.167,176.5 489.5,177.5C 488.167,177.5 487.5,176.833 487.5,175.5 Z"/></g>
<g><path style="opacity:0.725" fill="#634911" d="M 390.5,176.5 C 389.508,178.026 388.008,178.693 386,178.5C 384.615,178.486 383.449,178.152 382.5,177.5C 385.237,177.599 387.904,177.265 390.5,176.5 Z"/></g>
<g><path style="opacity:0.376" fill="#584112" d="M 602.5,177.5 C 604.806,177.993 607.139,178.326 609.5,178.5C 606.988,179.867 604.655,179.534 602.5,177.5 Z"/></g>
<g><path style="opacity:0.706" fill="#574013" d="M 622.5,178.5 C 625.167,179.5 625.167,180.5 622.5,181.5C 622.5,180.5 622.5,179.5 622.5,178.5 Z"/></g>
<g><path style="opacity:0.455" fill="#533d15" d="M 366.5,179.5 C 368.452,180.785 370.118,182.451 371.5,184.5C 368.856,183.856 367.189,182.189 366.5,179.5 Z"/></g>
<g><path style="opacity:0.008" fill="#2d2115" d="M 403.5,180.5 C 403.573,182.027 402.906,183.027 401.5,183.5C 401.427,181.973 402.094,180.973 403.5,180.5 Z"/></g>
<g><path style="opacity:0.098" fill="#352a12" d="M 474.5,178.5 C 475.674,179.514 476.34,180.847 476.5,182.5C 474.896,181.713 474.229,180.38 474.5,178.5 Z"/></g>
<g><path style="opacity:0.494" fill="#574015" d="M 588.5,179.5 C 590.785,181.118 592.785,183.118 594.5,185.5C 591.522,184.522 589.522,182.522 588.5,179.5 Z"/></g>
<g><path style="opacity:0.584" fill="#543e15" d="M 283.5,183.5 C 285.027,183.427 286.027,184.094 286.5,185.5C 284.973,185.573 283.973,184.906 283.5,183.5 Z"/></g>
<g><path style="opacity:0.004" fill="#2a2014" d="M 622.5,181.5 C 622.5,183.5 621.5,184.5 619.5,184.5C 620.167,183.167 621.167,182.167 622.5,181.5 Z"/></g>
<g><path style="opacity:0.424" fill="#684c12" d="M 371.5,184.5 C 373.027,184.427 374.027,185.094 374.5,186.5C 372.973,186.573 371.973,185.906 371.5,184.5 Z"/></g>
<g><path style="opacity:0.122" fill="#3b2d13" d="M 286.5,185.5 C 288.027,185.427 289.027,186.094 289.5,187.5C 287.973,187.573 286.973,186.906 286.5,185.5 Z"/></g>
<g><path style="opacity:0.106" fill="#3e2f12" d="M 462.5,185.5 C 461.22,186.931 459.553,187.598 457.5,187.5C 458.78,186.069 460.447,185.402 462.5,185.5 Z"/></g>
<g><path style="opacity:0.235" fill="#503c12" d="M 479.5,185.5 C 481.027,185.427 482.027,186.094 482.5,187.5C 480.973,187.573 479.973,186.906 479.5,185.5 Z"/></g>
<g><path style="opacity:0.157" fill="#3e2f13" d="M 594.5,185.5 C 596.027,185.427 597.027,186.094 597.5,187.5C 595.973,187.573 594.973,186.906 594.5,185.5 Z"/></g>
<g><path style="opacity:0.204" fill="#493712" d="M 667.5,185.5 C 669.027,185.427 670.027,186.094 670.5,187.5C 668.973,187.573 667.973,186.906 667.5,185.5 Z"/></g>
<g><path style="opacity:0.643" fill="#584115" d="M 290.5,187.5 C 292.099,187.232 293.432,187.566 294.5,188.5C 294.565,188.938 294.399,189.272 294,189.5C 292.698,188.915 291.531,188.249 290.5,187.5 Z"/></g>
<g><path style="opacity:0.576" fill="#473514" d="M 376.5,187.5 C 378.292,187.366 379.958,187.699 381.5,188.5C 381.44,189.043 381.107,189.376 380.5,189.5C 378.974,189.006 377.641,188.339 376.5,187.5 Z"/></g>
<g><path style="opacity:0.035" fill="#2d2314" d="M 394.5,187.5 C 393.469,188.249 392.302,188.915 391,189.5C 390.601,189.272 390.435,188.938 390.5,188.5C 391.568,187.566 392.901,187.232 394.5,187.5 Z"/></g>
<g><path style="opacity:0.682" fill="#564016" d="M 482.5,187.5 C 484.415,187.216 486.081,187.549 487.5,188.5C 487.565,188.938 487.399,189.272 487,189.5C 485.378,188.901 483.878,188.234 482.5,187.5 Z"/></g>
<g><path style="opacity:0.055" fill="#3d2f14" d="M 503.5,187.5 C 502.122,188.234 500.622,188.901 499,189.5C 498.601,189.272 498.435,188.938 498.5,188.5C 499.919,187.549 501.585,187.216 503.5,187.5 Z"/></g>
<g><path style="opacity:0.576" fill="#433215" d="M 597.5,187.5 C 599.292,187.366 600.958,187.699 602.5,188.5C 602.44,189.043 602.107,189.376 601.5,189.5C 599.974,189.006 598.641,188.339 597.5,187.5 Z"/></g>
<g><path style="opacity:0.047" fill="#322614" d="M 614.5,187.5 C 613.469,188.249 612.302,188.915 611,189.5C 610.601,189.272 610.435,188.938 610.5,188.5C 611.568,187.566 612.901,187.232 614.5,187.5 Z"/></g>
<g><path style="opacity:0.647" fill="#503b16" d="M 670.5,187.5 C 672.621,187.325 674.621,187.659 676.5,188.5C 676.44,189.043 676.107,189.376 675.5,189.5C 673.664,188.972 671.997,188.306 670.5,187.5 Z"/></g>
<g><path style="opacity:0.063" fill="#413114" d="M 691.5,187.5 C 690.122,188.234 688.622,188.901 687,189.5C 686.601,189.272 686.435,188.938 686.5,188.5C 687.919,187.549 689.585,187.216 691.5,187.5 Z"/></g>
<g><path style="opacity:0.867" fill="#488095" d="M 104.5,167.5 C 104.5,193.167 104.5,218.833 104.5,244.5C 118.167,244.5 131.833,244.5 145.5,244.5C 131.5,245.833 117.5,245.833 103.5,244.5C 103.169,218.661 103.502,192.995 104.5,167.5 Z"/></g>
<g><path style="opacity:1" fill="#439fc5" d="M 145.5,168.5 C 145.5,180.167 145.5,191.833 145.5,203.5C 143.901,203.232 142.568,203.566 141.5,204.5C 140.662,204.842 140.328,205.508 140.5,206.5C 137.764,203.343 138.764,202.009 143.5,202.5C 143.5,190.833 143.5,179.167 143.5,167.5C 130.833,167.5 118.167,167.5 105.5,167.5C 105.5,192.833 105.5,218.167 105.5,243.5C 118.167,243.5 130.833,243.5 143.5,243.5C 143.5,231.833 143.5,220.167 143.5,208.5C 143.56,207.957 143.893,207.624 144.5,207.5C 145.499,219.815 145.832,232.149 145.5,244.5C 131.833,244.5 118.167,244.5 104.5,244.5C 104.5,218.833 104.5,193.167 104.5,167.5C 104.611,166.883 104.944,166.383 105.5,166C 118.829,165.5 132.163,165.333 145.5,165.5C 145.5,166.5 145.5,167.5 145.5,168.5 Z"/></g>
<g><path style="opacity:1" fill="#d15e34" d="M 102.5,162.5 C 117.01,162.171 131.343,162.504 145.5,163.5C 130.99,163.171 116.657,163.504 102.5,164.5C 102.5,191.167 102.5,217.833 102.5,244.5C 102.5,245.167 102.167,245.5 101.5,245.5C 76.661,245.831 51.9944,245.498 27.5,244.5C 51.8333,244.5 76.1667,244.5 100.5,244.5C 100.5,233.167 100.5,221.833 100.5,210.5C 100.88,204.602 100.213,199.602 98.5,195.5C 99.8333,187.833 99.8333,180.167 98.5,172.5C 98.3856,169.622 99.0523,166.956 100.5,164.5C 99.3915,162.786 100.058,162.119 102.5,162.5 Z"/></g>
<g><path style="opacity:0.373" fill="#644a10" d="M 452.5,203.5 C 456.646,202.353 460.98,202.186 465.5,203C 466.811,205.274 466.811,207.44 465.5,209.5C 465.739,207.533 465.406,205.699 464.5,204C 460.514,203.501 456.514,203.334 452.5,203.5 Z"/></g>
<g><path style="opacity:0.533" fill="#5a4313" d="M 535.5,203.5 C 532.833,203.5 530.167,203.5 527.5,203.5C 530.214,201.028 532.881,201.028 535.5,203.5 Z"/></g>
<g><path style="opacity:0.576" fill="#5f4613" d="M 542.5,206.5 C 542.5,205.5 542.5,204.5 542.5,203.5C 539.99,203.054 537.99,203.72 536.5,205.5C 536.167,205.5 535.833,205.5 535.5,205.5C 535.5,204.833 535.5,204.167 535.5,203.5C 537.138,202.841 538.805,202.174 540.5,201.5C 543.219,202.576 543.886,204.243 542.5,206.5 Z"/></g>
<g><path style="opacity:0.369" fill="#59420e" d="M 566.5,203.5 C 561.737,203.226 557.07,203.559 552.5,204.5C 554.397,203.195 556.731,202.529 559.5,202.5C 562.025,202.503 564.359,202.837 566.5,203.5 Z"/></g>
<g><path style="opacity:0.573" fill="#564012" d="M 592.5,203.5 C 589.5,203.5 586.5,203.5 583.5,203.5C 586.447,201.12 589.447,201.12 592.5,203.5 Z"/></g>
<g><path style="opacity:0.559" fill="#4e3a13" d="M 634.5,203.5 C 631.833,203.5 629.167,203.5 626.5,203.5C 629.214,201.028 631.881,201.028 634.5,203.5 Z"/></g>
<g><path style="opacity:0.557" fill="#564012" d="M 661.5,203.5 C 658.833,203.5 656.167,203.5 653.5,203.5C 656.167,200.833 658.833,200.833 661.5,203.5 Z"/></g>
<g><path style="opacity:0.435" fill="#584113" d="M 684.5,204.5 C 682.283,203.631 679.95,203.298 677.5,203.5C 677.5,204.5 677.5,205.5 677.5,206.5C 675.242,206.225 674.908,205.225 676.5,203.5C 678.108,202.682 679.775,202.015 681.5,201.5C 683.213,201.879 684.213,202.879 684.5,204.5 Z"/></g>
<g><path style="opacity:0.545" fill="#574013" d="M 696.5,203.5 C 694.5,203.5 692.5,203.5 690.5,203.5C 692.5,200.833 694.5,200.833 696.5,203.5 Z"/></g>
<g><path style="opacity:1" fill="#d89c0e" d="M 527.5,203.5 C 530.167,203.5 532.833,203.5 535.5,203.5C 535.5,204.167 535.5,204.833 535.5,205.5C 535.833,208.167 536.167,208.167 536.5,205.5C 537.99,203.72 539.99,203.054 542.5,203.5C 542.5,204.5 542.5,205.5 542.5,206.5C 539.604,211.274 536.437,215.941 533,220.5C 531.698,219.915 530.531,219.249 529.5,218.5C 529.785,216.712 529.452,215.045 528.5,213.5C 527.893,213.624 527.56,213.957 527.5,214.5C 527.269,217.9 525.436,219.9 522,220.5C 520.961,219.756 520.461,218.756 520.5,217.5C 520.884,213.511 520.217,209.845 518.5,206.5C 517.903,206.265 517.57,205.765 517.5,205C 520.455,201.254 523.788,200.754 527.5,203.5 Z"/></g>
<g><path style="opacity:1" fill="#d0970f" d="M 632.5,213.5 C 634.176,214.183 634.843,215.517 634.5,217.5C 634.158,218.338 633.492,218.672 632.5,218.5C 628.227,218.919 624.227,218.252 620.5,216.5C 619.167,214.167 619.167,211.833 620.5,209.5C 622.262,208.738 623.262,207.404 623.5,205.5C 625.027,205.573 626.027,204.906 626.5,203.5C 629.167,203.5 631.833,203.5 634.5,203.5C 635.88,202.294 637.047,202.627 638,204.5C 639.314,208.181 638.147,210.514 634.5,211.5C 632.728,210.64 631.395,209.307 630.5,207.5C 628.717,209.023 628.051,211.023 628.5,213.5C 629.833,213.5 631.167,213.5 632.5,213.5 Z"/></g>
<g><path style="opacity:0.031" fill="#392b14" d="M 661.5,203.5 C 663.5,203.5 664.5,204.5 664.5,206.5C 663.167,205.833 662.167,204.833 661.5,203.5 Z"/></g>
<g><path style="opacity:1" fill="#dea10a" d="M 275.5,203.5 C 276.219,205.764 276.552,208.097 276.5,210.5C 275.738,212.262 274.404,213.262 272.5,213.5C 270.833,213.5 269.167,213.5 267.5,213.5C 267.5,215.167 267.5,216.833 267.5,218.5C 266.209,218.263 265.209,218.596 264.5,219.5C 263.039,220.686 261.705,220.686 260.5,219.5C 259.89,218.609 259.557,217.609 259.5,216.5C 260.167,215.5 260.833,214.5 261.5,213.5C 263.312,211.287 263.645,208.953 262.5,206.5C 261.209,205.458 261.209,204.292 262.5,203C 267.02,202.186 271.354,202.353 275.5,203.5 Z"/></g>
<g><path style="opacity:1" fill="#d49a0d" d="M 424.5,203.5 C 423.85,205.435 423.517,207.435 423.5,209.5C 421.36,211.881 421.027,214.548 422.5,217.5C 420.7,219.05 418.533,220.05 416,220.5C 414.355,220.307 412.521,220.14 410.5,220C 407.52,217.586 406.853,214.752 408.5,211.5C 410.167,210.5 411.5,209.167 412.5,207.5C 413.568,206.566 414.901,206.232 416.5,206.5C 416.5,205.5 416.5,204.5 416.5,203.5C 419.352,202.742 422.019,202.742 424.5,203.5 Z"/></g>
<g><path style="opacity:1" fill="#ecaa05" d="M 452.5,203.5 C 456.514,203.334 460.514,203.501 464.5,204C 465.406,205.699 465.739,207.533 465.5,209.5C 466.777,212.205 466.61,214.872 465,217.5C 464.329,218.252 463.496,218.586 462.5,218.5C 457.381,219.103 452.715,218.436 448.5,216.5C 451.341,214.36 452.674,211.36 452.5,207.5C 451.314,206.039 451.314,204.705 452.5,203.5 Z"/></g>
<g><path style="opacity:1" fill="#ecab05" d="M 566.5,203.5 C 567.289,203.783 567.956,204.283 568.5,205C 567.901,206.622 567.234,208.122 566.5,209.5C 566.135,211.588 566.135,213.921 566.5,216.5C 566.027,217.906 565.027,218.573 563.5,218.5C 559.116,218.826 554.783,218.492 550.5,217.5C 551.127,216.583 551.461,215.583 551.5,214.5C 552.924,212.485 553.59,210.152 553.5,207.5C 552.89,206.609 552.557,205.609 552.5,204.5C 557.07,203.559 561.737,203.226 566.5,203.5 Z"/></g>
<g><path style="opacity:0.999" fill="#e4a50b" d="M 583.5,203.5 C 586.5,203.5 589.5,203.5 592.5,203.5C 592.5,205.167 592.5,206.833 592.5,208.5C 590.516,208.617 588.85,207.95 587.5,206.5C 587.167,206.833 586.833,207.167 586.5,207.5C 588.029,208.763 589.695,209.763 591.5,210.5C 591.5,212.167 591.5,213.833 591.5,215.5C 588.48,219.84 584.48,221.173 579.5,219.5C 577.832,217.521 577.166,215.188 577.5,212.5C 579.062,212.733 580.395,213.4 581.5,214.5C 582.833,214.167 582.833,213.833 581.5,213.5C 579.832,211.521 579.166,209.188 579.5,206.5C 580.262,204.738 581.596,203.738 583.5,203.5 Z"/></g>
<g><path style="opacity:0.678" fill="#634914" d="M 626.5,203.5 C 626.027,204.906 625.027,205.573 623.5,205.5C 623.973,204.094 624.973,203.427 626.5,203.5 Z"/></g>
<g><path style="opacity:1" fill="#e5a609" d="M 653.5,203.5 C 656.167,203.5 658.833,203.5 661.5,203.5C 662.167,204.833 663.167,205.833 664.5,206.5C 666.306,212.223 664.306,216.223 658.5,218.5C 655.5,218.5 652.5,218.5 649.5,218.5C 649.167,217.5 648.5,216.833 647.5,216.5C 647.368,213.43 647.701,210.43 648.5,207.5C 649.539,205.469 651.205,204.136 653.5,203.5 Z M 656.5,207.5 C 657.833,209.833 657.833,212.167 656.5,214.5C 654.926,212.898 654.259,210.898 654.5,208.5C 655.167,208.167 655.833,207.833 656.5,207.5 Z"/></g>
<g><path style="opacity:1" fill="#ecab04" d="M 684.5,204.5 C 685.29,205.609 685.79,206.942 686,208.5C 686.996,206.34 688.496,204.673 690.5,203.5C 692.5,203.5 694.5,203.5 696.5,203.5C 697.833,204.5 697.833,205.5 696.5,206.5C 694.824,207.183 694.157,208.517 694.5,210.5C 693.883,210.611 693.383,210.944 693,211.5C 692.503,213.81 692.337,216.143 692.5,218.5C 690.076,218.808 687.743,218.474 685.5,217.5C 685.982,213.899 685.315,214.232 683.5,218.5C 682.833,219.833 682.167,219.833 681.5,218.5C 680.272,213.34 679.605,213.34 679.5,218.5C 677.833,218.5 676.167,218.5 674.5,218.5C 673.662,218.158 673.328,217.492 673.5,216.5C 673.833,215.5 674.5,214.833 675.5,214.5C 676.924,212.485 677.59,210.152 677.5,207.5C 677.5,207.167 677.5,206.833 677.5,206.5C 677.5,205.5 677.5,204.5 677.5,203.5C 679.95,203.298 682.283,203.631 684.5,204.5 Z"/></g>
<g><path style="opacity:0.278" fill="#3a2c11" d="M 290.5,207.5 C 291.449,206.848 292.615,206.514 294,206.5C 296.008,206.307 297.508,206.974 298.5,208.5C 295.904,207.735 293.237,207.401 290.5,207.5 Z"/></g>
<g><path style="opacity:0.243" fill="#372912" d="M 424.5,203.5 C 425.484,205.598 425.151,207.598 423.5,209.5C 423.517,207.435 423.85,205.435 424.5,203.5 Z"/></g>
<g><path style="opacity:0.271" fill="#403010" d="M 478.5,207.5 C 481.061,206.233 483.728,206.233 486.5,207.5C 484.081,207.805 481.414,207.805 478.5,207.5 Z"/></g>
<g><path style="opacity:0.796" fill="#6b4f14" d="M 623.5,205.5 C 623.262,207.404 622.262,208.738 620.5,209.5C 620.738,207.596 621.738,206.262 623.5,205.5 Z"/></g>
<g><path style="opacity:0.439" fill="#604612" d="M 275.5,203.5 C 276.993,204.312 277.66,205.645 277.5,207.5C 277.48,208.726 277.147,209.726 276.5,210.5C 276.552,208.097 276.219,205.764 275.5,203.5 Z"/></g>
<g><path style="opacity:1" fill="#d1970e" d="M 318.5,207.5 C 321.748,207.762 324.748,207.762 327.5,207.5C 328.946,206.387 330.613,206.22 332.5,207C 333.022,207.561 333.355,208.228 333.5,209C 330.94,211.969 328.274,214.803 325.5,217.5C 324.5,217.833 323.833,218.5 323.5,219.5C 321.975,220.389 320.975,219.722 320.5,217.5C 320.289,215.576 319.623,215.243 318.5,216.5C 317.934,218.078 316.934,219.412 315.5,220.5C 314.893,220.376 314.56,220.043 314.5,219.5C 314.068,218.29 313.401,217.29 312.5,216.5C 312.598,214.447 311.931,212.78 310.5,211.5C 309.761,211.631 309.094,211.464 308.5,211C 310.411,206.436 313.744,205.269 318.5,207.5 Z"/></g>
<g><path style="opacity:0.259" fill="#3f2f10" d="M 318.5,207.5 C 321.396,206.225 324.396,206.225 327.5,207.5C 324.748,207.762 321.748,207.762 318.5,207.5 Z"/></g>
<g><path style="opacity:0.761" fill="#6b4e12" d="M 371.5,207.5 C 369.194,207.993 366.861,208.326 364.5,208.5C 366.655,206.466 368.988,206.133 371.5,207.5 Z"/></g>
<g><path style="opacity:1" fill="#7e5c15" d="M 376.5,210.5 C 375.198,208.972 373.531,207.972 371.5,207.5C 373.068,206.527 374.735,206.36 376.5,207C 377.791,208.292 377.791,209.458 376.5,210.5 Z"/></g>
<g><path style="opacity:0.404" fill="#6f5212" d="M 269.5,206.5 C 271.807,207.405 271.807,208.738 269.5,210.5C 268.374,209.192 268.374,207.858 269.5,206.5 Z"/></g>
<g><path style="opacity:1" fill="#e4a507" d="M 290.5,207.5 C 293.237,207.401 295.904,207.735 298.5,208.5C 298.5,210.833 298.5,213.167 298.5,215.5C 297.738,217.262 296.404,218.262 294.5,218.5C 291.833,218.5 289.167,218.5 286.5,218.5C 285.833,218.5 285.5,218.167 285.5,217.5C 285.56,214.659 286.226,211.993 287.5,209.5C 288.29,208.599 289.29,207.932 290.5,207.5 Z"/></g>
<g><path style="opacity:0.588" fill="#503a16" d="M 345.5,207.5 C 341.992,210.283 340.658,213.949 341.5,218.5C 338.51,213.452 339.843,209.785 345.5,207.5 Z"/></g>
<g><path style="opacity:1" fill="#d99d0e" d="M 351.5,207.5 C 352.341,209.379 352.675,211.379 352.5,213.5C 350.396,213.201 348.396,213.534 346.5,214.5C 348.006,215.747 349.506,215.747 351,214.5C 351.483,215.448 351.649,216.448 351.5,217.5C 348.395,220.784 345.061,221.117 341.5,218.5C 340.658,213.949 341.992,210.283 345.5,207.5C 347.5,206.167 349.5,206.167 351.5,207.5 Z"/></g>
<g><path style="opacity:1" fill="#cf9610" d="M 371.5,207.5 C 373.531,207.972 375.198,208.972 376.5,210.5C 376.573,212.027 375.906,213.027 374.5,213.5C 373.167,213.5 371.833,213.5 370.5,213.5C 370.263,214.791 370.596,215.791 371.5,216.5C 372.65,218.267 371.983,219.433 369.5,220C 367.288,220.789 365.288,220.622 363.5,219.5C 362.167,218.167 362.167,216.833 363.5,215.5C 364.203,213.054 364.537,210.72 364.5,208.5C 366.861,208.326 369.194,207.993 371.5,207.5 Z"/></g>
<g><path style="opacity:0.643" fill="#705213" d="M 390.5,207.5 C 389.5,209.167 388.167,210.5 386.5,211.5C 386.833,209.167 388.167,207.833 390.5,207.5 Z"/></g>
<g><path style="opacity:1" fill="#dca00d" d="M 396.5,207.5 C 397.341,209.379 397.675,211.379 397.5,213.5C 395.396,213.201 393.396,213.534 391.5,214.5C 393.006,215.747 394.506,215.747 396,214.5C 396.483,215.448 396.649,216.448 396.5,217.5C 394.2,220.052 391.533,220.718 388.5,219.5C 386.774,217.18 386.107,214.513 386.5,211.5C 388.167,210.5 389.5,209.167 390.5,207.5C 392.5,206.167 394.5,206.167 396.5,207.5 Z"/></g>
<g><path style="opacity:1" fill="#d1970e" d="M 475.5,222.5 C 474.766,221.292 474.433,219.959 474.5,218.5C 474.5,217.833 474.833,217.5 475.5,217.5C 476.833,217.5 478.167,217.5 479.5,217.5C 479.149,214.762 478.482,212.096 477.5,209.5C 477.863,208.817 478.196,208.15 478.5,207.5C 481.414,207.805 484.081,207.805 486.5,207.5C 487.946,206.387 489.613,206.22 491.5,207C 492.022,207.561 492.355,208.228 492.5,209C 489.396,212.029 486.896,215.529 485,219.5C 482.423,223.068 479.256,224.068 475.5,222.5 Z"/></g>
<g><path style="opacity:0.498" fill="#4f3a13" d="M 412.5,207.5 C 411.5,209.167 410.167,210.5 408.5,211.5C 408.833,209.167 410.167,207.833 412.5,207.5 Z"/></g>
<g><path style="opacity:0.584" fill="#654a13" d="M 592.5,203.5 C 595.247,206.196 594.914,208.529 591.5,210.5C 589.695,209.763 588.029,208.763 586.5,207.5C 586.833,207.167 587.167,206.833 587.5,206.5C 588.85,207.95 590.516,208.617 592.5,208.5C 592.5,206.833 592.5,205.167 592.5,203.5 Z"/></g>
<g><path style="opacity:0.004" fill="#201914" d="M 696.5,206.5 C 696.011,207.995 695.345,209.329 694.5,210.5C 694.157,208.517 694.824,207.183 696.5,206.5 Z"/></g>
<g><path style="opacity:0.215" fill="#351c1c" d="M 25.5,148.5 C 25.1743,181.24 25.5076,213.907 26.5,246.5C 25.1672,230.514 24.5005,214.181 24.5,197.5C 24.5001,180.997 24.8334,164.663 25.5,148.5 Z"/></g>
<g><path style="opacity:0.925" fill="#755513" d="M 452.5,207.5 C 452.674,211.36 451.341,214.36 448.5,216.5C 449.85,213.428 451.183,210.428 452.5,207.5 Z"/></g>
<g><path style="opacity:0.702" fill="#5f4613" d="M 553.5,207.5 C 553.59,210.152 552.924,212.485 551.5,214.5C 551.41,211.848 552.076,209.515 553.5,207.5 Z"/></g>
<g><path style="opacity:0.714" fill="#7c5b13" d="M 656.5,207.5 C 659.167,209.833 659.167,212.167 656.5,214.5C 657.833,212.167 657.833,209.833 656.5,207.5 Z"/></g>
<g><path style="opacity:0.765" fill="#6b4f12" d="M 677.5,207.5 C 677.59,210.152 676.924,212.485 675.5,214.5C 675.41,211.848 676.076,209.515 677.5,207.5 Z"/></g>
<g><path style="opacity:1" fill="#b36042" d="M 42.5,175.5 C 42.5,181.833 42.5,188.167 42.5,194.5C 42.3342,199.179 42.5008,203.845 43,208.5C 43.7172,209.044 44.2172,209.711 44.5,210.5C 57.9938,211.661 71.6604,211.827 85.5,211C 86.056,210.617 86.3893,210.117 86.5,209.5C 86.5,204.167 86.5,198.833 86.5,193.5C 86.5,187.5 86.5,181.5 86.5,175.5C 87.6597,187.326 87.8263,199.326 87,211.5C 72.5747,212.656 58.0747,212.823 43.5,212C 43,211.5 42.5,211 42,210.5C 41.1739,198.659 41.3405,186.993 42.5,175.5 Z M 43.5,176.5 C 43.5,181.833 43.5,187.167 43.5,192.5C 57.5,192.5 71.5,192.5 85.5,192.5C 85.5,187.167 85.5,181.833 85.5,176.5C 71.5,176.5 57.5,176.5 43.5,176.5 Z"/></g>
<g><path style="opacity:1" fill="#bc917c" d="M 84.5,209.5 C 85.1667,209.5 85.8333,209.5 86.5,209.5C 86.3893,210.117 86.056,210.617 85.5,211C 71.6604,211.827 57.9938,211.661 44.5,210.5C 58.0105,210.829 71.3438,210.496 84.5,209.5 Z"/></g>
<g><path style="opacity:1" fill="#bdc4c3" d="M 42.5,194.5 C 43.1667,194.5 43.8333,194.5 44.5,194.5C 44.1975,199.43 44.5308,204.263 45.5,209C 58.4957,209.5 71.4957,209.667 84.5,209.5C 71.3438,210.496 58.0105,210.829 44.5,210.5C 44.2172,209.711 43.7172,209.044 43,208.5C 42.5008,203.845 42.3342,199.179 42.5,194.5 Z"/></g>
<g><path style="opacity:1" fill="#94d0e7" d="M 86.5,193.5 C 86.5,198.833 86.5,204.167 86.5,209.5C 85.8333,209.5 85.1667,209.5 84.5,209.5C 71.4957,209.667 58.4957,209.5 45.5,209C 44.5308,204.263 44.1975,199.43 44.5,194.5C 58.3234,193.504 72.3234,193.171 86.5,193.5 Z"/></g>
<g><path style="opacity:0.659" fill="#533e15" d="M 298.5,208.5 C 301.167,210.833 301.167,213.167 298.5,215.5C 298.5,213.167 298.5,210.833 298.5,208.5 Z"/></g>
<g><path style="opacity:0.294" fill="#4a3712" d="M 566.5,209.5 C 567.756,211.941 567.756,214.274 566.5,216.5C 566.135,213.921 566.135,211.588 566.5,209.5 Z"/></g>
<g><path style="opacity:0.596" fill="#594114" d="M 591.5,210.5 C 593.922,212.048 593.922,213.714 591.5,215.5C 591.5,213.833 591.5,212.167 591.5,210.5 Z"/></g>
<g><path style="opacity:0.565" fill="#624813" d="M 262.5,206.5 C 263.645,208.953 263.312,211.287 261.5,213.5C 261.062,213.565 260.728,213.399 260.5,213C 261.669,210.993 262.335,208.827 262.5,206.5 Z"/></g>
<g><path style="opacity:0.788" fill="#805d13" d="M 423.5,209.5 C 422.603,212.36 422.27,215.027 422.5,217.5C 421.027,214.548 421.36,211.881 423.5,209.5 Z"/></g>
<g><path style="opacity:0.2" fill="#372913" d="M 518.5,206.5 C 520.217,209.845 520.884,213.511 520.5,217.5C 519.475,214.026 518.808,210.36 518.5,206.5 Z"/></g>
<g><path style="opacity:0.702" fill="#75560f" d="M 579.5,206.5 C 579.166,209.188 579.832,211.521 581.5,213.5C 581.5,213.833 581.5,214.167 581.5,214.5C 580.395,213.4 579.062,212.733 577.5,212.5C 578.048,210.374 578.715,208.374 579.5,206.5 Z"/></g>
<g><path style="opacity:0.318" fill="#624811" d="M 287.5,209.5 C 286.226,211.993 285.56,214.659 285.5,217.5C 284.387,216.054 284.22,214.387 285,212.5C 285.236,210.881 286.069,209.881 287.5,209.5 Z"/></g>
<g><path style="opacity:0.886" fill="#825f13" d="M 351.5,207.5 C 353.439,208.014 354.439,209.347 354.5,211.5C 353.488,213.563 352.488,215.563 351.5,217.5C 351.649,216.448 351.483,215.448 351,214.5C 349.506,215.747 348.006,215.747 346.5,214.5C 348.396,213.534 350.396,213.201 352.5,213.5C 352.675,211.379 352.341,209.379 351.5,207.5 Z"/></g>
<g><path style="opacity:0.031" fill="#161213" d="M 374.5,213.5 C 373.1,214.1 372.1,215.1 371.5,216.5C 370.596,215.791 370.263,214.791 370.5,213.5C 371.833,213.5 373.167,213.5 374.5,213.5 Z"/></g>
<g><path style="opacity:0.853" fill="#785715" d="M 396.5,207.5 C 398.439,208.014 399.439,209.347 399.5,211.5C 398.488,213.563 397.488,215.563 396.5,217.5C 396.649,216.448 396.483,215.448 396,214.5C 394.506,215.747 393.006,215.747 391.5,214.5C 393.396,213.534 395.396,213.201 397.5,213.5C 397.675,211.379 397.341,209.379 396.5,207.5 Z"/></g>
<g><path style="opacity:0.849" fill="#6a4e16" d="M 632.5,213.5 C 633.542,212.209 634.708,212.209 636,213.5C 636.348,215.14 635.848,216.473 634.5,217.5C 634.843,215.517 634.176,214.183 632.5,213.5 Z"/></g>
<g><path style="opacity:0.608" fill="#503c15" d="M 648.5,207.5 C 647.701,210.43 647.368,213.43 647.5,216.5C 646.522,216.189 645.855,215.522 645.5,214.5C 646.641,213.575 646.641,212.741 645.5,212C 646.053,210.122 647.053,208.622 648.5,207.5 Z"/></g>
<g><path style="opacity:0.31" fill="#413112" d="M 310.5,211.5 C 311.931,212.78 312.598,214.447 312.5,216.5C 311.069,215.22 310.402,213.553 310.5,211.5 Z"/></g>
<g><path style="opacity:1" fill="#d2980f" d="M 607.5,218.5 C 605.833,218.5 604.167,218.5 602.5,218.5C 602.5,217.167 602.5,215.833 602.5,214.5C 606.062,211.41 608.395,212.244 609.5,217C 608.956,217.717 608.289,218.217 607.5,218.5 Z"/></g>
<g><path style="opacity:0.431" fill="#6b4f11" d="M 654.5,208.5 C 654.259,210.898 654.926,212.898 656.5,214.5C 655.434,215.692 654.601,215.359 654,213.5C 653.22,211.613 653.387,209.946 654.5,208.5 Z"/></g>
<g><path style="opacity:0.129" fill="#2b2211" d="M 318.5,216.5 C 319.623,215.243 320.289,215.576 320.5,217.5C 319.833,217.167 319.167,216.833 318.5,216.5 Z"/></g>
<g><path style="opacity:0.698" fill="#674b15" d="M 386.5,211.5 C 386.107,214.513 386.774,217.18 388.5,219.5C 386.436,219.238 385.103,218.071 384.5,216C 385.833,215 385.833,214 384.5,213C 385.044,212.283 385.711,211.783 386.5,211.5 Z"/></g>
<g><path style="opacity:0.239" fill="#433213" d="M 478.5,207.5 C 478.196,208.15 477.863,208.817 477.5,209.5C 478.482,212.096 479.149,214.762 479.5,217.5C 478.167,217.5 476.833,217.5 475.5,217.5C 476.263,216.732 477.263,216.232 478.5,216C 477.606,213.932 476.94,211.765 476.5,209.5C 476.747,208.287 477.414,207.62 478.5,207.5 Z"/></g>
<g><path style="opacity:0.122" fill="#362912" d="M 527.5,214.5 C 527.56,213.957 527.893,213.624 528.5,213.5C 529.452,215.045 529.785,216.712 529.5,218.5C 528.833,217.167 528.167,215.833 527.5,214.5 Z"/></g>
<g><path style="opacity:0.314" fill="#3f3012" d="M 577.5,212.5 C 577.166,215.188 577.832,217.521 579.5,219.5C 578.504,219.586 577.671,219.252 577,218.5C 576.211,216.288 576.378,214.288 577.5,212.5 Z"/></g>
<g><path style="opacity:0.188" fill="#352812" d="M 363.5,215.5 C 362.167,216.833 362.167,218.167 363.5,219.5C 362.414,219.38 361.747,218.713 361.5,217.5C 361.747,216.287 362.414,215.62 363.5,215.5 Z"/></g>
<g><path style="opacity:0.161" fill="#2e2412" d="M 259.5,216.5 C 259.557,217.609 259.89,218.609 260.5,219.5C 258.448,218.947 258.115,217.947 259.5,216.5 Z"/></g>
<g><path style="opacity:0.216" fill="#4e3913" d="M 312.5,216.5 C 313.401,217.29 314.068,218.29 314.5,219.5C 312.952,219.179 312.285,218.179 312.5,216.5 Z"/></g>
<g><path style="opacity:0.024" fill="#302412" d="M 647.5,216.5 C 648.5,216.833 649.167,217.5 649.5,218.5C 648.167,218.5 647.5,217.833 647.5,216.5 Z"/></g>
<g><path style="opacity:0.114" fill="#251d12" d="M 673.5,216.5 C 673.328,217.492 673.662,218.158 674.5,218.5C 674.5,218.833 674.5,219.167 674.5,219.5C 672.448,218.947 672.115,217.947 673.5,216.5 Z"/></g>
<g><path style="opacity:0.624" fill="#4b3715" d="M 272.5,213.5 C 271.282,214.161 269.949,214.828 268.5,215.5C 269.773,218.271 268.773,219.938 265.5,220.5C 264.893,220.376 264.56,220.043 264.5,219.5C 265.209,218.596 266.209,218.263 267.5,218.5C 267.5,216.833 267.5,215.167 267.5,213.5C 269.167,213.5 270.833,213.5 272.5,213.5 Z"/></g>
<g><path style="opacity:0.965" fill="#725318" d="M 286.5,218.5 C 289.167,218.5 291.833,218.5 294.5,218.5C 293.828,219.267 292.995,219.934 292,220.5C 290.887,219.289 289.72,219.289 288.5,220.5C 287.478,220.145 286.811,219.478 286.5,218.5 Z"/></g>
<g><path style="opacity:0.004" fill="#2e2314" d="M 325.5,217.5 C 325.5,218.833 324.833,219.5 323.5,219.5C 323.833,218.5 324.5,217.833 325.5,217.5 Z"/></g>
<g><path style="opacity:0.708" fill="#654917" d="M 448.5,216.5 C 452.715,218.436 457.381,219.103 462.5,218.5C 461.737,219.268 460.737,219.768 459.5,220C 455.801,220.334 452.301,220.501 449,220.5C 447.37,219.182 447.203,217.849 448.5,216.5 Z"/></g>
<g><path style="opacity:0.726" fill="#694b18" d="M 551.5,214.5 C 551.461,215.583 551.127,216.583 550.5,217.5C 554.783,218.492 559.116,218.826 563.5,218.5C 561.193,220.047 558.527,220.713 555.5,220.5C 553.5,220.167 551.5,219.833 549.5,219.5C 548.178,217.133 548.845,215.467 551.5,214.5 Z"/></g>
<g><path style="opacity:0.939" fill="#644818" d="M 602.5,214.5 C 602.5,215.833 602.5,217.167 602.5,218.5C 604.167,218.5 605.833,218.5 607.5,218.5C 605.141,221.18 602.807,221.013 600.5,218C 601.085,216.698 601.751,215.531 602.5,214.5 Z"/></g>
<g><path style="opacity:0.91" fill="#6e5019" d="M 620.5,216.5 C 624.227,218.252 628.227,218.919 632.5,218.5C 627.904,221.581 623.904,220.915 620.5,216.5 Z"/></g>
<g><path style="opacity:0.973" fill="#6e5019" d="M 649.5,218.5 C 652.5,218.5 655.5,218.5 658.5,218.5C 657.828,219.267 656.995,219.934 656,220.5C 653.643,220.997 651.476,220.33 649.5,218.5 Z"/></g>
<g><path style="opacity:0.91" fill="#876114" d="M 681.5,218.5 C 680.279,219.028 679.113,219.695 678,220.5C 676.989,219.663 675.822,219.33 674.5,219.5C 674.5,219.167 674.5,218.833 674.5,218.5C 676.167,218.5 677.833,218.5 679.5,218.5C 679.605,213.34 680.272,213.34 681.5,218.5 Z"/></g>
<g><path style="opacity:0.916" fill="#896314" d="M 694.5,210.5 C 693.746,213.378 693.412,216.211 693.5,219C 690.203,220.256 686.87,220.089 683.5,218.5C 685.315,214.232 685.982,213.899 685.5,217.5C 687.743,218.474 690.076,218.808 692.5,218.5C 692.337,216.143 692.503,213.81 693,211.5C 693.383,210.944 693.883,210.611 694.5,210.5 Z"/></g>
<g><path style="opacity:0.01" fill="#1a1613" d="M 474.5,218.5 C 474.433,219.959 474.766,221.292 475.5,222.5C 474.414,222.38 473.747,221.713 473.5,220.5C 473.543,219.584 473.876,218.917 474.5,218.5 Z"/></g>
<g><path style="opacity:0.904" fill="#566876" d="M 145.5,168.5 C 145.833,168.5 146.167,168.5 146.5,168.5C 146.5,193.833 146.5,219.167 146.5,244.5C 146.167,244.5 145.833,244.5 145.5,244.5C 145.832,232.149 145.499,219.815 144.5,207.5C 143.893,207.624 143.56,207.957 143.5,208.5C 141.821,208.715 140.821,208.048 140.5,206.5C 140.328,205.508 140.662,204.842 141.5,204.5C 142.568,203.566 143.901,203.232 145.5,203.5C 145.5,191.833 145.5,180.167 145.5,168.5 Z M 141.5,204.5 C 143.337,204.639 143.67,205.306 142.5,206.5C 141.702,206.043 141.369,205.376 141.5,204.5 Z"/></g>
<g><path style="opacity:0.893" fill="#c6613b" d="M 219.5,149.5 C 221.5,149.5 223.5,149.5 225.5,149.5C 225.5,181.5 225.5,213.5 225.5,245.5C 199.5,245.5 173.5,245.5 147.5,245.5C 146.833,245.5 146.5,245.167 146.5,244.5C 146.5,219.167 146.5,193.833 146.5,168.5C 146.5,167.167 146.5,165.833 146.5,164.5C 131.833,164.5 117.167,164.5 102.5,164.5C 116.657,163.504 130.99,163.171 145.5,163.5C 146.5,163.5 147.5,163.5 148.5,163.5C 148.5,190.5 148.5,217.5 148.5,244.5C 173.5,244.5 198.5,244.5 223.5,244.5C 223.5,213.167 223.5,181.833 223.5,150.5C 221.901,150.768 220.568,150.434 219.5,149.5 Z M 165.5,176.5 C 165.5,181.833 165.5,187.167 165.5,192.5C 179.5,192.5 193.5,192.5 207.5,192.5C 207.5,187.167 207.5,181.833 207.5,176.5C 193.5,176.5 179.5,176.5 165.5,176.5 Z"/></g>
<g><path style="opacity:1" fill="#ce5830" d="M 208.5,175.5 C 193.833,175.5 179.167,175.5 164.5,175.5C 163.167,187.167 163.167,198.833 164.5,210.5C 164.611,211.117 164.944,211.617 165.5,212C 179.829,212.5 194.163,212.667 208.5,212.5C 193.672,213.661 178.672,213.828 163.5,213C 163,212.5 162.5,212 162,211.5C 161.333,200.167 161.333,188.833 162,177.5C 162.309,176.234 162.809,175.067 163.5,174C 178.167,173.333 192.833,173.333 207.5,174C 208.056,174.383 208.389,174.883 208.5,175.5 Z"/></g>
<g><path style="opacity:1" fill="#cc6743" d="M 164.5,210.5 C 165.167,210.5 165.833,210.5 166.5,210.5C 180.323,211.496 194.323,211.829 208.5,211.5C 208.5,211.833 208.5,212.167 208.5,212.5C 194.163,212.667 179.829,212.5 165.5,212C 164.944,211.617 164.611,211.117 164.5,210.5 Z"/></g>
<g><path style="opacity:1" fill="#bb8875" d="M 208.5,175.5 C 209.802,187.372 209.802,199.372 208.5,211.5C 194.323,211.829 180.323,211.496 166.5,210.5C 180.167,210.5 193.833,210.5 207.5,210.5C 207.5,204.833 207.5,199.167 207.5,193.5C 208.49,187.69 208.823,181.69 208.5,175.5 Z"/></g>
<g><path style="opacity:1" fill="#a2bfcc" d="M 207.5,193.5 C 207.5,199.167 207.5,204.833 207.5,210.5C 193.833,210.5 180.167,210.5 166.5,210.5C 164.668,205.422 164.002,200.089 164.5,194.5C 178.785,193.534 193.118,193.2 207.5,193.5 Z"/></g>
<g><path style="opacity:1" fill="#94d4ed" d="M 167.5,194.5 C 180.5,194.5 193.5,194.5 206.5,194.5C 206.5,199.167 206.5,203.833 206.5,208.5C 193.463,208.777 180.463,208.443 167.5,207.5C 167.5,203.167 167.5,198.833 167.5,194.5 Z"/></g>
<g><path style="opacity:1" fill="#955e4b" d="M 164.5,175.5 C 164.5,181.833 164.5,188.167 164.5,194.5C 164.002,200.089 164.668,205.422 166.5,210.5C 165.833,210.5 165.167,210.5 164.5,210.5C 163.167,198.833 163.167,187.167 164.5,175.5 Z"/></g>
<g><path style="opacity:0.074" fill="#17121c" d="M 164.5,175.5 C 179.167,175.5 193.833,175.5 208.5,175.5C 208.823,181.69 208.49,187.69 207.5,193.5C 193.118,193.2 178.785,193.534 164.5,194.5C 164.5,188.167 164.5,181.833 164.5,175.5 Z M 165.5,176.5 C 165.5,181.833 165.5,187.167 165.5,192.5C 179.5,192.5 193.5,192.5 207.5,192.5C 207.5,187.167 207.5,181.833 207.5,176.5C 193.5,176.5 179.5,176.5 165.5,176.5 Z"/></g>
<g><path style="opacity:0.035" fill="#0e1928" d="M 102.5,244.5 C 102.833,244.5 103.167,244.5 103.5,244.5C 117.5,245.833 131.5,245.833 145.5,244.5C 145.833,244.5 146.167,244.5 146.5,244.5C 146.5,245.167 146.833,245.5 147.5,245.5C 147.5,245.833 147.5,246.167 147.5,246.5C 132.167,246.5 116.833,246.5 101.5,246.5C 101.5,246.167 101.5,245.833 101.5,245.5C 102.167,245.5 102.5,245.167 102.5,244.5 Z"/></g>
<g><path style="opacity:0.237" fill="#3e2123" d="M 232.5,253.5 C 160.826,252.837 89.4922,253.503 18.5,255.5C 17.6373,257.421 16.9707,259.421 16.5,261.5C 14.9925,263.181 13.9925,265.181 13.5,267.5C 12.596,268.209 12.2627,269.209 12.5,270.5C 11.596,269.791 11.2627,268.791 11.5,267.5C 13.7833,262.602 15.7833,257.602 17.5,252.5C 78.3276,252.642 139.161,252.308 200,251.5C 211.007,251.896 221.84,252.563 232.5,253.5 Z"/></g>
<g><path style="opacity:0.879" fill="#c65636" d="M 232.5,253.5 C 232.5,253.833 232.5,254.167 232.5,254.5C 231.5,254.5 230.5,254.5 229.5,254.5C 159.096,254.17 88.7623,254.504 18.5,255.5C 89.4922,253.503 160.826,252.837 232.5,253.5 Z"/></g>
<g><path style="opacity:1" fill="#f05a25" d="M 229.5,254.5 C 232.09,258.942 234.09,263.609 235.5,268.5C 162.49,268.801 89.4899,268.468 16.5,267.5C 16.5,265.5 16.5,263.5 16.5,261.5C 16.9707,259.421 17.6373,257.421 18.5,255.5C 88.7623,254.504 159.096,254.17 229.5,254.5 Z"/></g>
<g><path style="opacity:0.616" fill="#5e3228" d="M 232.5,253.5 C 234.771,255.612 236.104,258.279 236.5,261.5C 234.331,259.66 232.998,257.326 232.5,254.5C 232.5,254.167 232.5,253.833 232.5,253.5 Z"/></g>
<g><path style="opacity:1" fill="#e95c2f" d="M 229.5,254.5 C 230.5,254.5 231.5,254.5 232.5,254.5C 232.998,257.326 234.331,259.66 236.5,261.5C 236.387,264.049 237.054,266.382 238.5,268.5C 201,268.833 163.5,269.167 126,269.5C 88.1607,269.5 50.6607,268.833 13.5,267.5C 13.9925,265.181 14.9925,263.181 16.5,261.5C 16.5,263.5 16.5,265.5 16.5,267.5C 89.4899,268.468 162.49,268.801 235.5,268.5C 234.09,263.609 232.09,258.942 229.5,254.5 Z"/></g>
<g><path style="opacity:0.724" fill="#b25036" d="M 236.5,261.5 C 238.008,263.181 239.008,265.181 239.5,267.5C 239.5,268.5 239.5,269.5 239.5,270.5C 163.833,270.5 88.1667,270.5 12.5,270.5C 12.2627,269.209 12.596,268.209 13.5,267.5C 50.6607,268.833 88.1607,269.5 126,269.5C 163.5,269.167 201,268.833 238.5,268.5C 237.054,266.382 236.387,264.049 236.5,261.5 Z"/></g>
<g><path style="opacity:0.11" fill="#271519" d="M 11.5,267.5 C 11.2627,268.791 11.596,269.791 12.5,270.5C 88.1667,270.5 163.833,270.5 239.5,270.5C 239.5,269.5 239.5,268.5 239.5,267.5C 240.954,268.52 241.287,269.687 240.5,271C 163.834,271.5 87.1674,271.667 10.5,271.5C 10.2322,269.901 10.5655,268.568 11.5,267.5 Z"/></g>
</svg>
