<?xml version="1.0" encoding="UTF-8"?>
<!DOCTYPE svg PUBLIC "-//W3C//DTD SVG 1.1//EN" "http://www.w3.org/Graphics/SVG/1.1/DTD/svg11.dtd">
<svg xmlns="http://www.w3.org/2000/svg" version="1.1" width="512px" height="512px" style="shape-rendering:geometricPrecision; text-rendering:geometricPrecision; image-rendering:optimizeQuality; fill-rule:evenodd; clip-rule:evenodd" xmlns:xlink="http://www.w3.org/1999/xlink">
<g><path style="opacity:0.977" fill="#010101" d="M 125.5,65.5 C 117.167,65.5 108.833,65.5 100.5,65.5C 94.1667,65.5 87.8333,65.5 81.5,65.5C 81.9197,74.4905 80.4197,83.1572 77,91.5C 69.247,103.34 61.247,115.007 53,126.5C 52.5004,133.158 52.3337,139.825 52.5,146.5C 60.3159,147.492 68.3159,147.826 76.5,147.5C 77.209,148.404 78.209,148.737 79.5,148.5C 79.5,140.167 79.5,131.833 79.5,123.5C 80.2026,121.284 81.5359,119.451 83.5,118C 87.8206,117.501 92.1539,117.334 96.5,117.5C 100.514,117.666 104.514,117.499 108.5,117C 113,115.833 115.833,113 117,108.5C 117.333,102.167 117.667,95.8333 118,89.5C 119.913,86.7197 122.413,85.053 125.5,84.5C 129.443,85.2759 131.943,87.6093 133,91.5C 136.877,121.159 124.044,134.825 94.5,132.5C 94.3337,139.175 94.5004,145.842 95,152.5C 115.025,162.869 127.025,179.202 131,201.5C 131.5,213.495 131.667,225.495 131.5,237.5C 135.203,238.83 138.87,238.664 142.5,237C 165.097,230.189 187.764,223.689 210.5,217.5C 214.779,196.048 216.945,174.382 217,152.5C 219.167,146.333 223.333,142.167 229.5,140C 258.5,139.333 287.5,139.333 316.5,140C 323.545,142.377 327.712,147.21 329,154.5C 329.333,164.167 329.667,173.833 330,183.5C 334.225,210.517 338.558,237.517 343,264.5C 345.136,281.405 337.969,291.905 321.5,296C 289.167,296.667 256.833,296.667 224.5,296C 221.363,295.399 218.363,294.399 215.5,293C 212.322,290.486 209.156,287.986 206,285.5C 187.9,290.9 169.734,296.067 151.5,301C 144.872,302.052 138.206,302.552 131.5,302.5C 131.667,369.834 131.5,437.167 131,504.5C 127.914,509.752 123.747,510.752 118.5,507.5C 116.962,505.757 115.962,503.757 115.5,501.5C 116.499,445.002 116.832,388.336 116.5,331.5C 82.6708,330.502 48.6708,330.168 14.5,330.5C 14.1984,333.059 14.5318,335.393 15.5,337.5C 17.2772,357.746 26.1105,374.079 42,386.5C 45.7899,425.023 49.9565,463.357 54.5,501.5C 52.8472,508.676 48.5138,510.843 41.5,508C 40.2986,507.097 39.4652,505.931 39,504.5C 34.9268,467.508 30.9268,430.508 27,393.5C 17.7418,385.559 10.7418,375.893 6,364.5C 3.17941,356.541 1.01274,348.541 -0.5,340.5C -0.5,288.167 -0.5,235.833 -0.5,183.5C 4.56972,164.098 16.9031,152.098 36.5,147.5C 36.6662,141.158 36.4995,134.825 36,128.5C 25.1997,119.895 18.1997,108.895 15,95.5C 14.3333,76.8333 14.3333,58.1667 15,39.5C 19.7278,18.1055 32.8944,5.60547 54.5,2C 69.2075,1.10638 83.8742,1.43972 98.5,3C 121.159,10.1242 132.825,25.6242 133.5,49.5C 142.582,49.0863 151.582,49.5863 160.5,51C 164.677,55.9538 164.343,60.6204 159.5,65C 148.172,65.4999 136.838,65.6665 125.5,65.5 Z"/></g>
<g><path style="opacity:0.978" fill="#010101" d="M 511.5,178.5 C 511.5,273.5 511.5,368.5 511.5,463.5C 505.463,473.615 496.463,477.615 484.5,475.5C 482.652,485.561 480.485,495.561 478,505.5C 473.333,510.833 468.667,510.833 464,505.5C 463.51,504.207 463.343,502.873 463.5,501.5C 465.04,492.466 466.707,483.466 468.5,474.5C 462.833,474.5 457.167,474.5 451.5,474.5C 434.833,474.5 418.167,474.5 401.5,474.5C 401.5,483.5 401.5,492.5 401.5,501.5C 399.33,509.874 394.663,511.541 387.5,506.5C 387,505.5 386.5,504.5 386,503.5C 385.5,494.173 385.334,484.839 385.5,475.5C 378.973,475.93 372.64,475.096 366.5,473C 362.338,470.188 359.505,466.355 358,461.5C 360.167,428.83 362.667,396.163 365.5,363.5C 356.274,366.608 346.941,369.442 337.5,372C 312.667,372.5 300.5,360.333 301,335.5C 302.6,325.903 307.433,318.403 315.5,313C 336.529,304.602 357.862,297.102 379.5,290.5C 389.003,287.498 398.337,283.998 407.5,280C 410.807,277.222 412.974,273.722 414,269.5C 414.174,236.792 414.674,204.125 415.5,171.5C 415.167,171.167 414.833,170.833 414.5,170.5C 403.62,179.254 397.12,190.587 395,204.5C 393.201,224.492 391.534,244.492 390,264.5C 388.331,268.361 385.498,270.361 381.5,270.5C 376.578,269.572 374.244,266.572 374.5,261.5C 376.363,241.503 378.197,221.503 380,201.5C 383.532,178.649 395.532,161.983 416,151.5C 416.5,145.175 416.666,138.842 416.5,132.5C 400.134,136.12 387.967,130.786 380,116.5C 379.012,113.576 378.346,110.576 378,107.5C 377.667,92.8333 377.333,78.1667 377,63.5C 367.388,48.4078 367.055,33.0745 376,17.5C 381.594,10.2899 388.76,5.45653 397.5,3C 416.456,1.39832 435.456,1.06498 454.5,2C 476.957,5.45737 491.79,17.9574 499,39.5C 499.945,43.1141 500.612,46.7808 501,50.5C 504.182,93.3463 507.682,136.013 511.5,178.5 Z"/></g>
<g><path style="opacity:1" fill="#a1e52d" d="M 85.5,17.5 C 95.3051,25.7828 100.305,36.4494 100.5,49.5C 77.1667,49.5 53.8333,49.5 30.5,49.5C 30.5,47.1667 30.5,44.8333 30.5,42.5C 32.4268,31.1665 38.7601,23.3332 49.5,19C 61.4242,17.5625 73.4242,17.0625 85.5,17.5 Z"/></g>
<g><path style="opacity:1" fill="#94d428" d="M 85.5,17.5 C 98.8691,17.0366 108.702,22.7033 115,34.5C 117.033,39.2954 117.866,44.2954 117.5,49.5C 111.833,49.5 106.167,49.5 100.5,49.5C 100.305,36.4494 95.3051,25.7828 85.5,17.5 Z"/></g>
<g><path style="opacity:1" fill="#908190" d="M 449.5,17.5 C 459.729,25.2724 465.895,35.6058 468,48.5C 470.555,80.1634 473.055,111.83 475.5,143.5C 475.415,145.333 474.748,146.666 473.5,147.5C 472.503,147.53 471.836,147.03 471.5,146C 463.667,123.167 455.833,100.333 448,77.5C 447.097,76.2986 445.931,75.4652 444.5,75C 426.682,73.2829 410.015,67.9496 394.5,59C 381.221,46.2595 381.221,33.5928 394.5,21C 396.5,20 398.5,19 400.5,18C 416.83,17.5001 433.163,17.3334 449.5,17.5 Z"/></g>
<g><path style="opacity:1" fill="#786b77" d="M 449.5,17.5 C 468.029,18.8543 479.863,28.521 485,46.5C 488.463,83.1293 491.13,119.796 493,156.5C 486.969,152.231 480.469,149.231 473.5,147.5C 474.748,146.666 475.415,145.333 475.5,143.5C 473.055,111.83 470.555,80.1634 468,48.5C 465.895,35.6058 459.729,25.2724 449.5,17.5 Z"/></g>
<g><path style="opacity:1" fill="#73a420" d="M 30.5,42.5 C 30.5,44.8333 30.5,47.1667 30.5,49.5C 53.8333,49.5 77.1667,49.5 100.5,49.5C 106.167,49.5 111.833,49.5 117.5,49.5C 88.3381,50.4981 59.0047,50.8314 29.5,50.5C 29.1936,47.6146 29.5269,44.9479 30.5,42.5 Z"/></g>
<g><path style="opacity:1" fill="#8e7f8e" d="M 29.5,65.5 C 41.8333,65.5 54.1667,65.5 66.5,65.5C 66.9843,71.6997 66.1509,77.6997 64,83.5C 58.2481,92.672 52.2481,101.672 46,110.5C 45.2613,111.574 44.2613,112.241 43,112.5C 35.9037,107.326 31.5704,100.326 30,91.5C 29.5002,82.8397 29.3336,74.1731 29.5,65.5 Z"/></g>
<g><path style="opacity:1" fill="#fdece4" d="M 100.5,65.5 C 100.667,80.1705 100.5,94.8371 100,109.5C 98.9167,112.267 97.75,114.933 96.5,117.5C 92.1539,117.334 87.8206,117.501 83.5,118C 81.5359,119.451 80.2026,121.284 79.5,123.5C 78.6618,123.842 78.3284,124.508 78.5,125.5C 75.1501,125.335 71.8168,125.502 68.5,126C 67.6667,126.833 66.8333,127.667 66,128.5C 64.5899,134.379 64.0899,140.379 64.5,146.5C 60.5,146.5 56.5,146.5 52.5,146.5C 52.3337,139.825 52.5004,133.158 53,126.5C 61.247,115.007 69.247,103.34 77,91.5C 80.4197,83.1572 81.9197,74.4905 81.5,65.5C 87.8333,65.5 94.1667,65.5 100.5,65.5 Z"/></g>
<g><path style="opacity:1" fill="#fedece" d="M 100.5,65.5 C 108.833,65.5 117.167,65.5 125.5,65.5C 125.5,71.8333 125.5,78.1667 125.5,84.5C 122.413,85.053 119.913,86.7197 118,89.5C 117.667,95.8333 117.333,102.167 117,108.5C 115.833,113 113,115.833 108.5,117C 104.514,117.499 100.514,117.666 96.5,117.5C 97.75,114.933 98.9167,112.267 100,109.5C 100.5,94.8371 100.667,80.1705 100.5,65.5 Z"/></g>
<g><path style="opacity:1" fill="#e7998a" d="M 393.5,75.5 C 407.045,82.4597 421.379,86.7931 436.5,88.5C 443.037,108.111 449.37,127.778 455.5,147.5C 447.5,147.5 439.5,147.5 431.5,147.5C 431.666,138.827 431.5,130.16 431,121.5C 430.167,120.667 429.333,119.833 428.5,119C 419.601,117.722 410.601,117.055 401.5,117C 398.829,115.75 396.663,113.917 395,111.5C 393.562,99.5758 393.062,87.5758 393.5,75.5 Z"/></g>
<g><path style="opacity:1" fill="#f6d8c8" d="M 78.5,125.5 C 79.1299,133.243 78.4633,140.576 76.5,147.5C 68.3159,147.826 60.3159,147.492 52.5,146.5C 56.5,146.5 60.5,146.5 64.5,146.5C 64.0899,140.379 64.5899,134.379 66,128.5C 66.8333,127.667 67.6667,126.833 68.5,126C 71.8168,125.502 75.1501,125.335 78.5,125.5 Z"/></g>
<g><path style="opacity:1" fill="#bba499" d="M 79.5,123.5 C 79.5,131.833 79.5,140.167 79.5,148.5C 78.209,148.737 77.209,148.404 76.5,147.5C 78.4633,140.576 79.1299,133.243 78.5,125.5C 78.3284,124.508 78.6618,123.842 79.5,123.5 Z"/></g>
<g><path style="opacity:1" fill="#f5a86b" d="M 233.5,155.5 C 254.5,155.5 275.5,155.5 296.5,155.5C 296.5,161.5 296.5,167.5 296.5,173.5C 274.833,173.5 253.167,173.5 231.5,173.5C 231.334,167.824 231.501,162.157 232,156.5C 232.383,155.944 232.883,155.611 233.5,155.5 Z"/></g>
<g><path style="opacity:1" fill="#e59858" d="M 233.5,155.5 C 259.33,154.337 285.33,154.17 311.5,155C 312,155.5 312.5,156 313,156.5C 313.499,162.157 313.666,167.824 313.5,173.5C 307.833,173.5 302.167,173.5 296.5,173.5C 296.5,167.5 296.5,161.5 296.5,155.5C 275.5,155.5 254.5,155.5 233.5,155.5 Z"/></g>
<g><path style="opacity:1" fill="#07b563" d="M 115.5,246.5 C 105.776,246.885 97.6092,243.552 91,236.5C 75.4209,215.009 60.0875,193.342 45,171.5C 42.4005,169.121 39.5672,167.121 36.5,165.5C 44.0698,159.788 51.2365,160.455 58,167.5C 74,190.167 90,212.833 106,235.5C 109.061,239.384 112.227,243.051 115.5,246.5 Z"/></g>
<g><path style="opacity:1" fill="#89c8fd" d="M 439.5,163.5 C 449.877,160.132 457.377,163.466 462,173.5C 462.5,192.83 462.667,212.164 462.5,231.5C 456.833,231.5 451.167,231.5 445.5,231.5C 445.667,212.497 445.5,193.497 445,174.5C 444.19,170.213 442.357,166.546 439.5,163.5 Z"/></g>
<g><path style="opacity:1" fill="#93d128" d="M 72.5,163.5 C 78.8091,162.765 84.8091,164.265 90.5,168C 110.711,180.931 119.211,199.431 116,223.5C 102.024,203.039 87.5238,183.039 72.5,163.5 Z"/></g>
<g><path style="opacity:1" fill="#b1d9fd" d="M 439.5,163.5 C 442.357,166.546 444.19,170.213 445,174.5C 445.5,193.497 445.667,212.497 445.5,231.5C 440.167,231.5 434.833,231.5 429.5,231.5C 429.333,212.164 429.5,192.83 430,173.5C 432.016,168.986 435.183,165.653 439.5,163.5 Z"/></g>
<g><path style="opacity:1" fill="#fc4654" d="M 477.5,459.5 C 477.5,397.167 477.5,334.833 477.5,272.5C 477.667,238.832 477.5,205.165 477,171.5C 476.235,168.804 475.068,166.304 473.5,164C 474.5,163.333 475.5,163.333 476.5,164C 486.362,168.54 492.862,176.04 496,186.5C 496.667,277.167 496.667,367.833 496,458.5C 489.924,459.476 483.758,459.81 477.5,459.5 Z"/></g>
<g><path style="opacity:1" fill="#00bf78" d="M 36.5,165.5 C 39.5672,167.121 42.4005,169.121 45,171.5C 60.0875,193.342 75.4209,215.009 91,236.5C 97.6092,243.552 105.776,246.885 115.5,246.5C 123.439,252.864 132.439,255.031 142.5,253C 153.038,249.481 163.705,246.814 174.5,245C 178.003,255.345 181.003,265.845 183.5,276.5C 173.003,278.608 162.67,281.441 152.5,285C 124.288,290.71 101.122,282.543 83,260.5C 65.9122,235.991 48.5789,211.657 31,187.5C 27.3657,180.946 27.6991,174.613 32,168.5C 33.129,166.859 34.629,165.859 36.5,165.5 Z"/></g>
<g><path style="opacity:0.998" fill="#fa626d" d="M 379.5,290.5 C 380.227,283.842 380.893,277.175 381.5,270.5C 385.498,270.361 388.331,268.361 390,264.5C 391.534,244.492 393.201,224.492 395,204.5C 397.12,190.587 403.62,179.254 414.5,170.5C 414.833,170.833 415.167,171.167 415.5,171.5C 414.674,204.125 414.174,236.792 414,269.5C 412.974,273.722 410.807,277.222 407.5,280C 398.337,283.998 389.003,287.498 379.5,290.5 Z"/></g>
<g><path style="opacity:1" fill="#99643a" d="M 230.5,189.5 C 244.496,188.833 258.663,188.5 273,188.5C 287.516,188.501 301.683,189.167 315.5,190.5C 309.925,189.548 304.259,189.214 298.5,189.5C 275.833,189.5 253.167,189.5 230.5,189.5 Z"/></g>
<g><path style="opacity:1" fill="#e89a57" d="M 230.5,189.5 C 253.167,189.5 275.833,189.5 298.5,189.5C 301.682,214.59 305.515,239.59 310,264.5C 311.167,270.211 310.333,275.544 307.5,280.5C 279.831,280.667 252.165,280.5 224.5,280C 231.319,277.282 238.319,274.949 245.5,273C 260.509,263.801 265.676,250.634 261,233.5C 254.284,218.721 242.784,212.055 226.5,213.5C 227.558,205.419 228.892,197.419 230.5,189.5 Z"/></g>
<g><path style="opacity:1" fill="#d58853" d="M 298.5,189.5 C 304.259,189.214 309.925,189.548 315.5,190.5C 319.135,214.179 322.968,237.846 327,261.5C 330.041,277.291 323.541,283.624 307.5,280.5C 310.333,275.544 311.167,270.211 310,264.5C 305.515,239.59 301.682,214.59 298.5,189.5 Z"/></g>
<g><path style="opacity:1" fill="#a0e42d" d="M 115.5,299.5 C 115.5,304.833 115.5,310.167 115.5,315.5C 81.8333,315.5 48.1667,315.5 14.5,315.5C 14.3333,273.165 14.5,230.832 15,188.5C 34.5549,218.053 54.8882,247.053 76,275.5C 87.2111,286.69 100.378,294.69 115.5,299.5 Z"/></g>
<g><path style="opacity:1" fill="#fbdbcc" d="M 231.5,261.5 C 235.256,248.72 231.923,238.387 221.5,230.5C 232.391,225.768 240.891,228.434 247,238.5C 249.782,251.617 244.615,259.284 231.5,261.5 Z"/></g>
<g><path style="opacity:1" fill="#fcebe3" d="M 221.5,230.5 C 231.923,238.387 235.256,248.72 231.5,261.5C 220.528,264.823 209.528,268.156 198.5,271.5C 195.515,262.562 192.681,253.562 190,244.5C 189.333,242.833 189.333,241.167 190,239.5C 200.345,235.997 210.845,232.997 221.5,230.5 Z"/></g>
<g><path style="opacity:1" fill="#e99a8b" d="M 429.5,247.5 C 434.833,247.5 440.167,247.5 445.5,247.5C 445.667,261.504 445.5,275.504 445,289.5C 443.595,299.299 440.761,308.632 436.5,317.5C 431.352,322.248 425.352,325.748 418.5,328C 391.425,337.136 364.425,346.469 337.5,356C 327.073,358.537 320.24,354.704 317,344.5C 315.114,337.451 316.947,331.618 322.5,327C 350.348,316.606 378.348,306.606 406.5,297C 418.571,292.593 426.071,284.093 429,271.5C 429.5,263.507 429.666,255.507 429.5,247.5 Z"/></g>
<g><path style="opacity:1" fill="#d48676" d="M 429.5,247.5 C 440.321,246.505 451.321,246.172 462.5,246.5C 466.086,269.491 460.919,290.158 447,308.5C 443.922,312.085 440.422,315.085 436.5,317.5C 440.761,308.632 443.595,299.299 445,289.5C 445.5,275.504 445.667,261.504 445.5,247.5C 440.167,247.5 434.833,247.5 429.5,247.5 Z"/></g>
<g><path style="opacity:1" fill="#fc636e" d="M 477.5,272.5 C 477.5,334.833 477.5,397.167 477.5,459.5C 442.833,459.5 408.167,459.5 373.5,459.5C 375.343,425.055 378.343,390.722 382.5,356.5C 397.871,351.098 413.205,345.598 428.5,340C 457.199,326.422 473.532,303.922 477.5,272.5 Z"/></g>
<g><path style="opacity:1" fill="#75a721" d="M 115.5,299.5 C 116.489,304.975 116.822,310.642 116.5,316.5C 82.3292,316.832 48.3292,316.498 14.5,315.5C 48.1667,315.5 81.8333,315.5 115.5,315.5C 115.5,310.167 115.5,304.833 115.5,299.5 Z"/></g>
<g><path style="opacity:1" fill="#1c223b" d="M 116.5,331.5 C 110.5,331.5 104.5,331.5 98.5,331.5C 70.8333,331.5 43.1667,331.5 15.5,331.5C 15.5,333.5 15.5,335.5 15.5,337.5C 14.5318,335.393 14.1984,333.059 14.5,330.5C 48.6708,330.168 82.6708,330.502 116.5,331.5 Z"/></g>
<g><path style="opacity:0.999" fill="#6b7ed7" d="M 98.5,331.5 C 98.5,388.167 98.5,444.833 98.5,501.5C 83.8333,501.5 69.1667,501.5 54.5,501.5C 49.9565,463.357 45.7899,425.023 42,386.5C 26.1105,374.079 17.2772,357.746 15.5,337.5C 15.5,335.5 15.5,333.5 15.5,331.5C 43.1667,331.5 70.8333,331.5 98.5,331.5 Z"/></g>
<g><path style="opacity:1" fill="#4e65cd" d="M 98.5,331.5 C 104.5,331.5 110.5,331.5 116.5,331.5C 116.832,388.336 116.499,445.002 115.5,501.5C 109.833,501.5 104.167,501.5 98.5,501.5C 98.5,444.833 98.5,388.167 98.5,331.5 Z"/></g>
<g><path style="opacity:1" fill="#050101" d="M 414.5,369.5 C 417.32,369.248 419.986,369.748 422.5,371C 430,378.5 437.5,386 445,393.5C 447.677,402.156 444.511,405.989 435.5,405C 427.333,396.833 419.167,388.667 411,380.5C 409.663,375.872 410.83,372.205 414.5,369.5 Z"/></g>
<g><path style="opacity:0.993" fill="#6b7ed6" d="M 451.5,474.5 C 449.621,483.468 447.954,492.468 446.5,501.5C 431.5,501.5 416.5,501.5 401.5,501.5C 401.5,492.5 401.5,483.5 401.5,474.5C 418.167,474.5 434.833,474.5 451.5,474.5 Z"/></g>
<g><path style="opacity:1" fill="#4e65cd" d="M 451.5,474.5 C 457.167,474.5 462.833,474.5 468.5,474.5C 466.707,483.466 465.04,492.466 463.5,501.5C 457.833,501.5 452.167,501.5 446.5,501.5C 447.954,492.468 449.621,483.468 451.5,474.5 Z"/></g>
</svg>
