<?xml version="1.0" encoding="UTF-8"?>
<!DOCTYPE svg PUBLIC "-//W3C//DTD SVG 1.1//EN" "http://www.w3.org/Graphics/SVG/1.1/DTD/svg11.dtd">
<svg xmlns="http://www.w3.org/2000/svg" version="1.1" width="512px" height="512px" style="shape-rendering:geometricPrecision; text-rendering:geometricPrecision; image-rendering:optimizeQuality; fill-rule:evenodd; clip-rule:evenodd" xmlns:xlink="http://www.w3.org/1999/xlink">
<g><path style="opacity:0.974" fill="#020201" d="M 112.5,59.5 C 111.994,62.671 110.328,65.0043 107.5,66.5C 92.8537,67.0519 78.1871,67.8852 63.5,69C 47.9989,75.1682 38.1656,86.3348 34,102.5C 33.3333,117.5 33.3333,132.5 34,147.5C 36.472,154.309 40.8053,159.643 47,163.5C 51.4357,153.654 53.4357,143.321 53,132.5C 57.1706,123.327 64.3373,119.16 74.5,120C 79.2234,118.804 83.5568,116.804 87.5,114C 92.0547,108.445 96.2214,102.612 100,96.5C 103.112,93.2775 106.612,92.7775 110.5,95C 113.361,97.894 115.861,101.061 118,104.5C 119.271,105.883 120.771,106.883 122.5,107.5C 128.645,108.49 134.978,108.823 141.5,108.5C 142.715,95.9742 138.881,85.3076 130,76.5C 129.207,73.2587 129.707,70.2587 131.5,67.5C 133.795,65.615 136.462,65.115 139.5,66C 148.143,72.7688 153.643,81.6021 156,92.5C 157.861,100.196 157.861,107.863 156,115.5C 153.365,120.567 149.199,123.234 143.5,123.5C 143.338,125.527 143.505,127.527 144,129.5C 148.18,135.189 150.68,141.523 151.5,148.5C 151.574,154.683 149.241,159.683 144.5,163.5C 145.998,196.678 130.831,208.344 99,198.5C 99.0154,201.57 99.6821,204.57 101,207.5C 110.706,216.538 119.706,226.205 128,236.5C 137.474,251.869 140.807,268.536 138,286.5C 135.84,298.462 134.006,310.462 132.5,322.5C 147.167,322.5 161.833,322.5 176.5,322.5C 176.333,290.165 176.5,257.832 177,225.5C 178.517,211.732 180.684,198.065 183.5,184.5C 182.543,181.72 181.376,179.053 180,176.5C 179.333,166.167 179.333,155.833 180,145.5C 181.068,140.765 183.901,137.598 188.5,136C 196.833,135.333 205.167,135.333 213.5,136C 217.007,137.33 218.673,139.83 218.5,143.5C 217.817,147.02 215.817,149.52 212.5,151C 206.843,151.499 201.176,151.666 195.5,151.5C 195.5,157.833 195.5,164.167 195.5,170.5C 208.5,170.5 221.5,170.5 234.5,170.5C 234.182,166.311 235.848,163.145 239.5,161C 244.558,159.884 249.725,159.384 255,159.5C 260.58,159.409 266.08,159.909 271.5,161C 275.152,163.145 276.818,166.311 276.5,170.5C 283.833,170.5 291.167,170.5 298.5,170.5C 304.5,170.5 310.5,170.5 316.5,170.5C 316.5,164.167 316.5,157.833 316.5,151.5C 310.5,151.5 304.5,151.5 298.5,151.5C 280.164,151.667 261.83,151.5 243.5,151C 240.41,149.293 238.41,146.793 237.5,143.5C 237.979,139.676 239.979,137.176 243.5,136C 269.833,135.333 296.167,135.333 322.5,136C 325.539,137.031 328.039,138.865 330,141.5C 331.625,153.404 331.958,165.404 331,177.5C 329.815,179.87 328.649,182.203 327.5,184.5C 333.7,210.163 335.866,236.163 334,262.5C 333.561,267.107 331.061,269.44 326.5,269.5C 322.854,269.076 320.354,267.076 319,263.5C 318.667,248.5 318.333,233.5 318,218.5C 316.164,207.484 314.331,196.484 312.5,185.5C 306.5,185.5 300.5,185.5 294.5,185.5C 288.5,185.5 282.5,185.5 276.5,185.5C 276.667,200.504 276.5,215.504 276,230.5C 274.741,233.217 272.574,234.55 269.5,234.5C 264.728,232.699 259.894,231.033 255,229.5C 250.546,231.311 246.046,232.978 241.5,234.5C 239.407,234.514 237.574,233.848 236,232.5C 234.531,216.929 234.031,201.263 234.5,185.5C 222.5,185.5 210.5,185.5 198.5,185.5C 196.669,196.484 194.836,207.484 193,218.5C 192.5,253.165 192.333,287.832 192.5,322.5C 228.833,322.5 265.167,322.5 301.5,322.5C 307.167,322.5 312.833,322.5 318.5,322.5C 318.334,312.828 318.5,303.161 319,293.5C 320.913,290.72 323.413,289.053 326.5,288.5C 330.771,288.938 333.271,291.271 334,295.5C 334.5,304.494 334.666,313.494 334.5,322.5C 350.833,322.5 367.167,322.5 383.5,322.5C 385.255,280.401 398.088,242.068 422,207.5C 422.497,204.854 422.664,202.187 422.5,199.5C 394.646,205.974 381.313,194.974 382.5,166.5C 374.384,164.37 370.384,159.036 370.5,150.5C 370.411,146.933 371.245,143.6 373,140.5C 377.733,136.027 380.567,130.694 381.5,124.5C 370.162,124.667 358.828,124.5 347.5,124C 341.491,119.686 341.157,115.019 346.5,110C 355.418,108.586 364.418,108.086 373.5,108.5C 374.22,77.2234 389.887,58.3901 420.5,52C 431.167,51.3333 441.833,51.3333 452.5,52C 483.775,58.6146 499.775,77.948 500.5,110C 500.374,128.044 494.874,144.211 484,158.5C 478.378,177.347 479.711,195.68 488,213.5C 499.846,219.561 507.68,228.894 511.5,241.5C 511.5,272.167 511.5,302.833 511.5,333.5C 509.61,335.578 507.276,336.911 504.5,337.5C 501.042,336.892 498.542,334.892 497,331.5C 496.667,316.5 496.333,301.5 496,286.5C 490.893,294.389 486.059,302.389 481.5,310.5C 470.108,327.599 458.942,344.932 448,362.5C 444.01,367.579 438.843,370.745 432.5,372C 424.144,372.665 415.811,372.499 407.5,371.5C 404.713,370.523 401.713,370.19 398.5,370.5C 398.17,387.342 398.503,404.008 399.5,420.5C 431.662,421.498 463.996,421.832 496.5,421.5C 496.333,401.497 496.5,381.497 497,361.5C 498.41,358.211 500.91,356.544 504.5,356.5C 507.652,356.571 509.986,357.905 511.5,360.5C 511.5,399.833 511.5,439.167 511.5,478.5C 504.139,484.833 498.805,483.5 495.5,474.5C 496.495,462.011 496.829,449.344 496.5,436.5C 491.167,436.5 485.833,436.5 480.5,436.5C 453.5,436.5 426.5,436.5 399.5,436.5C 399.5,449.167 399.5,461.833 399.5,474.5C 397.984,481.925 393.651,484.092 386.5,481C 385.54,479.581 384.707,478.081 384,476.5C 383.5,440.835 383.333,405.168 383.5,369.5C 363.991,368.36 344.491,367.027 325,365.5C 314.877,366.363 304.877,368.03 295,370.5C 275.55,368.551 265.05,357.884 263.5,338.5C 259.833,338.5 256.167,338.5 252.5,338.5C 250.96,357.874 240.46,368.541 221,370.5C 211.123,368.03 201.123,366.363 191,365.5C 170.656,366.576 150.49,368.41 130.5,371C 138.404,405.016 145.737,439.183 152.5,473.5C 151.452,481.858 147.118,484.192 139.5,480.5C 138.117,478.68 137.117,476.68 136.5,474.5C 130.145,440.061 123.145,405.728 115.5,371.5C 108.978,371.177 102.645,371.51 96.5,372.5C 91.4889,372.666 86.4889,372.499 81.5,372C 78.0482,371.108 75.0482,369.442 72.5,367C 61.9231,366.181 51.4231,366.348 41,367.5C 24.5965,394.434 16.2632,423.767 16,455.5C 15.7127,461.024 15.2127,466.524 14.5,472C 14.528,473.07 14.8614,473.903 15.5,474.5C 12.0329,483.327 6.69953,484.66 -0.5,478.5C -0.5,473.5 -0.5,468.5 -0.5,463.5C 1.18473,444.868 3.68473,426.201 7,407.5C 11.6713,389.331 19.1713,372.497 29.5,357C 25.4861,332.908 21.6528,308.741 18,284.5C 9.6089,274.714 4.77557,263.381 3.5,250.5C 4.00651,240.81 7.17318,232.143 13,224.5C 19.0256,219.33 25.3589,214.664 32,210.5C 38.1723,200.653 41.5056,189.987 42,178.5C 30.2642,172.438 22.5976,163.105 19,150.5C 18.1753,133.259 18.3419,116.093 19.5,99C 9.04916,94.7237 2.38249,87.2237 -0.5,76.5C -0.5,71.1667 -0.5,65.8333 -0.5,60.5C 8.3501,36.2312 25.6834,26.0645 51.5,30C 62.4309,33.265 69.7643,40.265 73.5,51C 84.8333,51.3333 96.1667,51.6667 107.5,52C 110.789,53.4103 112.456,55.9103 112.5,59.5 Z"/></g>
<g><path style="opacity:1" fill="#facc59" d="M 33.5,44.5 C 41.1245,43.4487 48.1245,44.9487 54.5,49C 56.9055,50.9905 57.5721,53.3238 56.5,56C 48.6946,59.0675 41.6946,63.4008 35.5,69C 31.5194,73.8383 27.6861,78.6716 24,83.5C 16.1578,79.1409 13.1578,72.4742 15,63.5C 18.1826,54.1783 24.3492,47.8449 33.5,44.5 Z"/></g>
<g><path style="opacity:0.991" fill="#fccf5a" d="M 112.5,59.5 C 119.345,61.0023 125.678,63.669 131.5,67.5C 129.707,70.2587 129.207,73.2587 130,76.5C 138.881,85.3076 142.715,95.9742 141.5,108.5C 134.978,108.823 128.645,108.49 122.5,107.5C 124.208,91.8196 119.208,78.153 107.5,66.5C 110.328,65.0043 111.994,62.671 112.5,59.5 Z"/></g>
<g><path style="opacity:1" fill="#fcde75" d="M 107.5,66.5 C 119.208,78.153 124.208,91.8196 122.5,107.5C 120.771,106.883 119.271,105.883 118,104.5C 115.861,101.061 113.361,97.894 110.5,95C 106.612,92.7775 103.112,93.2775 100,96.5C 96.2214,102.612 92.0547,108.445 87.5,114C 83.5568,116.804 79.2234,118.804 74.5,120C 64.3373,119.16 57.1706,123.327 53,132.5C 53.4357,143.321 51.4357,153.654 47,163.5C 40.8053,159.643 36.472,154.309 34,147.5C 33.3333,132.5 33.3333,117.5 34,102.5C 38.1656,86.3348 47.9989,75.1682 63.5,69C 78.1871,67.8852 92.8537,67.0519 107.5,66.5 Z"/></g>
<g><path style="opacity:1" fill="#f48996" d="M 456.5,68.5 C 466.217,79.9736 471.217,93.3069 471.5,108.5C 444.167,108.5 416.833,108.5 389.5,108.5C 389.5,105.5 389.5,102.5 389.5,99.5C 392.713,83.1178 402.38,72.6178 418.5,68C 431.212,67.2054 443.879,67.3721 456.5,68.5 Z"/></g>
<g><path style="opacity:1" fill="#ec707f" d="M 456.5,68.5 C 475.212,75.2546 484.545,88.5879 484.5,108.5C 480.167,108.5 475.833,108.5 471.5,108.5C 471.217,93.3069 466.217,79.9736 456.5,68.5 Z"/></g>
<g><path style="opacity:1" fill="#c27771" d="M 389.5,99.5 C 389.5,102.5 389.5,105.5 389.5,108.5C 416.833,108.5 444.167,108.5 471.5,108.5C 475.833,108.5 480.167,108.5 484.5,108.5C 452.671,109.498 420.671,109.832 388.5,109.5C 388.187,105.958 388.521,102.625 389.5,99.5 Z"/></g>
<g><path style="opacity:1" fill="#c38b78" d="M 105.5,114.5 C 109.276,117.228 113.276,119.728 117.5,122C 121.06,123.237 124.727,123.737 128.5,123.5C 128.305,127.915 128.805,132.249 130,136.5C 132.3,140.268 134.467,144.102 136.5,148C 133.68,151.489 130.847,154.989 128,158.5C 127.94,166.936 127.273,175.269 126,183.5C 124.061,185.443 121.728,186.443 119,186.5C 104.244,183.746 89.4103,181.913 74.5,181C 69.0135,186.081 69.3469,190.748 75.5,195C 77.8907,195.287 80.2241,195.787 82.5,196.5C 83.0278,208.944 88.0278,219.111 97.5,227C 92.4285,227.751 87.4285,227.418 82.5,226C 71.6518,220.239 60.6518,215.073 49.5,210.5C 54.6982,198.708 57.8648,186.375 59,173.5C 64.2846,161.749 67.2846,149.416 68,136.5C 81.2679,135.199 92.6012,129.865 102,120.5C 103.421,118.595 104.588,116.595 105.5,114.5 Z"/></g>
<g><path style="opacity:1" fill="#e9b9a1" d="M 397.5,124.5 C 414.5,124.5 431.5,124.5 448.5,124.5C 450.467,137.97 457.133,148.47 468.5,156C 465.819,163.584 464.486,171.417 464.5,179.5C 465.052,190.366 466.719,201.033 469.5,211.5C 464.195,211.323 459.195,212.49 454.5,215C 447.928,218.902 441.928,223.569 436.5,229C 433.232,230.213 429.899,230.546 426.5,230C 430.633,224.239 434.133,218.073 437,211.5C 438.271,206.246 438.771,200.913 438.5,195.5C 447.161,196.671 450.994,193.004 450,184.5C 446.34,180.633 441.84,179.466 436.5,181C 426.679,182.887 416.846,184.72 407,186.5C 403.575,186.081 400.909,184.414 399,181.5C 397.769,173.911 397.103,166.244 397,158.5C 396.215,156.714 395.049,155.214 393.5,154C 390.459,153.424 387.792,152.258 385.5,150.5C 389.956,144.881 393.79,138.881 397,132.5C 397.497,129.854 397.664,127.187 397.5,124.5 Z"/></g>
<g><path style="opacity:1" fill="#778994" d="M 463.5,124.5 C 470.175,124.334 476.842,124.5 483.5,125C 481.753,130.57 479.419,135.904 476.5,141C 469.004,138.257 464.671,132.757 463.5,124.5 Z"/></g>
<g><path style="opacity:0.999" fill="#cf9e8e" d="M 218.5,143.5 C 224.833,143.5 231.167,143.5 237.5,143.5C 238.41,146.793 240.41,149.293 243.5,151C 261.83,151.5 280.164,151.667 298.5,151.5C 298.5,157.833 298.5,164.167 298.5,170.5C 291.167,170.5 283.833,170.5 276.5,170.5C 276.818,166.311 275.152,163.145 271.5,161C 266.08,159.909 260.58,159.409 255,159.5C 249.725,159.384 244.558,159.884 239.5,161C 235.848,163.145 234.182,166.311 234.5,170.5C 221.5,170.5 208.5,170.5 195.5,170.5C 195.5,164.167 195.5,157.833 195.5,151.5C 201.176,151.666 206.843,151.499 212.5,151C 215.817,149.52 217.817,147.02 218.5,143.5 Z"/></g>
<g><path style="opacity:1" fill="#c38b79" d="M 298.5,151.5 C 304.5,151.5 310.5,151.5 316.5,151.5C 316.5,157.833 316.5,164.167 316.5,170.5C 310.5,170.5 304.5,170.5 298.5,170.5C 298.5,164.167 298.5,157.833 298.5,151.5 Z"/></g>
<g><path style="opacity:1" fill="#796b38" d="M 249.5,174.5 C 249.171,188.01 249.504,201.344 250.5,214.5C 250.44,215.043 250.107,215.376 249.5,215.5C 248.174,201.672 248.174,188.006 249.5,174.5 Z"/></g>
<g><path style="opacity:1" fill="#fcde75" d="M 249.5,174.5 C 253.5,174.5 257.5,174.5 261.5,174.5C 261.829,188.01 261.496,201.344 260.5,214.5C 257.167,213.167 253.833,213.167 250.5,214.5C 249.504,201.344 249.171,188.01 249.5,174.5 Z"/></g>
<g><path style="opacity:1" fill="#7e6f3a" d="M 261.5,174.5 C 262.826,188.006 262.826,201.672 261.5,215.5C 260.893,215.376 260.56,215.043 260.5,214.5C 261.496,201.344 261.829,188.01 261.5,174.5 Z"/></g>
<g><path style="opacity:1" fill="#c58c79" d="M 294.5,185.5 C 297.071,197.719 299.238,210.053 301,222.5C 301.5,255.832 301.667,289.165 301.5,322.5C 265.167,322.5 228.833,322.5 192.5,322.5C 192.333,287.832 192.5,253.165 193,218.5C 194.836,207.484 196.669,196.484 198.5,185.5C 210.5,185.5 222.5,185.5 234.5,185.5C 234.031,201.263 234.531,216.929 236,232.5C 237.574,233.848 239.407,234.514 241.5,234.5C 246.046,232.978 250.546,231.311 255,229.5C 259.894,231.033 264.728,232.699 269.5,234.5C 272.574,234.55 274.741,233.217 276,230.5C 276.5,215.504 276.667,200.504 276.5,185.5C 282.5,185.5 288.5,185.5 294.5,185.5 Z"/></g>
<g><path style="opacity:0.997" fill="#bb7b62" d="M 294.5,185.5 C 300.5,185.5 306.5,185.5 312.5,185.5C 314.331,196.484 316.164,207.484 318,218.5C 318.333,233.5 318.667,248.5 319,263.5C 320.354,267.076 322.854,269.076 326.5,269.5C 326.5,275.833 326.5,282.167 326.5,288.5C 323.413,289.053 320.913,290.72 319,293.5C 318.5,303.161 318.334,312.828 318.5,322.5C 312.833,322.5 307.167,322.5 301.5,322.5C 301.667,289.165 301.5,255.832 301,222.5C 299.238,210.053 297.071,197.719 294.5,185.5 Z"/></g>
<g><path style="opacity:1" fill="#ce9e8d" d="M 36.5,226.5 C 48.9602,224.391 58.7935,228.391 66,238.5C 77.8616,266.257 89.0283,294.257 99.5,322.5C 92.1688,322 88.6688,325.333 89,332.5C 89.7845,334.286 90.9512,335.786 92.5,337C 140.499,337.5 188.499,337.667 236.5,337.5C 235.686,350.598 228.686,356.098 215.5,354C 208.039,351.384 200.373,349.884 192.5,349.5C 158.324,352.039 124.157,354.706 90,357.5C 87.3701,357.536 84.8701,357.036 82.5,356C 61.3758,324.257 40.8758,292.09 21,259.5C 17.0374,244.096 22.2041,233.096 36.5,226.5 Z"/></g>
<g><path style="opacity:1" fill="#f28895" d="M 464.5,226.5 C 479.996,224.155 490.496,230.155 496,244.5C 497.151,251.179 496.151,257.512 493,263.5C 484.238,277.368 475.238,291.034 466,304.5C 453.944,298.556 442.111,292.222 430.5,285.5C 437.041,269.045 443.874,252.711 451,236.5C 455.12,232.532 459.62,229.199 464.5,226.5 Z"/></g>
<g><path style="opacity:1" fill="#8492da" d="M 109.5,241.5 C 110.856,258.747 109.189,275.747 104.5,292.5C 97.6101,276.369 90.9434,260.036 84.5,243.5C 92.8287,242.667 101.162,242 109.5,241.5 Z"/></g>
<g><path style="opacity:1" fill="#6a7cd3" d="M 109.5,241.5 C 111.39,241.297 112.89,241.963 114,243.5C 122.093,255.293 125.093,268.293 123,282.5C 120.774,295.522 118.441,308.522 116,321.5C 111.671,312.008 107.837,302.341 104.5,292.5C 109.189,275.747 110.856,258.747 109.5,241.5 Z"/></g>
<g><path style="opacity:1" fill="#e66d7c" d="M 417.5,245.5 C 421.846,245.334 426.179,245.501 430.5,246C 420.338,271.15 410.171,296.316 400,321.5C 399.441,308.97 400.774,296.637 404,284.5C 407.415,271.086 411.915,258.086 417.5,245.5 Z"/></g>
<g><path style="opacity:0.997" fill="#e75467" d="M 504.5,337.5 C 504.5,343.833 504.5,350.167 504.5,356.5C 500.91,356.544 498.41,358.211 497,361.5C 496.5,381.497 496.333,401.497 496.5,421.5C 463.996,421.832 431.662,421.498 399.5,420.5C 399.5,415.833 399.5,411.167 399.5,406.5C 418.836,406.667 438.17,406.5 457.5,406C 470.035,402.798 477.869,394.965 481,382.5C 481.5,358.502 481.667,334.502 481.5,310.5C 486.059,302.389 490.893,294.389 496,286.5C 496.333,301.5 496.667,316.5 497,331.5C 498.542,334.892 501.042,336.892 504.5,337.5 Z"/></g>
<g><path style="opacity:1" fill="#f0d3c5" d="M 279.5,342.5 C 279.5,341.167 279.5,339.833 279.5,338.5C 326.67,338.832 373.67,338.499 420.5,337.5C 425.93,336.31 428.097,332.977 427,327.5C 424.487,323.827 420.987,322.161 416.5,322.5C 418.611,314.651 421.778,307.318 426,300.5C 437.056,305.944 447.89,311.778 458.5,318C 451.125,329.918 443.625,341.751 436,353.5C 434.786,355.049 433.286,356.215 431.5,357C 425.167,357.667 418.833,357.667 412.5,357C 382.486,354.666 352.486,352.166 322.5,349.5C 313.034,351.24 303.534,352.907 294,354.5C 286.338,353.919 281.505,349.919 279.5,342.5 Z"/></g>
<g><path style="opacity:1" fill="#ef7180" d="M 481.5,310.5 C 481.667,334.502 481.5,358.502 481,382.5C 477.869,394.965 470.035,402.798 457.5,406C 438.17,406.5 418.836,406.667 399.5,406.5C 399.5,394.833 399.5,383.167 399.5,371.5C 402.167,371.5 404.833,371.5 407.5,371.5C 415.811,372.499 424.144,372.665 432.5,372C 438.843,370.745 444.01,367.579 448,362.5C 458.942,344.932 470.108,327.599 481.5,310.5 Z"/></g>
<g><path style="opacity:1" fill="#808ed4" d="M 53.5,339.5 C 49.8333,339.5 46.1667,339.5 42.5,339.5C 40.867,332.573 40.0337,325.573 40,318.5C 44.5106,325.528 49.0106,332.528 53.5,339.5 Z"/></g>
<g><path style="opacity:1" fill="#b09c91" d="M 420.5,337.5 C 373.67,338.499 326.67,338.832 279.5,338.5C 279.5,339.833 279.5,341.167 279.5,342.5C 278.549,341.081 278.216,339.415 278.5,337.5C 325.833,337.5 373.167,337.5 420.5,337.5 Z"/></g>
<g><path style="opacity:1" fill="#697bd2" d="M 42.5,339.5 C 46.1667,339.5 49.8333,339.5 53.5,339.5C 55.5729,343.308 57.9062,346.974 60.5,350.5C 54.8722,351.495 49.2055,351.829 43.5,351.5C 43.3542,347.481 43.0209,343.481 42.5,339.5 Z"/></g>
<g><path style="opacity:1" fill="#8694dd" d="M 96.5,372.5 C 97.8333,372.5 99.1667,372.5 100.5,372.5C 106.356,403.265 112.856,433.931 120,464.5C 120.667,467.167 120.667,469.833 120,472.5C 119.005,473.066 118.172,473.733 117.5,474.5C 83.5,474.5 49.5,474.5 15.5,474.5C 14.8614,473.903 14.528,473.07 14.5,472C 15.2127,466.524 15.7127,461.024 16,455.5C 16.2632,423.767 24.5965,394.434 41,367.5C 51.4231,366.348 61.9231,366.181 72.5,367C 75.0482,369.442 78.0482,371.108 81.5,372C 86.4889,372.499 91.4889,372.666 96.5,372.5 Z"/></g>
<g><path style="opacity:1" fill="#6a7dd4" d="M 96.5,372.5 C 102.645,371.51 108.978,371.177 115.5,371.5C 123.145,405.728 130.145,440.061 136.5,474.5C 130.167,474.5 123.833,474.5 117.5,474.5C 118.172,473.733 119.005,473.066 120,472.5C 120.667,469.833 120.667,467.167 120,464.5C 112.856,433.931 106.356,403.265 100.5,372.5C 99.1667,372.5 97.8333,372.5 96.5,372.5 Z"/></g>
<g><path style="opacity:1" fill="#33171b" d="M 407.5,371.5 C 404.833,371.5 402.167,371.5 399.5,371.5C 399.5,383.167 399.5,394.833 399.5,406.5C 399.5,411.167 399.5,415.833 399.5,420.5C 398.503,404.008 398.17,387.342 398.5,370.5C 401.713,370.19 404.713,370.523 407.5,371.5 Z"/></g>
<g><path style="opacity:1" fill="#ffe076" d="M 480.5,436.5 C 480.667,448.171 480.5,459.838 480,471.5C 478.955,472.373 478.122,473.373 477.5,474.5C 451.5,474.5 425.5,474.5 399.5,474.5C 399.5,461.833 399.5,449.167 399.5,436.5C 426.5,436.5 453.5,436.5 480.5,436.5 Z"/></g>
<g><path style="opacity:1" fill="#fed05b" d="M 480.5,436.5 C 485.833,436.5 491.167,436.5 496.5,436.5C 496.829,449.344 496.495,462.011 495.5,474.5C 489.5,474.5 483.5,474.5 477.5,474.5C 478.122,473.373 478.955,472.373 480,471.5C 480.5,459.838 480.667,448.171 480.5,436.5 Z"/></g>
</svg>
