<?xml version="1.0" encoding="UTF-8"?>
<!DOCTYPE svg PUBLIC "-//W3C//DTD SVG 1.1//EN" "http://www.w3.org/Graphics/SVG/1.1/DTD/svg11.dtd">
<svg xmlns="http://www.w3.org/2000/svg" version="1.1" width="512px" height="512px" style="shape-rendering:geometricPrecision; text-rendering:geometricPrecision; image-rendering:optimizeQuality; fill-rule:evenodd; clip-rule:evenodd" xmlns:xlink="http://www.w3.org/1999/xlink">
<g><path style="opacity:0.976" fill="#ffd15a" d="M 61.5,54.5 C 42.304,59.0358 28.9707,70.3692 21.5,88.5C 10.8188,86.4766 3.48548,80.4766 -0.5,70.5C -0.5,65.5 -0.5,60.5 -0.5,55.5C 7.47625,34.8393 22.4763,26.6726 44.5,31C 54.9474,35.2931 60.614,43.1265 61.5,54.5 Z"/></g>
<g><path style="opacity:0.995" fill="#fee076" d="M 91.5,53.5 C 106.421,61.2577 115.588,73.5911 119,90.5C 120.288,97.4369 120.788,104.437 120.5,111.5C 117.575,111.54 114.909,110.707 112.5,109C 108.709,105.22 105.042,101.387 101.5,97.5C 98.4333,101.287 95.6,105.287 93,109.5C 84.2325,119.819 73.0658,124.986 59.5,125C 57.2911,126.873 55.4578,129.04 54,131.5C 54.6694,145.52 51.5027,158.52 44.5,170.5C 32.4222,167.592 24.2555,160.259 20,148.5C 18.4296,132.54 18.0962,116.54 19,100.5C 19.5218,96.4159 20.3551,92.4159 21.5,88.5C 28.9707,70.3692 42.304,59.0358 61.5,54.5C 71.4176,53.5259 81.4176,53.1926 91.5,53.5 Z"/></g>
<g><path style="opacity:0.977" fill="#ffd15b" d="M 91.5,53.5 C 128.481,52.6485 146.648,70.6485 146,107.5C 145.167,109.667 143.667,111.167 141.5,112C 138.518,112.498 135.518,112.665 132.5,112.5C 128.702,111.517 124.702,111.183 120.5,111.5C 120.788,104.437 120.288,97.4369 119,90.5C 115.588,73.5911 106.421,61.2577 91.5,53.5 Z"/></g>
<g><path style="opacity:0.994" fill="#f58a97" d="M 450.5,53.5 C 467.904,65.9671 477.237,82.9671 478.5,104.5C 447.167,104.5 415.833,104.5 384.5,104.5C 384.953,77.8901 397.953,61.0567 423.5,54C 432.494,53.5002 441.494,53.3336 450.5,53.5 Z"/></g>
<g><path style="opacity:0.974" fill="#f07281" d="M 450.5,53.5 C 482.118,55.7851 498.451,72.7851 499.5,104.5C 492.5,104.5 485.5,104.5 478.5,104.5C 477.237,82.9671 467.904,65.9671 450.5,53.5 Z"/></g>
<g><path style="opacity:0.99" fill="#c68d79" d="M 120.5,111.5 C 124.702,111.183 128.702,111.517 132.5,112.5C 132.334,117.511 132.501,122.511 133,127.5C 136.604,132.706 139.104,138.372 140.5,144.5C 140.705,147.229 139.872,149.562 138,151.5C 136.045,152.453 134.378,153.787 133,155.5C 132.667,163.167 132.333,170.833 132,178.5C 130.049,187.24 124.549,191.907 115.5,192.5C 106.471,191.273 97.471,189.939 88.5,188.5C 81.9283,186.921 75.2617,186.088 68.5,186C 61.6317,191.515 61.9651,196.515 69.5,201C 75.498,201.944 81.498,202.777 87.5,203.5C 88.176,207.187 89.676,210.52 92,213.5C 98.1971,218.838 104.03,224.504 109.5,230.5C 107.75,231.87 105.75,232.87 103.5,233.5C 87.9937,236.883 73.6604,234.216 60.5,225.5C 51.5216,219.364 41.5216,216.697 30.5,217.5C 37.4935,202.526 42.1602,186.859 44.5,170.5C 51.5027,158.52 54.6694,145.52 54,131.5C 55.4578,129.04 57.2911,126.873 59.5,125C 73.0658,124.986 84.2325,119.819 93,109.5C 95.6,105.287 98.4333,101.287 101.5,97.5C 105.042,101.387 108.709,105.22 112.5,109C 114.909,110.707 117.575,111.54 120.5,111.5 Z"/></g>
<g><path style="opacity:0.995" fill="#fedf77" d="M 384.5,104.5 C 415.833,104.5 447.167,104.5 478.5,104.5C 485.5,104.5 492.5,104.5 499.5,104.5C 499.5,109.833 499.5,115.167 499.5,120.5C 486.833,120.5 474.167,120.5 461.5,120.5C 438.833,120.5 416.167,120.5 393.5,120.5C 378.83,120.667 364.163,120.5 349.5,120C 343.92,114.514 344.253,109.514 350.5,105C 361.828,104.5 373.162,104.333 384.5,104.5 Z"/></g>
<g><path style="opacity:0.994" fill="#ebbaa3" d="M 393.5,120.5 C 416.167,120.5 438.833,120.5 461.5,120.5C 462.368,126.901 464.868,132.568 469,137.5C 474.065,142.074 479.231,146.407 484.5,150.5C 478.481,168.645 477.981,186.978 483,205.5C 485.243,210.321 487.743,214.988 490.5,219.5C 477.023,215.051 465.023,217.551 454.5,227C 452.236,230.769 449.236,233.602 445.5,235.5C 436.829,238.166 428.162,238.166 419.5,235.5C 423.676,226.485 428.509,217.818 434,209.5C 434.813,207.564 435.313,205.564 435.5,203.5C 441.166,202.734 446.832,201.901 452.5,201C 457.069,198.459 458.569,194.625 457,189.5C 455.786,187.951 454.286,186.785 452.5,186C 446.668,185.75 441.001,186.583 435.5,188.5C 427.513,189.831 419.513,191.164 411.5,192.5C 403.608,191.774 398.108,187.774 395,180.5C 394.667,173.833 394.333,167.167 394,160.5C 393.626,159.584 393.126,158.75 392.5,158C 382.465,156.428 379.298,150.928 383,141.5C 386,137.5 389,133.5 392,129.5C 393.149,126.607 393.649,123.607 393.5,120.5 Z"/></g>
<g><path style="opacity:0.985" fill="#7a8c97" d="M 461.5,120.5 C 474.167,120.5 486.833,120.5 499.5,120.5C 497.139,131.888 492.139,141.888 484.5,150.5C 479.231,146.407 474.065,142.074 469,137.5C 464.868,132.568 462.368,126.901 461.5,120.5 Z"/></g>
<g><path style="opacity:0.978" fill="#d1a08e" d="M 296.5,139.5 C 297.458,140.962 298.624,142.295 300,143.5C 300.667,153.167 300.667,162.833 300,172.5C 298.955,173.373 298.122,174.373 297.5,175.5C 296.5,175.5 295.5,175.5 294.5,175.5C 286.5,175.5 278.5,175.5 270.5,175.5C 270.83,191.675 270.496,207.675 269.5,223.5C 269.667,204.164 269.5,184.83 269,165.5C 260,164.167 251,164.167 242,165.5C 241.5,184.83 241.333,204.164 241.5,223.5C 240.504,207.675 240.17,191.675 240.5,175.5C 223.423,175.182 206.423,175.515 189.5,176.5C 188.469,175.751 187.302,175.085 186,174.5C 185.333,163.5 185.333,152.5 186,141.5C 186.75,140.874 187.584,140.374 188.5,140C 224.498,139.5 260.498,139.333 296.5,139.5 Z"/></g>
<g><path style="opacity:0.959" fill="#c68d7a" d="M 296.5,139.5 C 305.173,139.334 313.84,139.5 322.5,140C 323.931,140.465 325.097,141.299 326,142.5C 326.667,152.5 326.667,162.5 326,172.5C 324.982,174.928 323.148,176.262 320.5,176.5C 313.018,175.508 305.352,175.175 297.5,175.5C 298.122,174.373 298.955,173.373 300,172.5C 300.667,162.833 300.667,153.167 300,143.5C 298.624,142.295 297.458,140.962 296.5,139.5 Z"/></g>
<g><path style="opacity:1" fill="#fee077" d="M 269.5,223.5 C 269.189,224.478 268.522,225.145 267.5,225.5C 263.5,223.5 259.5,221.5 255.5,219.5C 251.469,221.516 247.469,223.516 243.5,225.5C 242.478,225.145 241.811,224.478 241.5,223.5C 241.333,204.164 241.5,184.83 242,165.5C 251,164.167 260,164.167 269,165.5C 269.5,184.83 269.667,204.164 269.5,223.5 Z"/></g>
<g><path style="opacity:0.997" fill="#c68c79" d="M 241.5,223.5 C 241.811,224.478 242.478,225.145 243.5,225.5C 247.469,223.516 251.469,221.516 255.5,219.5C 259.5,221.5 263.5,223.5 267.5,225.5C 268.522,225.145 269.189,224.478 269.5,223.5C 270.496,207.675 270.83,191.675 270.5,175.5C 278.5,175.5 286.5,175.5 294.5,175.5C 297.105,190.132 299.605,204.799 302,219.5C 302.667,255.5 302.667,291.5 302,327.5C 300.975,329.687 299.475,331.354 297.5,332.5C 289.778,332.233 282.111,332.566 274.5,333.5C 263.5,333.5 252.5,333.5 241.5,333.5C 223.213,332.526 204.88,332.193 186.5,332.5C 184.856,331.684 183.69,330.35 183,328.5C 182.333,291.5 182.333,254.5 183,217.5C 185.385,203.857 187.552,190.19 189.5,176.5C 206.423,175.515 223.423,175.182 240.5,175.5C 240.17,191.675 240.504,207.675 241.5,223.5 Z"/></g>
<g><path style="opacity:0.998" fill="#bc7c63" d="M 294.5,175.5 C 295.5,175.5 296.5,175.5 297.5,175.5C 305.352,175.175 313.018,175.508 320.5,176.5C 323.209,190.083 325.709,203.75 328,217.5C 328.667,254.5 328.667,291.5 328,328.5C 327.31,330.35 326.144,331.684 324.5,332.5C 315.5,332.5 306.5,332.5 297.5,332.5C 299.475,331.354 300.975,329.687 302,327.5C 302.667,291.5 302.667,255.5 302,219.5C 299.605,204.799 297.105,190.132 294.5,175.5 Z"/></g>
<g><path style="opacity:0.991" fill="#bc7c63" d="M 88.5,188.5 C 86.4717,193.412 86.1384,198.412 87.5,203.5C 81.498,202.777 75.498,201.944 69.5,201C 61.9651,196.515 61.6317,191.515 68.5,186C 75.2617,186.088 81.9283,186.921 88.5,188.5 Z"/></g>
<g><path style="opacity:0.97" fill="#e8ad8c" d="M 435.5,203.5 C 435.5,198.5 435.5,193.5 435.5,188.5C 441.001,186.583 446.668,185.75 452.5,186C 454.286,186.785 455.786,187.951 457,189.5C 458.569,194.625 457.069,198.459 452.5,201C 446.832,201.901 441.166,202.734 435.5,203.5 Z"/></g>
<g><path style="opacity:0.994" fill="#d09f8f" d="M 30.5,217.5 C 41.5216,216.697 51.5216,219.364 60.5,225.5C 60.0618,225.435 59.7284,225.601 59.5,226C 64.9217,230.326 68.7551,235.826 71,242.5C 79.3709,264.468 88.2042,286.134 97.5,307.5C 98.4925,310.823 99.4925,314.156 100.5,317.5C 94.4908,317.334 88.4908,317.501 82.5,318C 77.0135,323.081 77.3469,327.748 83.5,332C 91.1594,332.5 98.8261,332.666 106.5,332.5C 110.833,332.5 115.167,332.5 119.5,332.5C 141.833,332.5 164.167,332.5 186.5,332.5C 204.88,332.193 223.213,332.526 241.5,333.5C 246.481,343.41 244.814,352.243 236.5,360C 229.627,365.099 221.96,366.765 213.5,365C 206.229,363.182 198.896,361.682 191.5,360.5C 166.841,362.653 142.174,364.653 117.5,366.5C 110.809,366.454 104.143,366.788 97.5,367.5C 90.8616,368.498 84.195,368.665 77.5,368C 73.7238,366.053 70.3904,363.553 67.5,360.5C 64.2467,353.652 60.2467,347.319 55.5,341.5C 43.9485,321.626 31.6151,302.293 18.5,283.5C 13.8412,276.858 9.67453,269.858 6,262.5C 0.624504,239.906 8.79117,224.906 30.5,217.5 Z"/></g>
<g><path style="opacity:0.998" fill="#f48a96" d="M 490.5,219.5 C 501.371,223.701 508.371,231.368 511.5,242.5C 511.5,246.833 511.5,251.167 511.5,255.5C 510.13,259.429 508.63,263.429 507,267.5C 500.185,277.138 494.018,287.138 488.5,297.5C 483.92,303.66 479.586,309.993 475.5,316.5C 459.325,307.579 442.992,298.912 426.5,290.5C 433.348,272.632 440.348,254.799 447.5,237C 447.164,235.97 446.497,235.47 445.5,235.5C 449.236,233.602 452.236,230.769 454.5,227C 465.023,217.551 477.023,215.051 490.5,219.5 Z"/></g>
<g><path style="opacity:1" fill="#8794dc" d="M 60.5,225.5 C 73.6604,234.216 87.9937,236.883 103.5,233.5C 106.186,242.986 107.019,252.652 106,262.5C 103.606,277.635 100.773,292.635 97.5,307.5C 88.2042,286.134 79.3709,264.468 71,242.5C 68.7551,235.826 64.9217,230.326 59.5,226C 59.7284,225.601 60.0618,225.435 60.5,225.5 Z"/></g>
<g><path style="opacity:0.982" fill="#6c7ed7" d="M 109.5,230.5 C 123.806,245.587 129.639,263.587 127,284.5C 124.173,300.461 121.673,316.461 119.5,332.5C 115.167,332.5 110.833,332.5 106.5,332.5C 104.871,327.265 102.871,322.265 100.5,317.5C 99.4925,314.156 98.4925,310.823 97.5,307.5C 100.773,292.635 103.606,277.635 106,262.5C 107.019,252.652 106.186,242.986 103.5,233.5C 105.75,232.87 107.75,231.87 109.5,230.5 Z"/></g>
<g><path style="opacity:0.984" fill="#f07281" d="M 419.5,235.5 C 428.162,238.166 436.829,238.166 445.5,235.5C 446.497,235.47 447.164,235.97 447.5,237C 440.348,254.799 433.348,272.632 426.5,290.5C 422.796,298.598 419.462,306.931 416.5,315.5C 413.928,320.989 411.595,326.656 409.5,332.5C 404.833,332.5 400.167,332.5 395.5,332.5C 394.632,297.805 402.632,265.472 419.5,235.5 Z"/></g>
<g><path style="opacity:0.996" fill="#eb5569" d="M 511.5,255.5 C 511.5,314.833 511.5,374.167 511.5,433.5C 472.833,433.5 434.167,433.5 395.5,433.5C 395.5,426.167 395.5,418.833 395.5,411.5C 417.836,411.667 440.169,411.5 462.5,411C 475.459,408.042 483.959,400.209 488,387.5C 488.5,357.502 488.667,327.502 488.5,297.5C 494.018,287.138 500.185,277.138 507,267.5C 508.63,263.429 510.13,259.429 511.5,255.5 Z"/></g>
<g><path style="opacity:0.976" fill="#8895dd" d="M 18.5,283.5 C 31.6151,302.293 43.9485,321.626 55.5,341.5C 46.1667,341.5 36.8333,341.5 27.5,341.5C 24.3151,322.206 21.3151,302.873 18.5,283.5 Z"/></g>
<g><path style="opacity:0.995" fill="#f3d6c7" d="M 426.5,290.5 C 442.992,298.912 459.325,307.579 475.5,316.5C 467.892,329.282 460.058,341.948 452,354.5C 449.588,358.916 446.422,362.749 442.5,366C 438.381,367.867 434.048,368.701 429.5,368.5C 418.176,367.612 406.843,366.945 395.5,366.5C 371.849,364.501 348.182,362.501 324.5,360.5C 317.104,361.682 309.771,363.182 302.5,365C 281.806,367.299 271.639,358.133 272,337.5C 272.662,336.016 273.496,334.683 274.5,333.5C 282.111,332.566 289.778,332.233 297.5,332.5C 306.5,332.5 315.5,332.5 324.5,332.5C 348.167,332.5 371.833,332.5 395.5,332.5C 400.167,332.5 404.833,332.5 409.5,332.5C 416.841,332.666 424.174,332.5 431.5,332C 437.653,327.748 437.986,323.081 432.5,318C 426.74,318.122 421.407,317.289 416.5,315.5C 419.462,306.931 422.796,298.598 426.5,290.5 Z"/></g>
<g><path style="opacity:0.997" fill="#ef7281" d="M 488.5,297.5 C 488.667,327.502 488.5,357.502 488,387.5C 483.959,400.209 475.459,408.042 462.5,411C 440.169,411.5 417.836,411.667 395.5,411.5C 395.5,396.5 395.5,381.5 395.5,366.5C 406.843,366.945 418.176,367.612 429.5,368.5C 434.048,368.701 438.381,367.867 442.5,366C 446.422,362.749 449.588,358.916 452,354.5C 460.058,341.948 467.892,329.282 475.5,316.5C 479.586,309.993 483.92,303.66 488.5,297.5 Z"/></g>
<g><path style="opacity:1" fill="#c58d7a" d="M 100.5,317.5 C 102.871,322.265 104.871,327.265 106.5,332.5C 98.8261,332.666 91.1594,332.5 83.5,332C 77.3469,327.748 77.0135,323.081 82.5,318C 88.4908,317.501 94.4908,317.334 100.5,317.5 Z"/></g>
<g><path style="opacity:1" fill="#ecbaa3" d="M 416.5,315.5 C 421.407,317.289 426.74,318.122 432.5,318C 437.986,323.081 437.653,327.748 431.5,332C 424.174,332.5 416.841,332.666 409.5,332.5C 411.595,326.656 413.928,320.989 416.5,315.5 Z"/></g>
<g><path style="opacity:0.989" fill="#6c7fd7" d="M 27.5,341.5 C 36.8333,341.5 46.1667,341.5 55.5,341.5C 60.2467,347.319 64.2467,353.652 67.5,360.5C 55.3446,361.495 43.0113,361.829 30.5,361.5C 29.2853,354.877 28.2853,348.211 27.5,341.5 Z"/></g>
<g><path style="opacity:0.993" fill="#8694dd" d="M 67.5,360.5 C 70.3904,363.553 73.7238,366.053 77.5,368C 84.195,368.665 90.8616,368.498 97.5,367.5C 96.791,368.404 95.791,368.737 94.5,368.5C 101.084,404.345 108.418,440.012 116.5,475.5C 116.33,478.326 114.997,480.326 112.5,481.5C 75.8318,481.667 39.1652,481.5 2.5,481C 1.62656,479.955 0.626561,479.122 -0.5,478.5C -0.5,475.833 -0.5,473.167 -0.5,470.5C 1.29378,454.977 3.12711,439.31 5,423.5C 9.39275,401.06 17.8927,380.394 30.5,361.5C 43.0113,361.829 55.3446,361.495 67.5,360.5 Z"/></g>
<g><path style="opacity:0.982" fill="#6c7fd7" d="M 117.5,366.5 C 125.548,402.737 133.214,439.07 140.5,475.5C 140.674,477.693 140.007,479.527 138.5,481C 129.84,481.5 121.173,481.666 112.5,481.5C 114.997,480.326 116.33,478.326 116.5,475.5C 108.418,440.012 101.084,404.345 94.5,368.5C 95.791,368.737 96.791,368.404 97.5,367.5C 104.143,366.788 110.809,366.454 117.5,366.5 Z"/></g>
<g><path style="opacity:0.999" fill="#ffe076" d="M 395.5,434.5 C 426.167,434.5 456.833,434.5 487.5,434.5C 487.667,448.837 487.5,463.171 487,477.5C 485.898,478.949 484.731,480.282 483.5,481.5C 454.745,481.983 426.078,481.483 397.5,480C 396.874,479.25 396.374,478.416 396,477.5C 395.5,463.171 395.333,448.837 395.5,434.5 Z"/></g>
<g><path style="opacity:0.988" fill="#fece5d" d="M 395.5,434.5 C 395.5,434.167 395.5,433.833 395.5,433.5C 434.167,433.5 472.833,433.5 511.5,433.5C 511.5,448.5 511.5,463.5 511.5,478.5C 510.373,479.122 509.373,479.955 508.5,481C 500.173,481.5 491.84,481.666 483.5,481.5C 484.731,480.282 485.898,478.949 487,477.5C 487.5,463.171 487.667,448.837 487.5,434.5C 456.833,434.5 426.167,434.5 395.5,434.5 Z"/></g>
</svg>
